<svg width="298" height="391" viewBox="0 0 298 391" fill="none" xmlns="http://www.w3.org/2000/svg">
    <g clip-path="url(#clip0_52_337)">
    <g clip-path="url(#clip1_52_337)">
    <ellipse cx="149" cy="332.832" rx="135" ry="58" fill="url(#paint0_radial_52_337)"/>
    <g filter="url(#filter0_bi_52_337)">
    <circle cx="149" cy="149" r="149" fill="#386085" fill-opacity="0.04"/>
    </g>
    <g filter="url(#filter1_f_52_337)">
    <ellipse cx="190.448" cy="230.416" rx="82.3674" ry="46.3329" transform="rotate(-31.3434 190.448 230.416)" fill="url(#paint1_radial_52_337)"/>
    </g>
    <g filter="url(#filter2_f_52_337)">
    <ellipse cx="72.6971" cy="71.697" rx="49" ry="18.4539" transform="rotate(-45 72.6971 71.697)" fill="url(#paint2_radial_52_337)"/>
    </g>
    </g>
    </g>
    <g filter="url(#filter3_b_52_337)">
    <g clip-path="url(#clip2_52_337)">
    <rect x="145" y="57" width="100" height="154" rx="12" transform="rotate(30 145 57)" fill="#BA6565" fill-opacity="0.8"/>
    <path fill-rule="evenodd" clip-rule="evenodd" d="M164.263 123.998C170.626 121.738 178.063 122.277 184.118 125.773C194.836 131.961 198.4 145.236 192.217 155.945C184.636 169.076 166.645 172.957 139.388 178.839L139.321 178.853L131.625 180.529L129.209 173.061L129.144 172.857C120.653 146.354 115.052 128.871 122.62 115.763C128.803 105.055 142.081 101.503 152.799 107.691C158.854 111.187 163.04 117.358 164.263 123.998Z" fill="url(#paint3_radial_52_337)"/>
    <path fill-rule="evenodd" clip-rule="evenodd" d="M158.574 133.702C162.42 132.336 166.916 132.662 170.576 134.775C177.055 138.516 179.209 146.541 175.472 153.014C170.889 160.952 160.013 163.299 143.536 166.854L143.495 166.863L138.843 167.876L137.382 163.362L137.343 163.238C132.21 147.217 128.824 136.648 133.399 128.724C137.137 122.25 145.164 120.103 151.643 123.844C155.304 125.957 157.834 129.688 158.574 133.702Z" fill="url(#paint4_radial_52_337)"/>
    <path fill-rule="evenodd" clip-rule="evenodd" d="M155.211 139.98C157.512 139.162 160.201 139.357 162.39 140.621C166.266 142.859 167.554 147.659 165.319 151.531C162.578 156.279 156.073 157.683 146.217 159.809L146.192 159.814L143.41 160.42L142.536 157.72L142.513 157.646C139.443 148.063 137.417 141.742 140.154 137.002C142.389 133.13 147.191 131.846 151.066 134.083C153.255 135.347 154.769 137.579 155.211 139.98Z" fill="url(#paint5_radial_52_337)"/>
    <rect x="147.379" y="65.8792" width="87" height="141" rx="7.5" transform="rotate(30 147.379 65.8792)" stroke="url(#paint6_linear_52_337)" stroke-opacity="0.8"/>
    </g>
    </g>
    <defs>
    <filter id="filter0_bi_52_337" x="-60" y="-60" width="418" height="418" filterUnits="userSpaceOnUse" color-interpolation-filters="sRGB">
    <feFlood flood-opacity="0" result="BackgroundImageFix"/>
    <feGaussianBlur in="BackgroundImageFix" stdDeviation="30"/>
    <feComposite in2="SourceAlpha" operator="in" result="effect1_backgroundBlur_52_337"/>
    <feBlend mode="normal" in="SourceGraphic" in2="effect1_backgroundBlur_52_337" result="shape"/>
    <feColorMatrix in="SourceAlpha" type="matrix" values="0 0 0 0 0 0 0 0 0 0 0 0 0 0 0 0 0 0 127 0" result="hardAlpha"/>
    <feOffset/>
    <feGaussianBlur stdDeviation="18"/>
    <feComposite in2="hardAlpha" operator="arithmetic" k2="-1" k3="1"/>
    <feColorMatrix type="matrix" values="0 0 0 0 0.883333 0 0 0 0 0.916 0 0 0 0 1 0 0 0 0.5 0"/>
    <feBlend mode="normal" in2="shape" result="effect2_innerShadow_52_337"/>
    </filter>
    <filter id="filter1_f_52_337" x="106.067" y="162.093" width="168.763" height="136.646" filterUnits="userSpaceOnUse" color-interpolation-filters="sRGB">
    <feFlood flood-opacity="0" result="BackgroundImageFix"/>
    <feBlend mode="normal" in="SourceGraphic" in2="BackgroundImageFix" result="shape"/>
    <feGaussianBlur stdDeviation="5" result="effect1_foregroundBlur_52_337"/>
    </filter>
    <filter id="filter2_f_52_337" x="25.6631" y="24.6631" width="94.068" height="94.068" filterUnits="userSpaceOnUse" color-interpolation-filters="sRGB">
    <feFlood flood-opacity="0" result="BackgroundImageFix"/>
    <feBlend mode="normal" in="SourceGraphic" in2="BackgroundImageFix" result="shape"/>
    <feGaussianBlur stdDeviation="5" result="effect1_foregroundBlur_52_337"/>
    </filter>
    <filter id="filter3_b_52_337" x="56" y="45" width="187.603" height="207.368" filterUnits="userSpaceOnUse" color-interpolation-filters="sRGB">
    <feFlood flood-opacity="0" result="BackgroundImageFix"/>
    <feGaussianBlur in="BackgroundImageFix" stdDeviation="6"/>
    <feComposite in2="SourceAlpha" operator="in" result="effect1_backgroundBlur_52_337"/>
    <feBlend mode="normal" in="SourceGraphic" in2="effect1_backgroundBlur_52_337" result="shape"/>
    </filter>
    <radialGradient id="paint0_radial_52_337" cx="0" cy="0" r="1" gradientUnits="userSpaceOnUse" gradientTransform="translate(149 332.832) rotate(90) scale(58 135)">
    <stop offset="0.0520833" stop-color="#8FA9FF" stop-opacity="0.37"/>
    <stop offset="1" stop-color="#6376BC" stop-opacity="0"/>
    </radialGradient>
    <radialGradient id="paint1_radial_52_337" cx="0" cy="0" r="1" gradientUnits="userSpaceOnUse" gradientTransform="translate(193.276 241.838) rotate(94.6319) scale(35.0255 62.4368)">
    <stop offset="0.213542" stop-color="#353B4B" stop-opacity="0.61"/>
    <stop offset="1" stop-color="#353B4B" stop-opacity="0"/>
    </radialGradient>
    <radialGradient id="paint2_radial_52_337" cx="0" cy="0" r="1" gradientUnits="userSpaceOnUse" gradientTransform="translate(72.6971 71.697) rotate(90) scale(18.4539 49)">
    <stop stop-color="#CEDCFF" stop-opacity="0.62"/>
    <stop offset="0.890625" stop-color="#DCE9F5" stop-opacity="0"/>
    </radialGradient>
    <radialGradient id="paint3_radial_52_337" cx="0" cy="0" r="1" gradientUnits="userSpaceOnUse" gradientTransform="translate(153.251 143.072) rotate(120) scale(43.2513 47.1832)">
    <stop stop-color="#FF5C46" stop-opacity="0.7"/>
    <stop offset="1" stop-color="#FF5C46" stop-opacity="0"/>
    </radialGradient>
    <radialGradient id="paint4_radial_52_337" cx="0" cy="0" r="1" gradientUnits="userSpaceOnUse" gradientTransform="translate(151.916 145.233) rotate(120) scale(26.1462 28.5232)">
    <stop stop-color="#FF5C46" stop-opacity="0.7"/>
    <stop offset="1" stop-color="#FF5C46" stop-opacity="0"/>
    </radialGradient>
    <radialGradient id="paint5_radial_52_337" cx="0" cy="0" r="1" gradientUnits="userSpaceOnUse" gradientTransform="translate(151.229 146.877) rotate(120) scale(15.6389 17.0606)">
    <stop stop-color="#FF5C46" stop-opacity="0.7"/>
    <stop offset="1" stop-color="#FF5C46" stop-opacity="0"/>
    </radialGradient>
    <linearGradient id="paint6_linear_52_337" x1="149.616" y1="65.1962" x2="240.223" y2="203.913" gradientUnits="userSpaceOnUse">
    <stop stop-color="#6B2319" stop-opacity="0.51"/>
    <stop offset="0.307292" stop-color="#FF5D48" stop-opacity="0.62"/>
    <stop offset="1" stop-color="#FF9E91" stop-opacity="0.13"/>
    </linearGradient>
    <clipPath id="clip0_52_337">
    <rect width="298" height="391" fill="white"/>
    </clipPath>
    <clipPath id="clip1_52_337">
    <rect width="298" height="391" fill="white"/>
    </clipPath>
    <clipPath id="clip2_52_337">
    <rect x="145" y="57" width="100" height="154" rx="12" transform="rotate(30 145 57)" fill="white"/>
    </clipPath>
    </defs>
    </svg>
    