<svg width="26" height="26" viewBox="0 0 26 26" fill="none" xmlns="http://www.w3.org/2000/svg">
<g id="CardGrid">
<path id="Vector" d="M3.25 4.33333C3.25 4.04602 3.36414 3.77047 3.5673 3.5673C3.77047 3.36414 4.04602 3.25 4.33333 3.25H7.58333C7.87065 3.25 8.1462 3.36414 8.34937 3.5673C8.55253 3.77047 8.66667 4.04602 8.66667 4.33333V7.58333C8.66667 7.87065 8.55253 8.1462 8.34937 8.34937C8.1462 8.55253 7.87065 8.66667 7.58333 8.66667H4.33333C4.04602 8.66667 3.77047 8.55253 3.5673 8.34937C3.36414 8.1462 3.25 7.87065 3.25 7.58333V4.33333ZM3.25 11.375C3.25 11.0877 3.36414 10.8121 3.5673 10.609C3.77047 10.4058 4.04602 10.2917 4.33333 10.2917H7.58333C7.87065 10.2917 8.1462 10.4058 8.34937 10.609C8.55253 10.8121 8.66667 11.0877 8.66667 11.375V14.625C8.66667 14.9123 8.55253 15.1879 8.34937 15.391C8.1462 15.5942 7.87065 15.7083 7.58333 15.7083H4.33333C4.04602 15.7083 3.77047 15.5942 3.5673 15.391C3.36414 15.1879 3.25 14.9123 3.25 14.625V11.375ZM3.25 18.4167C3.25 18.1293 3.36414 17.8538 3.5673 17.6506C3.77047 17.4475 4.04602 17.3333 4.33333 17.3333H7.58333C7.87065 17.3333 8.1462 17.4475 8.34937 17.6506C8.55253 17.8538 8.66667 18.1293 8.66667 18.4167V21.6667C8.66667 21.954 8.55253 22.2295 8.34937 22.4327C8.1462 22.6359 7.87065 22.75 7.58333 22.75H4.33333C4.04602 22.75 3.77047 22.6359 3.5673 22.4327C3.36414 22.2295 3.25 21.954 3.25 21.6667V18.4167ZM10.2917 4.33333C10.2917 4.04602 10.4058 3.77047 10.609 3.5673C10.8121 3.36414 11.0877 3.25 11.375 3.25H14.625C14.9123 3.25 15.1879 3.36414 15.391 3.5673C15.5942 3.77047 15.7083 4.04602 15.7083 4.33333V7.58333C15.7083 7.87065 15.5942 8.1462 15.391 8.34937C15.1879 8.55253 14.9123 8.66667 14.625 8.66667H11.375C11.0877 8.66667 10.8121 8.55253 10.609 8.34937C10.4058 8.1462 10.2917 7.87065 10.2917 7.58333V4.33333ZM10.2917 11.375C10.2917 11.0877 10.4058 10.8121 10.609 10.609C10.8121 10.4058 11.0877 10.2917 11.375 10.2917H14.625C14.9123 10.2917 15.1879 10.4058 15.391 10.609C15.5942 10.8121 15.7083 11.0877 15.7083 11.375V14.625C15.7083 14.9123 15.5942 15.1879 15.391 15.391C15.1879 15.5942 14.9123 15.7083 14.625 15.7083H11.375C11.0877 15.7083 10.8121 15.5942 10.609 15.391C10.4058 15.1879 10.2917 14.9123 10.2917 14.625V11.375ZM10.2917 18.4167C10.2917 18.1293 10.4058 17.8538 10.609 17.6506C10.8121 17.4475 11.0877 17.3333 11.375 17.3333H14.625C14.9123 17.3333 15.1879 17.4475 15.391 17.6506C15.5942 17.8538 15.7083 18.1293 15.7083 18.4167V21.6667C15.7083 21.954 15.5942 22.2295 15.391 22.4327C15.1879 22.6359 14.9123 22.75 14.625 22.75H11.375C11.0877 22.75 10.8121 22.6359 10.609 22.4327C10.4058 22.2295 10.2917 21.954 10.2917 21.6667V18.4167ZM17.3333 4.33333C17.3333 4.04602 17.4475 3.77047 17.6506 3.5673C17.8538 3.36414 18.1293 3.25 18.4167 3.25H21.6667C21.954 3.25 22.2295 3.36414 22.4327 3.5673C22.6359 3.77047 22.75 4.04602 22.75 4.33333V7.58333C22.75 7.87065 22.6359 8.1462 22.4327 8.34937C22.2295 8.55253 21.954 8.66667 21.6667 8.66667H18.4167C18.1293 8.66667 17.8538 8.55253 17.6506 8.34937C17.4475 8.1462 17.3333 7.87065 17.3333 7.58333V4.33333ZM17.3333 11.375C17.3333 11.0877 17.4475 10.8121 17.6506 10.609C17.8538 10.4058 18.1293 10.2917 18.4167 10.2917H21.6667C21.954 10.2917 22.2295 10.4058 22.4327 10.609C22.6359 10.8121 22.75 11.0877 22.75 11.375V14.625C22.75 14.9123 22.6359 15.1879 22.4327 15.391C22.2295 15.5942 21.954 15.7083 21.6667 15.7083H18.4167C18.1293 15.7083 17.8538 15.5942 17.6506 15.391C17.4475 15.1879 17.3333 14.9123 17.3333 14.625V11.375ZM17.3333 18.4167C17.3333 18.1293 17.4475 17.8538 17.6506 17.6506C17.8538 17.4475 18.1293 17.3333 18.4167 17.3333H21.6667C21.954 17.3333 22.2295 17.4475 22.4327 17.6506C22.6359 17.8538 22.75 18.1293 22.75 18.4167V21.6667C22.75 21.954 22.6359 22.2295 22.4327 22.4327C22.2295 22.6359 21.954 22.75 21.6667 22.75H18.4167C18.1293 22.75 17.8538 22.6359 17.6506 22.4327C17.4475 22.2295 17.3333 21.954 17.3333 21.6667V18.4167Z" fill="#D0D5E1"/>
</g>
</svg>
