<svg width="34" height="34" viewBox="0 0 34 34" fill="none" xmlns="http://www.w3.org/2000/svg">
<g id="Flip">
<g id="Group">
<path id="Vector" d="M25.5 9.91683C25.8757 9.91683 26.2361 10.0661 26.5017 10.3318C26.7674 10.5974 26.9167 10.9578 26.9167 11.3335V22.6668C26.9167 23.0426 26.7674 23.4029 26.5017 23.6686C26.2361 23.9342 25.8757 24.0835 25.5 24.0835H22.6667C21.8843 24.0835 21.25 24.7178 21.25 25.5002C21.25 26.2826 21.8843 26.9168 22.6667 26.9168H25.5C26.6272 26.9168 27.7082 26.4691 28.5052 25.672C29.3022 24.875 29.75 23.794 29.75 22.6668V11.3335C29.75 10.2063 29.3022 9.12532 28.5052 8.32829C27.7082 7.53126 26.6272 7.0835 25.5 7.0835H22.6667C21.8843 7.0835 21.25 7.71776 21.25 8.50016C21.25 9.28257 21.8843 9.91683 22.6667 9.91683H25.5Z" fill="#53565E"/>
<path id="Vector_2" d="M18.4167 5.66667C18.4167 4.88426 17.7824 4.25 17 4.25C16.2176 4.25 15.5833 4.88426 15.5833 5.66667V28.3333C15.5833 29.1157 16.2176 29.75 17 29.75C17.7824 29.75 18.4167 29.1157 18.4167 28.3333V5.66667ZM7.08333 11.3333C7.08333 10.9576 7.23259 10.5973 7.49827 10.3316C7.76394 10.0659 8.12428 9.91667 8.5 9.91667H11.3333C12.1157 9.91667 12.75 9.2824 12.75 8.5C12.75 7.7176 12.1157 7.08333 11.3333 7.08333H8.5C7.37283 7.08333 6.29183 7.5311 5.4948 8.32813C4.69777 9.12516 4.25 10.2062 4.25 11.3333V22.6667C4.25 23.7938 4.69777 24.8748 5.4948 25.6719C6.29183 26.4689 7.37283 26.9167 8.5 26.9167H11.3333C12.1157 26.9167 12.75 26.2824 12.75 25.5C12.75 24.7176 12.1157 24.0833 11.3333 24.0833H8.5C8.12428 24.0833 7.76394 23.9341 7.49827 23.6684C7.23259 23.4027 7.08333 23.0424 7.08333 22.6667V11.3333Z" fill="#D0D5E1"/>
</g>
</g>
</svg>
