<svg width="100" height="154" viewBox="0 0 100 154" fill="none" xmlns="http://www.w3.org/2000/svg">
<g filter="url(#filter0_b_114_12648)">
<rect width="100" height="154" rx="12" fill="#BA6565" fill-opacity="0.8"/>
<path fill-rule="evenodd" clip-rule="evenodd" d="M50.1818 48.3904C54.5616 43.2518 61.272 40 68.2636 40C80.6396 40 90.3636 49.7152 90.3636 62.0799C90.3636 77.2424 76.7242 89.5993 56.0591 108.321L56.0082 108.367L50.1818 113.667L44.3555 108.408L44.1968 108.264C23.592 89.5564 10 77.216 10 62.0799C10 49.7152 19.724 40 32.1 40C39.0916 40 45.802 43.2518 50.1818 48.3904Z" fill="url(#paint0_radial_114_12648)"/>
<path fill-rule="evenodd" clip-rule="evenodd" d="M50.1061 59.6391C52.7538 56.5327 56.8104 54.567 61.037 54.567C68.5185 54.567 74.3968 60.44 74.3968 67.9147C74.3968 77.0807 66.1516 84.5507 53.6591 95.8686L53.6283 95.8964L50.1061 99.0999L46.584 95.9207L46.4881 95.8337C34.0321 84.5248 25.8154 77.0648 25.8154 67.9147C25.8154 60.44 31.6938 54.567 39.1753 54.567C43.4019 54.567 47.4584 56.5327 50.1061 59.6391Z" fill="url(#paint1_radial_114_12648)"/>
<path fill-rule="evenodd" clip-rule="evenodd" d="M50.3332 66.7569C51.9169 64.8989 54.3432 63.7231 56.8713 63.7231C61.3462 63.7231 64.8622 67.2359 64.8622 71.7068C64.8622 77.1893 59.9305 81.6573 52.4583 88.4268L52.4399 88.4435L50.3332 90.3596L48.2265 88.458L48.1691 88.406C40.7188 81.6418 35.8042 77.1797 35.8042 71.7068C35.8042 67.2359 39.3202 63.7231 43.7952 63.7231C46.3232 63.7231 48.7496 64.8989 50.3332 66.7569Z" fill="url(#paint2_radial_114_12648)"/>
<rect x="6.5" y="6.5" width="87" height="141" rx="7.5" stroke="url(#paint3_linear_114_12648)" stroke-opacity="0.8"/>
</g>
<defs>
<filter id="filter0_b_114_12648" x="-12" y="-12" width="124" height="178" filterUnits="userSpaceOnUse" color-interpolation-filters="sRGB">
<feFlood flood-opacity="0" result="BackgroundImageFix"/>
<feGaussianBlur in="BackgroundImageFix" stdDeviation="6"/>
<feComposite in2="SourceAlpha" operator="in" result="effect1_backgroundBlur_114_12648"/>
<feBlend mode="normal" in="SourceGraphic" in2="effect1_backgroundBlur_114_12648" result="shape"/>
</filter>
<radialGradient id="paint0_radial_114_12648" cx="0" cy="0" r="1" gradientUnits="userSpaceOnUse" gradientTransform="translate(50.1818 70.4154) rotate(90) scale(43.2513 47.1832)">
<stop stop-color="#FF5C46" stop-opacity="0.7"/>
<stop offset="1" stop-color="#FF5C46" stop-opacity="0"/>
</radialGradient>
<radialGradient id="paint1_radial_114_12648" cx="0" cy="0" r="1" gradientUnits="userSpaceOnUse" gradientTransform="translate(50.1061 72.9537) rotate(90) scale(26.1462 28.5232)">
<stop stop-color="#FF5C46" stop-opacity="0.7"/>
<stop offset="1" stop-color="#FF5C46" stop-opacity="0"/>
</radialGradient>
<radialGradient id="paint2_radial_114_12648" cx="0" cy="0" r="1" gradientUnits="userSpaceOnUse" gradientTransform="translate(50.3332 74.7207) rotate(90) scale(15.6389 17.0606)">
<stop stop-color="#FF5C46" stop-opacity="0.7"/>
<stop offset="1" stop-color="#FF5C46" stop-opacity="0"/>
</radialGradient>
<linearGradient id="paint3_linear_114_12648" x1="8.42" y1="6" x2="99.0267" y2="144.717" gradientUnits="userSpaceOnUse">
<stop stop-color="#6B2319" stop-opacity="0.51"/>
<stop offset="0.307292" stop-color="#FF5D48" stop-opacity="0.62"/>
<stop offset="1" stop-color="#FF9E91" stop-opacity="0.13"/>
</linearGradient>
</defs>
</svg>
