<svg width="100" height="154" viewBox="0 0 100 154" fill="none" xmlns="http://www.w3.org/2000/svg">
<g filter="url(#filter0_b_114_12653)">
<rect width="100" height="154" rx="12" fill="#778F41" fill-opacity="0.8"/>
<g opacity="0.9">
<path fill-rule="evenodd" clip-rule="evenodd" d="M81.1363 58.1363C78.7636 55.7636 75.3828 54.5899 72.1526 54.8474C72.4101 51.6171 71.2363 48.2363 68.8636 45.8636C64.6636 41.6636 58.0666 41.6606 53.8705 45.8568C51.7768 47.9504 50.6071 50.6527 49.9996 54.0229C49.3929 50.6532 48.2232 47.9507 46.1294 45.8569C41.9333 41.6607 35.3363 41.6637 31.1363 45.8637C28.7635 48.2365 27.5898 51.6173 27.8473 54.8475C24.6171 54.59 21.2363 55.7637 18.8636 58.1364C14.6636 62.3364 14.6606 68.9334 18.8568 73.1296C20.9498 75.2226 23.6512 76.3923 27.0201 77C23.6511 77.6077 20.9498 78.7774 18.8567 80.8704C14.6606 85.0666 14.6636 91.6636 18.8635 95.8636C21.2363 98.2363 24.6171 99.41 27.8473 99.1525C27.5898 102.383 28.7635 105.764 31.1362 108.136C35.3362 112.336 41.9332 112.339 46.1294 108.143C48.2232 106.049 49.3929 103.347 49.9995 99.977C50.6071 103.347 51.7768 106.05 53.8705 108.143C58.0666 112.339 64.6636 112.336 68.8636 108.136C71.2363 105.764 72.4101 102.383 72.1526 99.1526C75.3828 99.4101 78.7636 98.2363 81.1363 95.8636C85.3363 91.6636 85.3393 85.0666 81.1431 80.8705C79.0489 78.7763 76.3457 77.6065 72.9751 77C76.3457 76.3935 79.0489 75.2237 81.1431 73.1295C85.3393 68.9333 85.3363 62.3363 81.1363 58.1363ZM50.0012 77L50 76.9999L49.9999 76.9984L49.9998 77L49.9999 77L49.9999 77.0016L50 77L50.0012 77Z" fill="url(#paint0_radial_114_12653)"/>
<path fill-rule="evenodd" clip-rule="evenodd" d="M69.7054 64.864C68.1887 63.3474 66.0278 62.5971 63.963 62.7617C64.1276 60.697 63.3774 58.536 61.8608 57.0194C59.1761 54.3348 54.9594 54.3329 52.2772 57.015C50.939 58.3532 50.1914 60.0805 49.803 62.2347C49.4153 60.0808 48.6676 58.3533 47.3292 57.015C44.6471 54.3328 40.4303 54.3348 37.7457 57.0194C36.2291 58.536 35.4789 60.697 35.6435 62.7617C33.5787 62.5971 31.4177 63.3474 29.9011 64.864C27.2165 67.5486 27.2146 71.7653 29.8967 74.4475C31.2346 75.7854 32.9613 76.533 35.1148 76.9214C32.9613 77.3099 31.2346 78.0575 29.8967 79.3954C27.2146 82.0776 27.2165 86.2943 29.9011 88.9789C31.4177 90.4955 33.5787 91.2458 35.6435 91.0812C35.4789 93.1459 36.2291 95.3069 37.7457 96.8235C40.4303 99.5081 44.6471 99.5101 47.3292 96.8279C48.6676 95.4896 49.4152 93.7622 49.803 91.6083C50.1913 93.7625 50.939 95.4898 52.2772 96.828C54.9594 99.5102 59.1762 99.5083 61.8608 96.8237C63.3774 95.307 64.1276 93.146 63.963 91.0813C66.0278 91.2459 68.1888 90.4957 69.7054 88.979C72.39 86.2944 72.3919 82.0777 69.7097 79.3955C68.3711 78.0569 66.6433 77.3092 64.4888 76.9215C66.6433 76.5339 68.3711 75.7861 69.7097 74.4475C72.3919 71.7654 72.39 67.5486 69.7054 64.864ZM49.804 76.9215L49.8033 76.9215L49.8032 76.9207L49.8032 76.9214L49.8032 76.9215L49.8032 76.9223L49.8033 76.9216L49.804 76.9215Z" fill="url(#paint1_radial_114_12653)"/>
<path fill-rule="evenodd" clip-rule="evenodd" d="M61.2427 69.8727C60.371 69.001 59.1289 68.5698 57.9421 68.6644C58.0367 67.4776 57.6055 66.2355 56.7337 65.3637C55.1907 63.8207 52.7669 63.8196 51.2252 65.3612C50.4561 66.1304 50.0263 67.1232 49.8031 68.3613C49.5802 67.1233 49.1504 66.1305 48.3812 65.3612C46.8395 63.8196 44.4158 63.8207 42.8727 65.3637C42.001 66.2355 41.5697 67.4776 41.6643 68.6644C40.4776 68.5698 39.2354 69.001 38.3637 69.8727C36.8206 71.4158 36.8195 73.8396 38.3612 75.3812C39.1302 76.1502 40.1226 76.5799 41.3603 76.8032C40.1226 77.0265 39.1302 77.4562 38.3612 78.2252C36.8195 79.7669 36.8206 82.1906 38.3637 83.7337C39.2354 84.6054 40.4776 85.0367 41.6643 84.9421C41.5697 86.1288 42.001 87.371 42.8727 88.2427C44.4158 89.7858 46.8395 89.7869 48.3812 88.2452C49.1504 87.476 49.5802 86.4831 49.8031 85.2452C50.0263 86.4833 50.4561 87.4761 51.2252 88.2453C52.7669 89.787 55.1907 89.7859 56.7337 88.2428C57.6055 87.3711 58.0367 86.1289 57.9421 84.9422C59.1289 85.0368 60.371 84.6055 61.2427 83.7338C62.7858 82.1907 62.7869 79.767 61.2452 78.2253C60.4758 77.4559 59.4827 77.0261 58.2443 76.8033C59.4827 76.5804 60.4758 76.1507 61.2452 75.3813C62.7869 73.8396 62.7858 71.4158 61.2427 69.8727ZM49.8035 76.8033L49.8032 76.8033V76.8033L49.8035 76.8033Z" fill="url(#paint2_radial_114_12653)"/>
</g>
<rect x="6.5" y="6.5" width="87" height="141" rx="7.5" stroke="url(#paint3_linear_114_12653)" stroke-opacity="0.5"/>
</g>
<defs>
<filter id="filter0_b_114_12653" x="-12" y="-12" width="124" height="178" filterUnits="userSpaceOnUse" color-interpolation-filters="sRGB">
<feFlood flood-opacity="0" result="BackgroundImageFix"/>
<feGaussianBlur in="BackgroundImageFix" stdDeviation="6"/>
<feComposite in2="SourceAlpha" operator="in" result="effect1_backgroundBlur_114_12653"/>
<feBlend mode="normal" in="SourceGraphic" in2="effect1_backgroundBlur_114_12653" result="shape"/>
</filter>
<radialGradient id="paint0_radial_114_12653" cx="0" cy="0" r="1" gradientUnits="userSpaceOnUse" gradientTransform="translate(50 77) rotate(135) scale(35.3553 35.3554)">
<stop stop-color="#BFE373" stop-opacity="0.77"/>
<stop offset="1" stop-color="#BFE373" stop-opacity="0"/>
</radialGradient>
<radialGradient id="paint1_radial_114_12653" cx="0" cy="0" r="1" gradientUnits="userSpaceOnUse" gradientTransform="translate(49.8032 76.9215) rotate(135) scale(22.5989 22.5989)">
<stop stop-color="#BFE373" stop-opacity="0.77"/>
<stop offset="1" stop-color="#BFE373" stop-opacity="0"/>
</radialGradient>
<radialGradient id="paint2_radial_114_12653" cx="0" cy="0" r="1" gradientUnits="userSpaceOnUse" gradientTransform="translate(49.8032 76.8033) rotate(135) scale(12.9896 12.9896)">
<stop stop-color="#BFE373" stop-opacity="0.77"/>
<stop offset="1" stop-color="#BFE373" stop-opacity="0"/>
</radialGradient>
<linearGradient id="paint3_linear_114_12653" x1="8.42" y1="6" x2="99.0267" y2="144.717" gradientUnits="userSpaceOnUse">
<stop stop-color="#445128" stop-opacity="0.51"/>
<stop offset="0.307292" stop-color="#BFE373"/>
<stop offset="1" stop-color="#ECFFC4" stop-opacity="0.03"/>
</linearGradient>
</defs>
</svg>
