<svg width="220" height="330" viewBox="0 0 220 330" fill="none" xmlns="http://www.w3.org/2000/svg">
<rect width="220" height="330" rx="24" fill="#32363A"/>
<g clip-path="url(#clip0_127_1337)">
<circle cx="185" cy="295" r="14" stroke="#7A7F8D" stroke-width="2"/>
<path fill-rule="evenodd" clip-rule="evenodd" d="M191.707 290.293C192.098 290.683 192.098 291.317 191.707 291.707L184.207 299.207C183.817 299.598 183.183 299.598 182.793 299.207L178.293 294.707C177.902 294.317 177.902 293.683 178.293 293.293C178.683 292.902 179.317 292.902 179.707 293.293L183.5 297.086L190.293 290.293C190.683 289.902 191.317 289.902 191.707 290.293Z" fill="#7A7F8D"/>
</g>
<path d="M109.776 134.926L129.483 195.577L193.255 195.577L141.662 233.062L161.369 293.713L109.776 256.229L58.1824 293.713L77.8893 233.062L26.296 195.577L90.0688 195.577L109.776 134.926Z" fill="url(#paint0_radial_127_1337)"/>
<path d="M109.776 169.746L121.665 206.588H160.139L129.013 229.357L140.902 266.2L109.776 243.43L78.6491 266.2L90.5384 229.357L59.4119 206.588H97.8864L109.776 169.746Z" fill="url(#paint1_radial_127_1337)"/>
<path d="M109.776 194.41L116.128 213.959H136.682L120.053 226.041L126.405 245.59L109.776 233.508L93.1465 245.59L99.4983 226.041L82.8691 213.959H103.424L109.776 194.41Z" fill="url(#paint2_radial_127_1337)"/>
<g filter="url(#filter0_d_127_1337)">
<path d="M78.6513 54.172L82.1073 43.048H78.6513V37.468H99.5312V43.048H96.0753L99.5312 54.172H92.1513L89.0913 43.012L86.0312 54.172H78.6513ZM101.511 58.564V37.468H108.711V58.564H101.511ZM78.8313 56.152H86.0312V62.344L95.0312 62.308C99.7113 62.272 104.751 61.912 108.891 61.264V67.924H78.8313V56.152ZM112.3 42.868V37.468H142.18V50.428H119.5V53.128C128.284 53.128 134.692 52.876 142.18 52.156V58.528H131.02V62.344H142.18V67.924H112.3V62.344H123.46V58.528H112.3V45.244H134.98V42.868H112.3Z" fill="#3AE5DB"/>
</g>
<path d="M51.3855 87.932C51.3855 86.828 52.0935 86.156 53.2455 86.156H56.4855C57.6375 86.156 58.3455 86.828 58.3455 87.932C58.3455 89.036 57.6375 89.708 56.4855 89.708H53.2455C52.0935 89.708 51.3855 89.036 51.3855 87.932ZM60.0855 94.268V92.888H56.9655V92.264H60.0855V86.156H60.8055V94.268H60.0855ZM52.1055 87.932C52.1055 88.568 52.4175 89.084 53.2455 89.084H56.4855C57.3135 89.084 57.6255 88.568 57.6255 87.932C57.6255 87.296 57.3135 86.78 56.4855 86.78H53.2455C52.4175 86.78 52.1055 87.296 52.1055 87.932ZM51.4455 91.508V90.884H58.4055V91.508H55.1655V93.548H54.4455V91.508H51.4455ZM52.4055 93.644V95.684H60.9255V96.308H51.6855V93.644H52.4055ZM62.4817 86.996H65.4817V85.796H66.2017V86.996H69.2017V87.62H62.4817V86.996ZM70.7617 96.308V86.156H71.4817V90.416H73.0417V91.04H71.4817V96.308H70.7617ZM62.7817 91.496C62.7817 89.744 63.5977 88.436 65.8417 88.436C68.0857 88.436 68.9017 89.744 68.9017 91.496V93.368C68.9017 95.12 68.0857 96.428 65.8417 96.428C63.5977 96.428 62.7817 95.12 62.7817 93.368V91.496ZM65.8417 95.804C67.6177 95.804 68.1817 94.796 68.1817 93.368V91.496C68.1817 90.068 67.6177 89.06 65.8417 89.06C64.0657 89.06 63.5017 90.068 63.5017 91.496V93.368C63.5017 94.796 64.0657 95.804 65.8417 95.804ZM65.8417 93.596C65.7937 92.648 65.4457 92.372 64.6657 92.336C65.4457 92.3 65.7937 92.024 65.8417 91.076C65.8897 92.024 66.2257 92.3 67.0177 92.336C66.2257 92.372 65.8897 92.648 65.8417 93.596ZM74.598 86.156V89.324H83.178V89.948H73.878V86.156H74.598ZM73.758 91.544H83.238V92.168H73.758V91.544ZM74.718 93.644V95.684H83.238V96.308H73.998V93.644H74.718ZM96.5724 90.068H95.8284C96.1164 88.808 96.2484 88.076 96.3084 86.78H87.7164V86.156H97.0764C97.0044 88.076 96.8724 88.808 96.5724 90.068ZM87.6564 91.124H91.4364V88.496H92.1564V91.124H97.1364V91.748H87.6564V91.124ZM87.6204 96.308L92.0004 92.324H92.7924L97.1724 96.308H96.2364L92.3964 92.78L88.5564 96.308H87.6204ZM98.8727 88.376C98.8727 86.984 99.7487 86.036 101.273 86.036C102.797 86.036 103.673 86.984 103.673 88.376V90.416H105.413V86.156H106.133V96.308H105.413V91.04H103.673V94.088C103.673 95.48 102.797 96.428 101.273 96.428C99.7487 96.428 98.8727 95.48 98.8727 94.088V88.376ZM107.453 96.308V86.156H108.173V96.308H107.453ZM101.273 95.804C102.329 95.804 102.953 95.156 102.953 94.088V88.376C102.953 87.308 102.329 86.66 101.273 86.66C100.217 86.66 99.5927 87.308 99.5927 88.376V94.088C99.5927 95.156 100.217 95.804 101.273 95.804ZM101.273 92.396C101.225 91.448 100.877 91.172 100.097 91.136C100.877 91.1 101.225 90.824 101.273 89.876C101.321 90.824 101.657 91.1 102.449 91.136C101.657 91.172 101.321 91.448 101.273 92.396ZM112.591 86.876H115.711V85.796H116.431V86.876H119.551V87.5H116.827L119.431 90.848H118.687L116.083 87.5H116.059L113.455 90.848H112.711L115.315 87.5H112.591V86.876ZM121.351 96.308V86.156H122.071V96.308H121.351ZM112.711 92.888V92.264H119.671V92.888H116.431V96.308H115.711V92.888H112.711ZM132.507 91.244V88.748H130.047V88.868C130.047 90.26 128.871 91.268 126.987 91.268C125.103 91.268 123.927 90.26 123.927 88.868V88.436C123.927 87.044 125.103 86.036 126.987 86.036C128.727 86.036 129.867 86.9 130.023 88.124H132.507V86.156H133.227V91.244H132.507ZM126.987 90.644C128.403 90.644 129.327 89.936 129.327 88.868V88.436C129.327 87.368 128.403 86.66 126.987 86.66C125.571 86.66 124.647 87.368 124.647 88.436V88.868C124.647 89.936 125.571 90.644 126.987 90.644ZM126.987 89.888C126.939 88.94 126.591 88.664 125.811 88.628C126.591 88.592 126.939 88.316 126.987 87.368C127.035 88.316 127.371 88.592 128.163 88.628C127.371 88.664 127.035 88.94 126.987 89.888ZM124.827 91.844V93.284H132.507V91.844H133.227V96.308H124.107V91.844H124.827ZM132.507 95.684V93.908H124.827V95.684H132.507ZM134.964 88.112C134.964 86.888 135.792 86.156 136.944 86.156H142.584C143.736 86.156 144.564 86.888 144.564 88.112C144.564 89.336 143.736 90.068 142.584 90.068H136.944C135.792 90.068 134.964 89.336 134.964 88.112ZM135.684 88.112C135.684 88.868 136.116 89.444 136.944 89.444H142.584C143.412 89.444 143.844 88.868 143.844 88.112C143.844 87.356 143.412 86.78 142.584 86.78H136.944C136.116 86.78 135.684 87.356 135.684 88.112ZM135.024 91.604H144.504V92.228H135.024V91.604ZM135.984 93.644V95.684H144.504V96.308H135.264V93.644H135.984ZM149.042 89.288V86.156H158.282V89.288H149.042ZM149.762 88.664H157.562V86.78H149.762V88.664ZM148.922 90.284H158.402V90.908H154.022V92.192H158.282V94.508H149.762V95.684H158.402V96.308H149.042V93.884H157.562V92.816H149.042V92.192H153.302V90.908H148.922V90.284ZM160.198 90.788V88.16H168.718V86.78H160.198V86.156H169.438V88.784H160.918V90.164H169.498V90.788H165.178V92.324H169.558V92.948H160.078V92.324H164.458V90.788H160.198ZM161.038 94.004V95.684H169.558V96.308H160.318V94.004H161.038ZM44.2705 109.988V104.156H53.5105V109.988H49.2505V113.684H53.6305V114.308H44.1505V113.684H48.5305V109.988H44.2705ZM44.9905 109.364H52.7905V104.78H44.9905V109.364ZM55.4268 108.068V104.156H64.6668V104.78H56.1468V107.444H64.7268V108.068H55.4268ZM55.3068 109.604H64.7868V110.228H55.3068V109.604ZM56.2668 111.644V113.684H64.7868V114.308H55.5468V111.644H56.2668ZM69.2052 108.284H72.3372C72.6612 107.024 72.8772 105.752 72.9372 104.78H69.2652V104.156H73.7052C73.6212 105.692 73.4052 107.012 73.0812 108.284H77.2572C77.5812 107.024 77.7972 105.752 77.8572 104.78H74.1852V104.156H78.6252C78.5412 105.692 78.3252 107.012 78.0012 108.284H78.6852V108.908H74.3052V110.564H78.5652V114.308H69.3252V110.564H73.5852V108.908H69.2052V108.284ZM70.0452 113.684H77.8452V111.188H70.0452V113.684ZM80.4215 107.096C80.4215 105.344 81.2975 104.036 83.5415 104.036C85.7855 104.036 86.6615 105.344 86.6615 107.096V111.368C86.6615 113.12 85.7855 114.428 83.5415 114.428C81.2975 114.428 80.4215 113.12 80.4215 111.368V107.096ZM89.0015 114.308V104.156H89.7215V114.308H89.0015ZM83.5415 113.804C85.3175 113.804 85.9415 112.796 85.9415 111.368V107.096C85.9415 105.668 85.3175 104.66 83.5415 104.66C81.7655 104.66 81.1415 105.668 81.1415 107.096V111.368C81.1415 112.796 81.7655 113.804 83.5415 113.804ZM83.5415 110.396C83.4935 109.448 83.1455 109.172 82.3655 109.136C83.1455 109.1 83.4935 108.824 83.5415 107.876C83.5895 108.824 83.9255 109.1 84.7175 109.136C83.9255 109.172 83.5895 109.448 83.5415 110.396ZM94.3199 107.096C94.3199 105.344 95.1959 104.036 97.4399 104.036C99.6839 104.036 100.56 105.344 100.56 107.096V111.368C100.56 113.12 99.6839 114.428 97.4399 114.428C95.1959 114.428 94.3199 113.12 94.3199 111.368V107.096ZM102.9 114.308V104.156H103.62V114.308H102.9ZM97.4399 113.804C99.2159 113.804 99.8399 112.796 99.8399 111.368V107.096C99.8399 105.668 99.2159 104.66 97.4399 104.66C95.6639 104.66 95.0399 105.668 95.0399 107.096V111.368C95.0399 112.796 95.6639 113.804 97.4399 113.804ZM97.4399 110.396C97.3919 109.448 97.0439 109.172 96.2639 109.136C97.0439 109.1 97.3919 108.824 97.4399 107.876C97.4879 108.824 97.8239 109.1 98.6159 109.136C97.8239 109.172 97.4879 109.448 97.4399 110.396ZM105.536 109.112V106.268H114.056V104.78H105.536V104.156H114.776V106.892H106.256V108.488H114.836V109.112H105.536ZM105.416 110.564H114.896V111.188H110.516V114.308H109.796V111.188H105.416V110.564ZM116.632 107.096C116.632 105.344 117.448 104.036 119.692 104.036C121.936 104.036 122.752 105.344 122.752 107.096V108.656H125.212V104.156H125.932V114.308H125.212V109.28H122.752V111.368C122.752 113.12 121.936 114.428 119.692 114.428C117.448 114.428 116.632 113.12 116.632 111.368V107.096ZM119.692 113.804C121.468 113.804 122.032 112.796 122.032 111.368V107.096C122.032 105.668 121.468 104.66 119.692 104.66C117.916 104.66 117.352 105.668 117.352 107.096V111.368C117.352 112.796 117.916 113.804 119.692 113.804ZM119.692 110.396C119.644 109.448 119.296 109.172 118.516 109.136C119.296 109.1 119.644 108.824 119.692 107.876C119.74 108.824 120.076 109.1 120.868 109.136C120.076 109.172 119.74 109.448 119.692 110.396ZM127.789 108.728L130.357 104.78H127.789V104.156H134.389V104.78H131.821L134.389 108.728H133.645L131.089 104.804L128.533 108.728H127.789ZM136.369 109.04V104.156H137.089V109.04H136.369ZM127.969 114.308V111.608H136.369V110.264H127.969V109.64H137.089V112.232H128.689V113.684H137.209V114.308H127.969ZM147.027 114.308H146.283C146.727 110.996 147.039 107.768 147.099 104.78H141.687V104.156H147.867C147.831 105.716 147.747 107.204 147.639 108.656H150.267V104.156H150.987V114.308H150.267V109.28H147.591C147.447 110.984 147.243 112.628 147.027 114.308ZM152.843 106.376C152.843 104.984 153.719 104.036 155.243 104.036C156.767 104.036 157.643 104.984 157.643 106.376V106.856H159.383V104.156H160.103V114.308H159.383V111.308H157.643V112.088C157.643 113.48 156.767 114.428 155.243 114.428C153.719 114.428 152.843 113.48 152.843 112.088V106.376ZM161.423 114.308V104.156H162.143V114.308H161.423ZM155.243 113.804C156.299 113.804 156.923 113.156 156.923 112.088V106.376C156.923 105.308 156.299 104.66 155.243 104.66C154.187 104.66 153.563 105.308 153.563 106.376V112.088C153.563 113.156 154.187 113.804 155.243 113.804ZM157.643 107.48V110.684H159.383V107.48H157.643ZM155.243 110.396C155.195 109.448 154.847 109.172 154.067 109.136C154.847 109.1 155.195 108.824 155.243 107.876C155.291 108.824 155.627 109.1 156.419 109.136C155.627 109.172 155.291 109.448 155.243 110.396ZM163.88 107.072C163.88 105.368 164.948 104.156 166.58 104.156H170.78C172.412 104.156 173.48 105.368 173.48 107.072C173.48 108.632 172.592 109.772 171.2 109.964V113.684H173.42V114.308H163.94V113.684H166.16V109.964C164.768 109.772 163.88 108.632 163.88 107.072ZM164.6 107.072C164.6 108.308 165.272 109.364 166.58 109.364H170.78C172.088 109.364 172.76 108.308 172.76 107.072C172.76 105.836 172.088 104.78 170.78 104.78H166.58C165.272 104.78 164.6 105.836 164.6 107.072ZM168.68 108.332C168.632 107.384 168.284 107.108 167.504 107.072C168.284 107.036 168.632 106.76 168.68 105.812C168.728 106.76 169.064 107.036 169.856 107.072C169.064 107.108 168.728 107.384 168.68 108.332ZM166.88 109.988V113.684H170.48V109.988H166.88ZM175.756 111.284L175.564 104.036H176.38L176.2 111.284H175.756ZM175.972 113C176.296 113 176.608 113.252 176.608 113.648C176.608 114.056 176.296 114.308 175.972 114.308C175.648 114.308 175.336 114.056 175.336 113.648C175.336 113.252 175.648 113 175.972 113Z" fill="#3AE5DB"/>
<rect x="11" y="11" width="198" height="308" rx="15" stroke="url(#paint3_linear_127_1337)" stroke-opacity="0.5" stroke-width="2"/>
<defs>
<filter id="filter0_d_127_1337" x="70.6512" y="29.468" width="79.5288" height="46.4559" filterUnits="userSpaceOnUse" color-interpolation-filters="sRGB">
<feFlood flood-opacity="0" result="BackgroundImageFix"/>
<feColorMatrix in="SourceAlpha" type="matrix" values="0 0 0 0 0 0 0 0 0 0 0 0 0 0 0 0 0 0 127 0" result="hardAlpha"/>
<feOffset/>
<feGaussianBlur stdDeviation="4"/>
<feComposite in2="hardAlpha" operator="out"/>
<feColorMatrix type="matrix" values="0 0 0 0 0.227451 0 0 0 0 0.898039 0 0 0 0 0.858824 0 0 0 0.7 0"/>
<feBlend mode="normal" in2="BackgroundImageFix" result="effect1_dropShadow_127_1337"/>
<feBlend mode="normal" in="SourceGraphic" in2="effect1_dropShadow_127_1337" result="shape"/>
</filter>
<radialGradient id="paint0_radial_127_1337" cx="0" cy="0" r="1" gradientUnits="userSpaceOnUse" gradientTransform="translate(109.776 222.701) rotate(90) scale(78.1752)">
<stop stop-color="#3AE5DB" stop-opacity="0.58"/>
<stop offset="1" stop-color="#3AE5DB" stop-opacity="0"/>
</radialGradient>
<radialGradient id="paint1_radial_127_1337" cx="0" cy="0" r="1" gradientUnits="userSpaceOnUse" gradientTransform="translate(109.776 223.064) rotate(90) scale(47.4866 47.1636)">
<stop stop-color="#3AE5DB" stop-opacity="0.58"/>
<stop offset="1" stop-color="#3AE5DB" stop-opacity="0"/>
</radialGradient>
<radialGradient id="paint2_radial_127_1337" cx="0" cy="0" r="1" gradientUnits="userSpaceOnUse" gradientTransform="translate(109.776 222.701) rotate(90) scale(25.197)">
<stop stop-color="#3AE5DB" stop-opacity="0.58"/>
<stop offset="1" stop-color="#3AE5DB" stop-opacity="0"/>
</radialGradient>
<linearGradient id="paint3_linear_127_1337" x1="15.5" y1="10" x2="210" y2="320" gradientUnits="userSpaceOnUse">
<stop stop-color="#23625E" stop-opacity="0.51"/>
<stop offset="0.307292" stop-color="#3AE5DB"/>
<stop offset="1" stop-color="#ACFFFA" stop-opacity="0.01"/>
</linearGradient>
<clipPath id="clip0_127_1337">
<rect width="30" height="30" fill="white" transform="translate(170 280)"/>
</clipPath>
</defs>
</svg>
