<svg width="220" height="330" viewBox="0 0 220 330" fill="none" xmlns="http://www.w3.org/2000/svg">
<rect width="220" height="330" rx="24" fill="#32363A"/>
<g clip-path="url(#clip0_127_1332)">
<circle cx="185" cy="295" r="14" stroke="#7A7F8D" stroke-width="2"/>
<path fill-rule="evenodd" clip-rule="evenodd" d="M191.707 290.293C192.098 290.683 192.098 291.317 191.707 291.707L184.207 299.207C183.817 299.598 183.183 299.598 182.793 299.207L178.293 294.707C177.902 294.317 177.902 293.683 178.293 293.293C178.683 292.902 179.317 292.902 179.707 293.293L183.5 297.086L190.293 290.293C190.683 289.902 191.317 289.902 191.707 290.293Z" fill="#7A7F8D"/>
</g>
<path fill-rule="evenodd" clip-rule="evenodd" d="M143.467 151.222H75.7151V189.937L37 189.937L37 257.688H75.7151V296.403H143.467V257.688H182.182V189.937L143.467 189.937V151.222Z" fill="url(#paint0_radial_127_1332)"/>
<path fill-rule="evenodd" clip-rule="evenodd" d="M130.134 179.369H88.3075V203.27L64.4067 203.27L64.4067 245.096H88.3075V268.997H130.134V245.096H154.034V203.27L130.134 203.27V179.369Z" fill="url(#paint1_radial_127_1332)"/>
<path fill-rule="evenodd" clip-rule="evenodd" d="M123.764 193.443H95.4185V209.64H79.2212L79.2212 237.985H95.4185V254.182H123.764V237.985H139.96V209.64H123.764V193.443Z" fill="url(#paint2_radial_127_1332)"/>
<g filter="url(#filter0_d_127_1332)">
<path d="M100.511 58.564V49.312H96.9833C96.8033 51.004 96.5873 52.696 96.3712 54.28H88.8113C89.3513 50.896 89.8553 46.648 90.0713 43.156H77.6513V37.468H97.8113C97.7393 39.412 97.6313 41.32 97.5233 43.192H100.511V37.468H107.711V58.564H100.511ZM77.8313 56.152H85.0312V62.344L94.0312 62.308C98.7113 62.272 103.751 61.912 107.891 61.264V67.924H77.8313V56.152ZM129.84 53.164H122.28C122.82 49.996 123.324 46.324 123.54 43.048H111.12V37.468H131.28C131.064 42.976 130.596 48.304 129.84 53.164ZM132.9 53.092V37.468H140.1V41.932H143.34V48.052H140.1V53.092H132.9ZM140.28 61.048C140.28 65.008 138.048 67.924 133.728 67.924H117.672C113.352 67.924 111.12 65.008 111.12 61.048C111.12 57.088 113.352 54.172 117.672 54.172H133.728C138.048 54.172 140.28 57.088 140.28 61.048ZM125.7 54.856C125.592 58.276 123.792 60.94 114.504 61.048C123.792 61.192 125.592 63.856 125.7 67.24C125.772 63.856 127.608 61.192 136.896 61.048C127.608 60.94 125.772 58.276 125.7 54.856Z" fill="#31D84B"/>
</g>
<path d="M56.0836 89.096C56.0836 87.344 56.8996 86.036 59.1436 86.036C61.3876 86.036 62.2036 87.344 62.2036 89.096V93.368C62.2036 95.12 61.3876 96.428 59.1436 96.428C56.8996 96.428 56.0836 95.12 56.0836 93.368V89.096ZM64.1836 96.308V86.156H64.9036V90.416H66.4636V91.04H64.9036V96.308H64.1836ZM59.1436 95.804C60.9196 95.804 61.4836 94.796 61.4836 93.368V89.096C61.4836 87.668 60.9196 86.66 59.1436 86.66C57.3676 86.66 56.8036 87.668 56.8036 89.096V93.368C56.8036 94.796 57.3676 95.804 59.1436 95.804ZM59.1436 92.396C59.0956 91.448 58.7476 91.172 57.9676 91.136C58.7476 91.1 59.0956 90.824 59.1436 89.876C59.1916 90.824 59.5276 91.1 60.3196 91.136C59.5276 91.172 59.1916 91.448 59.1436 92.396ZM67.1798 89.684H73.6358L74.1518 86.78H67.2398V86.156H76.5998V86.78H74.8718L74.3558 89.684H76.6598V90.308H67.1798V89.684ZM69.5798 89.432C69.5318 88.484 69.1838 88.208 68.4038 88.172C69.1838 88.136 69.5318 87.86 69.5798 86.912C69.6278 87.86 69.9638 88.136 70.7558 88.172C69.9638 88.208 69.6278 88.484 69.5798 89.432ZM67.1798 91.844H76.6598V92.468H67.1798V91.844ZM68.1398 93.764V95.684H76.6598V96.308H67.4198V93.764H68.1398ZM89.9943 90.068H89.2503C89.5383 88.808 89.6703 88.076 89.7303 86.78H81.1383V86.156H90.4983C90.4263 88.076 90.2943 88.808 89.9943 90.068ZM81.0783 91.124H84.8583V88.496H85.5783V91.124H90.5583V91.748H81.0783V91.124ZM81.0423 96.308L85.4223 92.324H86.2143L90.5943 96.308H89.6583L85.8183 92.78L81.9783 96.308H81.0423ZM103.617 91.244V88.748H101.157V88.868C101.157 90.26 99.9807 91.268 98.0967 91.268C96.2127 91.268 95.0367 90.26 95.0367 88.868V88.436C95.0367 87.044 96.2127 86.036 98.0967 86.036C99.8367 86.036 100.977 86.9 101.133 88.124H103.617V86.156H104.337V91.244H103.617ZM98.0967 90.644C99.5127 90.644 100.437 89.936 100.437 88.868V88.436C100.437 87.368 99.5127 86.66 98.0967 86.66C96.6807 86.66 95.7567 87.368 95.7567 88.436V88.868C95.7567 89.936 96.6807 90.644 98.0967 90.644ZM98.0967 89.888C98.0487 88.94 97.7007 88.664 96.9207 88.628C97.7007 88.592 98.0487 88.316 98.0967 87.368C98.1447 88.316 98.4807 88.592 99.2727 88.628C98.4807 88.664 98.1447 88.94 98.0967 89.888ZM95.9367 91.844V93.284H99.0567V91.844H99.7767V96.308H95.2167V91.844H95.9367ZM100.101 96.308L102.261 91.844H103.053L105.213 96.308H104.457L102.657 92.408L100.857 96.308H100.101ZM99.0567 95.684V93.908H95.9367V95.684H99.0567ZM106.193 89.096C106.193 87.344 107.069 86.036 109.313 86.036C111.557 86.036 112.433 87.344 112.433 89.096V93.368C112.433 95.12 111.557 96.428 109.313 96.428C107.069 96.428 106.193 95.12 106.193 93.368V89.096ZM114.773 96.308V86.156H115.493V96.308H114.773ZM109.313 95.804C111.089 95.804 111.713 94.796 111.713 93.368V89.096C111.713 87.668 111.089 86.66 109.313 86.66C107.537 86.66 106.913 87.668 106.913 89.096V93.368C106.913 94.796 107.537 95.804 109.313 95.804ZM109.313 92.396C109.265 91.448 108.917 91.172 108.137 91.136C108.917 91.1 109.265 90.824 109.313 89.876C109.361 90.824 109.697 91.1 110.489 91.136C109.697 91.172 109.361 91.448 109.313 92.396ZM120.151 90.548V86.156H129.391V90.548H120.151ZM120.871 89.924H128.671V86.78H120.871V89.924ZM120.031 92.084H129.511V92.708H125.131V96.308H124.411V92.708H120.031V92.084ZM137.416 88.172V88.796H132.028V90.344H134.284C135.604 90.344 136.792 90.26 137.836 90.128V90.752C136.792 90.884 135.604 90.968 134.284 90.968H131.308V86.156H137.416V86.78H132.028V88.172H137.416ZM139.348 91.4V86.156H140.068V88.352H141.628V88.976H140.068V91.4H139.348ZM131.428 96.308V93.788H139.348V92.624H131.428V92H140.068V94.412H132.148V95.684H140.188V96.308H131.428ZM142.224 86.996H145.224V85.796H145.944V86.996H148.944V87.62H142.224V86.996ZM150.504 96.308V86.156H151.224V90.416H152.784V91.04H151.224V96.308H150.504ZM142.524 91.496C142.524 89.744 143.34 88.436 145.584 88.436C147.828 88.436 148.644 89.744 148.644 91.496V93.368C148.644 95.12 147.828 96.428 145.584 96.428C143.34 96.428 142.524 95.12 142.524 93.368V91.496ZM145.584 95.804C147.36 95.804 147.924 94.796 147.924 93.368V91.496C147.924 90.068 147.36 89.06 145.584 89.06C143.808 89.06 143.244 90.068 143.244 91.496V93.368C143.244 94.796 143.808 95.804 145.584 95.804ZM145.584 93.596C145.536 92.648 145.188 92.372 144.408 92.336C145.188 92.3 145.536 92.024 145.584 91.076C145.632 92.024 145.968 92.3 146.76 92.336C145.968 92.372 145.632 92.648 145.584 93.596ZM157.58 96.308H156.836C157.28 92.996 157.592 89.768 157.652 86.78H153.56V86.156H158.42C158.384 87.632 158.312 89.048 158.204 90.416H160.1V86.156H160.82V96.308H160.1V91.04H158.156C158.012 92.828 157.808 94.556 157.58 96.308ZM162.14 96.308V86.156H162.86V96.308H162.14ZM59.7649 104.756H62.7649V103.676H63.4849V104.756H66.4849V105.38H59.7649V104.756ZM68.0449 111.908V104.156H68.7649V107.216H70.3249V107.84H68.7649V111.908H68.0449ZM59.9449 108.272C59.9449 107.048 60.7729 106.136 62.0449 106.136H64.2049C65.4769 106.136 66.3049 107.048 66.3049 108.272C66.3049 109.496 65.4769 110.408 64.2049 110.408H62.0449C60.7729 110.408 59.9449 109.496 59.9449 108.272ZM60.6649 108.272C60.6649 109.028 61.0969 109.784 62.0449 109.784H64.2049C65.1529 109.784 65.5849 109.028 65.5849 108.272C65.5849 107.516 65.1529 106.76 64.2049 106.76H62.0449C61.0969 106.76 60.6649 107.516 60.6649 108.272ZM60.8449 111.524V113.684H68.8849V114.308H60.1249V111.524H60.8449ZM73.6634 104.996H75.9434V103.796H76.6634V104.996H78.9434V105.62H73.6634V104.996ZM80.0234 114.308V104.156H80.7434V108.656H82.4234V104.156H83.1434V114.308H82.4234V109.28H80.7434V114.308H80.0234ZM73.8434 108.896C73.8434 107.504 74.6594 106.436 76.3034 106.436C77.9474 106.436 78.7634 107.504 78.7634 108.896V111.968C78.7634 113.36 77.9474 114.428 76.3034 114.428C74.6594 114.428 73.8434 113.36 73.8434 111.968V108.896ZM76.3034 113.804C77.4794 113.804 78.0434 113.036 78.0434 111.968V108.896C78.0434 107.828 77.4794 107.06 76.3034 107.06C75.1274 107.06 74.5634 107.828 74.5634 108.896V111.968C74.5634 113.036 75.1274 113.804 76.3034 113.804ZM76.3034 111.596C76.2554 110.648 75.9074 110.372 75.1274 110.336C75.9074 110.3 76.2554 110.024 76.3034 109.076C76.3514 110.024 76.6874 110.3 77.4794 110.336C76.6874 110.372 76.3514 110.648 76.3034 111.596ZM85.0596 107.912V105.668H93.5796V104.78H85.0596V104.156H94.2996V106.292H85.7796V107.288H94.3596V107.912H85.0596ZM84.9396 108.884H94.4196V109.508H84.9396V108.884ZM85.0596 114.308V112.064H93.5796V111.176H85.0596V110.552H94.2996V112.688H85.7796V113.684H94.4196V114.308H85.0596ZM107.478 109.604V104.156H108.198V110.228H103.938V113.684H108.318V114.308H98.838V113.684H103.218V110.228H98.958V104.156H99.678V109.604H107.478ZM103.578 108.116C103.53 107.168 103.182 106.892 102.402 106.856C103.182 106.82 103.53 106.544 103.578 105.596C103.626 106.544 103.962 106.82 104.754 106.856C103.962 106.892 103.626 107.168 103.578 108.116ZM118.634 109.04V106.724H116.774V109.04H116.054V104.156H116.774V106.1H118.634V104.156H119.354V109.04H118.634ZM110.114 104.156H110.834V107.744H111.59C112.91 107.744 114.098 107.66 115.142 107.528V108.152C114.098 108.284 112.91 108.368 111.59 108.368H110.114V104.156ZM110.234 114.308V111.608H118.634V110.264H110.234V109.64H119.354V112.232H110.954V113.684H119.474V114.308H110.234ZM129.293 114.308H128.549C128.993 110.996 129.305 107.768 129.365 104.78H123.953V104.156H130.133C130.097 105.716 130.013 107.204 129.905 108.656H132.533V104.156H133.253V114.308H132.533V109.28H129.857C129.713 110.984 129.509 112.628 129.293 114.308ZM135.109 106.376C135.109 104.984 135.985 104.036 137.509 104.036C139.033 104.036 139.909 104.984 139.909 106.376V106.856H141.649V104.156H142.369V114.308H141.649V111.308H139.909V112.088C139.909 113.48 139.033 114.428 137.509 114.428C135.985 114.428 135.109 113.48 135.109 112.088V106.376ZM143.689 114.308V104.156H144.409V114.308H143.689ZM137.509 113.804C138.565 113.804 139.189 113.156 139.189 112.088V106.376C139.189 105.308 138.565 104.66 137.509 104.66C136.453 104.66 135.829 105.308 135.829 106.376V112.088C135.829 113.156 136.453 113.804 137.509 113.804ZM139.909 107.48V110.684H141.649V107.48H139.909ZM137.509 110.396C137.461 109.448 137.113 109.172 136.333 109.136C137.113 109.1 137.461 108.824 137.509 107.876C137.557 108.824 137.893 109.1 138.685 109.136C137.893 109.172 137.557 109.448 137.509 110.396ZM146.145 107.072C146.145 105.368 147.213 104.156 148.845 104.156H153.045C154.677 104.156 155.745 105.368 155.745 107.072C155.745 108.632 154.857 109.772 153.465 109.964V113.684H155.685V114.308H146.205V113.684H148.425V109.964C147.033 109.772 146.145 108.632 146.145 107.072ZM146.865 107.072C146.865 108.308 147.537 109.364 148.845 109.364H153.045C154.353 109.364 155.025 108.308 155.025 107.072C155.025 105.836 154.353 104.78 153.045 104.78H148.845C147.537 104.78 146.865 105.836 146.865 107.072ZM150.945 108.332C150.897 107.384 150.549 107.108 149.769 107.072C150.549 107.036 150.897 106.76 150.945 105.812C150.993 106.76 151.329 107.036 152.121 107.072C151.329 107.108 150.993 107.384 150.945 108.332ZM149.145 109.988V113.684H152.745V109.988H149.145ZM158.021 111.284L157.829 104.036H158.645L158.465 111.284H158.021ZM158.237 113C158.561 113 158.873 113.252 158.873 113.648C158.873 114.056 158.561 114.308 158.237 114.308C157.913 114.308 157.601 114.056 157.601 113.648C157.601 113.252 157.913 113 158.237 113Z" fill="#31D84B"/>
<rect x="11" y="11" width="198" height="308" rx="15" stroke="url(#paint3_linear_127_1332)" stroke-opacity="0.5" stroke-width="2"/>
<defs>
<filter id="filter0_d_127_1332" x="69.6514" y="29.468" width="81.6887" height="46.4559" filterUnits="userSpaceOnUse" color-interpolation-filters="sRGB">
<feFlood flood-opacity="0" result="BackgroundImageFix"/>
<feColorMatrix in="SourceAlpha" type="matrix" values="0 0 0 0 0 0 0 0 0 0 0 0 0 0 0 0 0 0 127 0" result="hardAlpha"/>
<feOffset/>
<feGaussianBlur stdDeviation="4"/>
<feComposite in2="hardAlpha" operator="out"/>
<feColorMatrix type="matrix" values="0 0 0 0 0.192157 0 0 0 0 0.847059 0 0 0 0 0.294118 0 0 0 0.7 0"/>
<feBlend mode="normal" in2="BackgroundImageFix" result="effect1_dropShadow_127_1332"/>
<feBlend mode="normal" in="SourceGraphic" in2="effect1_dropShadow_127_1332" result="shape"/>
</filter>
<radialGradient id="paint0_radial_127_1332" cx="0" cy="0" r="1" gradientUnits="userSpaceOnUse" gradientTransform="translate(109.591 223.813) rotate(90) scale(72.5908)">
<stop stop-color="#3FD957" stop-opacity="0.63"/>
<stop offset="1" stop-color="#3FD957" stop-opacity="0"/>
</radialGradient>
<radialGradient id="paint1_radial_127_1332" cx="0" cy="0" r="1" gradientUnits="userSpaceOnUse" gradientTransform="translate(109.22 224.183) rotate(90) scale(44.8137)">
<stop stop-color="#3FD957" stop-opacity="0.63"/>
<stop offset="1" stop-color="#3FD957" stop-opacity="0"/>
</radialGradient>
<radialGradient id="paint2_radial_127_1332" cx="0" cy="0" r="1" gradientUnits="userSpaceOnUse" gradientTransform="translate(109.591 223.813) rotate(90) scale(30.3696)">
<stop stop-color="#3FD957" stop-opacity="0.63"/>
<stop offset="1" stop-color="#3FD957" stop-opacity="0"/>
</radialGradient>
<linearGradient id="paint3_linear_127_1332" x1="15.5" y1="10" x2="210" y2="320" gradientUnits="userSpaceOnUse">
<stop stop-color="#264B2C" stop-opacity="0.51"/>
<stop offset="0.307292" stop-color="#3FCE56"/>
<stop offset="1" stop-color="#E8FFEB" stop-opacity="0.03"/>
</linearGradient>
<clipPath id="clip0_127_1332">
<rect width="30" height="30" fill="white" transform="translate(170 280)"/>
</clipPath>
</defs>
</svg>
