<svg width="220" height="330" viewBox="0 0 220 330" fill="none" xmlns="http://www.w3.org/2000/svg">
<rect width="220" height="330" rx="24" fill="#32363A"/>

<path fill-rule="evenodd" clip-rule="evenodd" d="M109.513 176.525C117.308 167.379 129.251 161.592 141.694 161.592C163.721 161.592 181.027 178.882 181.027 200.888C181.027 227.874 156.752 249.866 119.974 283.186L119.883 283.269L109.513 292.7L99.144 283.34L98.8617 283.084C62.1904 249.79 38 227.827 38 200.888C38 178.882 55.3062 161.592 77.3324 161.592C89.7757 161.592 101.718 167.379 109.513 176.525Z" fill="url(#paint0_radial_127_1331)"/>
<path fill-rule="evenodd" clip-rule="evenodd" d="M109.379 196.544C114.091 191.016 121.311 187.517 128.833 187.517C142.148 187.517 152.61 197.97 152.61 211.273C152.61 227.586 137.935 240.881 115.702 261.023L115.647 261.073L109.379 266.774L103.11 261.116L102.94 260.961C80.771 240.834 66.1475 227.558 66.1475 211.273C66.1475 197.97 76.6094 187.517 89.9247 187.517C97.4469 187.517 104.667 191.016 109.379 196.544Z" fill="url(#paint1_radial_127_1331)"/>
<path fill-rule="evenodd" clip-rule="evenodd" d="M109.783 209.212C112.601 205.906 116.92 203.813 121.419 203.813C129.383 203.813 135.641 210.065 135.641 218.022C135.641 227.779 126.863 235.731 113.565 247.779L113.532 247.809L109.783 251.219L106.033 247.835L105.931 247.742C92.6716 235.704 83.9248 227.762 83.9248 218.022C83.9248 210.065 90.1824 203.813 98.1467 203.813C102.646 203.813 106.964 205.906 109.783 209.212Z" fill="url(#paint2_radial_127_1331)"/>
<g filter="url(#filter0_d_127_1331)">
<path d="M77.8313 61.804V43.588C77.8313 38.908 80.3513 37.108 85.0312 37.108C89.7113 37.108 92.2313 38.908 92.2313 43.588V61.804C92.2313 66.484 89.7113 68.284 85.0312 68.284C80.3513 68.284 77.8313 66.484 77.8313 61.804ZM93.6353 67.924V37.468H99.8993V49.312H101.447V37.468H107.711V67.924H101.447V55.432H99.8993V67.924H93.6353ZM85.0312 39.052C84.9233 49.024 82.6913 52.552 78.5873 52.732C82.6913 52.912 84.9233 56.404 85.0312 66.34C85.1393 56.404 87.3713 52.876 91.4753 52.696C87.3713 52.516 85.1393 49.024 85.0312 39.052ZM130.344 48.448V43.048H127.824L130.92 53.092H123.54L121.02 43.012L118.5 53.092H111.12L114.216 43.048H111.12V37.468H130.92V42.328H133.98V37.468H141.18V53.092H133.98V48.448H130.344ZM141.36 61.048C141.36 65.008 139.128 67.924 134.808 67.924H117.672C113.352 67.924 111.12 65.008 111.12 61.048C111.12 57.088 113.352 54.172 117.672 54.172H134.808C139.128 54.172 141.36 57.088 141.36 61.048ZM126.24 54.856C126.132 58.276 123.792 60.94 114.504 61.048C123.792 61.192 126.132 63.856 126.24 67.24C126.348 63.856 128.652 61.192 137.976 61.048C128.652 60.94 126.348 58.276 126.24 54.856Z" fill="#FF5569"/>
</g>
<path d="M69.5928 96.308H63.5928V86.156H69.5928V96.308ZM71.6328 96.308V86.156H72.3528V90.416H73.9128V91.04H72.3528V96.308H71.6328ZM64.3128 86.78V95.684H68.8728V86.78H64.3128ZM74.5691 87.872C74.5691 86.768 75.2771 86.156 76.4291 86.156H82.3091C83.4611 86.156 84.1691 86.768 84.1691 87.872C84.1691 88.976 83.4611 89.588 82.3091 89.588H76.4291C75.2771 89.588 74.5691 88.976 74.5691 87.872ZM75.2891 87.872C75.2891 88.508 75.6011 88.964 76.4291 88.964H82.3091C83.1371 88.964 83.4491 88.508 83.4491 87.872C83.4491 87.236 83.1371 86.78 82.3091 86.78H76.4291C75.6011 86.78 75.2891 87.236 75.2891 87.872ZM74.6291 90.884H84.1091V91.508H74.6291V90.884ZM74.7491 96.308V92.924H83.9891V96.308H74.7491ZM75.4691 95.684H83.2691V93.548H75.4691V95.684ZM85.8453 89.096C85.8453 87.344 86.7213 86.036 88.9653 86.036C91.2093 86.036 92.0853 87.344 92.0853 89.096V93.368C92.0853 95.12 91.2093 96.428 88.9653 96.428C86.7213 96.428 85.8453 95.12 85.8453 93.368V89.096ZM94.4253 96.308V86.156H95.1453V96.308H94.4253ZM88.9653 95.804C90.7413 95.804 91.3653 94.796 91.3653 93.368V89.096C91.3653 87.668 90.7413 86.66 88.9653 86.66C87.1893 86.66 86.5653 87.668 86.5653 89.096V93.368C86.5653 94.796 87.1893 95.804 88.9653 95.804ZM88.9653 92.396C88.9173 91.448 88.5693 91.172 87.7893 91.136C88.5693 91.1 88.9173 90.824 88.9653 89.876C89.0133 90.824 89.3493 91.1 90.1413 91.136C89.3493 91.172 89.0133 91.448 88.9653 92.396ZM99.7438 89.096C99.7438 87.344 100.62 86.036 102.864 86.036C105.108 86.036 105.984 87.344 105.984 89.096V93.368C105.984 95.12 105.108 96.428 102.864 96.428C100.62 96.428 99.7438 95.12 99.7438 93.368V89.096ZM108.324 96.308V86.156H109.044V96.308H108.324ZM102.864 95.804C104.64 95.804 105.264 94.796 105.264 93.368V89.096C105.264 87.668 104.64 86.66 102.864 86.66C101.088 86.66 100.464 87.668 100.464 89.096V93.368C100.464 94.796 101.088 95.804 102.864 95.804ZM102.864 92.396C102.816 91.448 102.468 91.172 101.688 91.136C102.468 91.1 102.816 90.824 102.864 89.876C102.912 90.824 103.248 91.1 104.04 91.136C103.248 91.172 102.912 91.448 102.864 92.396ZM119.54 92.948H118.796C119.18 90.836 119.432 88.568 119.492 86.78H115.82V86.156H120.26C120.176 88.568 119.924 90.836 119.54 92.948ZM114.56 92.948H113.816C114.2 90.836 114.452 88.568 114.512 86.78H110.9V86.156H115.28C115.196 88.568 114.944 90.836 114.56 92.948ZM110.84 95.684H120.32V96.308H110.84V95.684ZM122.836 86.156V89.324H131.416V89.948H122.116V86.156H122.836ZM121.996 91.544H131.476V92.168H121.996V91.544ZM122.956 93.644V95.684H131.476V96.308H122.236V93.644H122.956ZM142.075 96.308V86.156H142.795V90.416H144.535V86.156H145.255V96.308H144.535V91.04H142.795V96.308H142.075ZM136.015 86.156H140.803V86.78H136.735V95.684H138.271C139.231 95.684 140.191 95.648 141.103 95.48V96.104C140.191 96.272 139.231 96.308 138.271 96.308H136.015V86.156ZM147.171 92.672V89.048H155.691V86.78H147.171V86.156H156.411V89.672H147.891V92.048H156.471V92.672H152.151V95.684H156.531V96.308H147.051V95.684H151.431V92.672H147.171ZM40.6032 104.768H36.9312L40.5792 107.432H39.6192L35.8632 104.78L32.1072 107.432H31.1472L34.7952 104.768H31.1232V104.156H40.6032V104.768ZM31.1232 108.224H35.5032V106.484H36.2232V108.224H40.6032V108.848H31.1232V108.224ZM40.6632 110.78H31.0632V110.156H35.4792V109.148H36.2472V110.156H40.6632V110.78ZM31.1832 112.892C31.1832 111.908 31.8912 111.476 32.9232 111.476H38.8032C39.8352 111.476 40.5432 111.908 40.5432 112.892C40.5432 113.876 39.8352 114.308 38.8032 114.308H32.9232C31.8912 114.308 31.1832 113.876 31.1832 112.892ZM32.9232 113.684H38.8032C39.3912 113.684 39.8232 113.504 39.8232 112.892C39.8232 112.28 39.3912 112.1 38.8032 112.1H32.9232C32.3352 112.1 31.9032 112.28 31.9032 112.892C31.9032 113.504 32.3352 113.684 32.9232 113.684ZM42.2195 106.112C42.2195 104.888 43.0475 104.156 44.1995 104.156H49.8395C50.9915 104.156 51.8195 104.888 51.8195 106.112C51.8195 107.336 50.9915 108.068 49.8395 108.068H44.1995C43.0475 108.068 42.2195 107.336 42.2195 106.112ZM42.9395 106.112C42.9395 106.868 43.3715 107.444 44.1995 107.444H49.8395C50.6675 107.444 51.0995 106.868 51.0995 106.112C51.0995 105.356 50.6675 104.78 49.8395 104.78H44.1995C43.3715 104.78 42.9395 105.356 42.9395 106.112ZM42.2795 109.604H51.7595V110.228H42.2795V109.604ZM43.2395 111.644V113.684H51.7595V114.308H42.5195V111.644H43.2395ZM56.2379 106.616C56.2379 105.104 57.4739 104.036 59.3579 104.036C61.2419 104.036 62.4779 105.104 62.4779 106.616V107.288C62.4779 108.68 61.2419 109.868 59.3579 109.868C57.4739 109.868 56.2379 108.68 56.2379 107.288V106.616ZM64.8179 111.548V104.156H65.5379V111.548H64.8179ZM59.3579 109.244C60.7739 109.244 61.7579 108.356 61.7579 107.288V106.616C61.7579 105.428 60.7739 104.66 59.3579 104.66C57.9419 104.66 56.9579 105.428 56.9579 106.616V107.288C56.9579 108.356 57.9419 109.244 59.3579 109.244ZM59.3579 108.236C59.3099 107.288 58.9619 107.012 58.1819 106.976C58.9619 106.94 59.3099 106.664 59.3579 105.716C59.4059 106.664 59.7419 106.94 60.5339 106.976C59.7419 107.012 59.4059 107.288 59.3579 108.236ZM57.1379 110.924V113.684H65.6579V114.308H56.4179V110.924H57.1379ZM75.9741 111.548V108.524H73.1661C72.6861 109.316 71.7381 109.868 70.4541 109.868C68.5701 109.868 67.3941 108.68 67.3941 107.288V106.616C67.3941 105.104 68.5701 104.036 70.4541 104.036C71.6901 104.036 72.6261 104.504 73.1181 105.248H75.9741V104.156H76.6941V111.548H75.9741ZM70.4541 109.244C71.8701 109.244 72.7941 108.356 72.7941 107.288V106.616C72.7941 105.428 71.8701 104.66 70.4541 104.66C69.0381 104.66 68.1141 105.428 68.1141 106.616V107.288C68.1141 108.356 69.0381 109.244 70.4541 109.244ZM70.4541 108.236C70.4061 107.288 70.0581 107.012 69.2781 106.976C70.0581 106.94 70.4061 106.664 70.4541 105.716C70.5021 106.664 70.8381 106.94 71.6301 106.976C70.8381 107.012 70.5021 107.288 70.4541 108.236ZM73.5141 107.288C73.5141 107.504 73.4901 107.708 73.4301 107.9H75.9741V105.872H73.4061C73.4661 106.112 73.5141 106.352 73.5141 106.616V107.288ZM68.2941 110.924V113.684H76.8141V114.308H67.5741V110.924H68.2941ZM78.5504 107.096C78.5504 105.344 79.4264 104.036 81.6704 104.036C83.9144 104.036 84.7904 105.344 84.7904 107.096V111.368C84.7904 113.12 83.9144 114.428 81.6704 114.428C79.4264 114.428 78.5504 113.12 78.5504 111.368V107.096ZM87.1304 114.308V104.156H87.8504V114.308H87.1304ZM81.6704 113.804C83.4464 113.804 84.0704 112.796 84.0704 111.368V107.096C84.0704 105.668 83.4464 104.66 81.6704 104.66C79.8944 104.66 79.2704 105.668 79.2704 107.096V111.368C79.2704 112.796 79.8944 113.804 81.6704 113.804ZM81.6704 110.396C81.6224 109.448 81.2744 109.172 80.4944 109.136C81.2744 109.1 81.6224 108.824 81.6704 107.876C81.7184 108.824 82.0544 109.1 82.8464 109.136C82.0544 109.172 81.7184 109.448 81.6704 110.396ZM96.4688 114.308H95.7248C96.1688 110.996 96.4808 107.768 96.5408 104.78H92.4488V104.156H97.3088C97.2848 105.08 97.2488 105.98 97.2008 106.856H98.9888V104.156H99.7088V114.308H98.9888V111.308H96.8288C96.7208 112.316 96.6008 113.3 96.4688 114.308ZM101.029 114.308V104.156H101.749V114.308H101.029ZM97.1648 107.48C97.0928 108.572 97.0088 109.628 96.9008 110.684H98.9888V107.48H97.1648ZM103.569 108.068L107.889 104.156H108.681L113.001 108.068H112.089L108.285 104.696L104.481 108.068H103.569ZM103.545 109.244H107.925V107.036H108.645V109.244H113.025V109.868H103.545V109.244ZM112.185 114.308V111.908H103.665V111.284H112.905V114.308H112.185ZM117.504 107.096C117.504 105.344 118.38 104.036 120.624 104.036C122.868 104.036 123.744 105.344 123.744 107.096V111.368C123.744 113.12 122.868 114.428 120.624 114.428C118.38 114.428 117.504 113.12 117.504 111.368V107.096ZM126.084 114.308V104.156H126.804V114.308H126.084ZM120.624 113.804C122.4 113.804 123.024 112.796 123.024 111.368V107.096C123.024 105.668 122.4 104.66 120.624 104.66C118.848 104.66 118.224 105.668 118.224 107.096V111.368C118.224 112.796 118.848 113.804 120.624 113.804ZM120.624 110.396C120.576 109.448 120.228 109.172 119.448 109.136C120.228 109.1 120.576 108.824 120.624 107.876C120.672 108.824 121.008 109.1 121.8 109.136C121.008 109.172 120.672 109.448 120.624 110.396ZM128.66 107.096C128.66 105.344 129.476 104.036 131.72 104.036C133.964 104.036 134.78 105.344 134.78 107.096V108.656H137.24V104.156H137.96V114.308H137.24V109.28H134.78V111.368C134.78 113.12 133.964 114.428 131.72 114.428C129.476 114.428 128.66 113.12 128.66 111.368V107.096ZM131.72 113.804C133.496 113.804 134.06 112.796 134.06 111.368V107.096C134.06 105.668 133.496 104.66 131.72 104.66C129.944 104.66 129.38 105.668 129.38 107.096V111.368C129.38 112.796 129.944 113.804 131.72 113.804ZM131.72 110.396C131.672 109.448 131.324 109.172 130.544 109.136C131.324 109.1 131.672 108.824 131.72 107.876C131.768 108.824 132.104 109.1 132.896 109.136C132.104 109.172 131.768 109.448 131.72 110.396ZM139.816 108.728L142.384 104.78H139.816V104.156H146.416V104.78H143.848L146.416 108.728H145.672L143.116 104.804L140.56 108.728H139.816ZM148.396 109.04V104.156H149.116V109.04H148.396ZM139.996 114.308V111.608H148.396V110.264H139.996V109.64H149.116V112.232H140.716V113.684H149.236V114.308H139.996ZM159.054 114.308H158.31C158.754 110.996 159.066 107.768 159.126 104.78H153.714V104.156H159.894C159.858 105.716 159.774 107.204 159.666 108.656H162.294V104.156H163.014V114.308H162.294V109.28H159.618C159.474 110.984 159.27 112.628 159.054 114.308ZM164.871 106.376C164.871 104.984 165.747 104.036 167.271 104.036C168.795 104.036 169.671 104.984 169.671 106.376V106.856H171.411V104.156H172.131V114.308H171.411V111.308H169.671V112.088C169.671 113.48 168.795 114.428 167.271 114.428C165.747 114.428 164.871 113.48 164.871 112.088V106.376ZM173.451 114.308V104.156H174.171V114.308H173.451ZM167.271 113.804C168.327 113.804 168.951 113.156 168.951 112.088V106.376C168.951 105.308 168.327 104.66 167.271 104.66C166.215 104.66 165.591 105.308 165.591 106.376V112.088C165.591 113.156 166.215 113.804 167.271 113.804ZM169.671 107.48V110.684H171.411V107.48H169.671ZM167.271 110.396C167.223 109.448 166.875 109.172 166.095 109.136C166.875 109.1 167.223 108.824 167.271 107.876C167.319 108.824 167.655 109.1 168.447 109.136C167.655 109.172 167.319 109.448 167.271 110.396ZM175.907 107.072C175.907 105.368 176.975 104.156 178.607 104.156H182.807C184.439 104.156 185.507 105.368 185.507 107.072C185.507 108.632 184.619 109.772 183.227 109.964V113.684H185.447V114.308H175.967V113.684H178.187V109.964C176.795 109.772 175.907 108.632 175.907 107.072ZM176.627 107.072C176.627 108.308 177.299 109.364 178.607 109.364H182.807C184.115 109.364 184.787 108.308 184.787 107.072C184.787 105.836 184.115 104.78 182.807 104.78H178.607C177.299 104.78 176.627 105.836 176.627 107.072ZM180.707 108.332C180.659 107.384 180.311 107.108 179.531 107.072C180.311 107.036 180.659 106.76 180.707 105.812C180.755 106.76 181.091 107.036 181.883 107.072C181.091 107.108 180.755 107.384 180.707 108.332ZM178.907 109.988V113.684H182.507V109.988H178.907ZM187.783 111.284L187.591 104.036H188.407L188.227 111.284H187.783ZM187.999 113C188.323 113 188.635 113.252 188.635 113.648C188.635 114.056 188.323 114.308 187.999 114.308C187.675 114.308 187.363 114.056 187.363 113.648C187.363 113.252 187.675 113 187.999 113Z" fill="#FF5569"/>
<rect x="11" y="11" width="198" height="308" rx="15" stroke="url(#paint3_linear_127_1331)" stroke-opacity="0.5" stroke-width="2"/>
<defs>
<filter id="filter0_d_127_1331" x="69.8313" y="29.108" width="79.5288" height="47.176" filterUnits="userSpaceOnUse" color-interpolation-filters="sRGB">
<feFlood flood-opacity="0" result="BackgroundImageFix"/>
<feColorMatrix in="SourceAlpha" type="matrix" values="0 0 0 0 0 0 0 0 0 0 0 0 0 0 0 0 0 0 127 0" result="hardAlpha"/>
<feOffset/>
<feGaussianBlur stdDeviation="4"/>
<feComposite in2="hardAlpha" operator="out"/>
<feColorMatrix type="matrix" values="0 0 0 0 1 0 0 0 0 0.333333 0 0 0 0 0.411765 0 0 0 0.7 0"/>
<feBlend mode="normal" in2="BackgroundImageFix" result="effect1_dropShadow_127_1331"/>
<feBlend mode="normal" in="SourceGraphic" in2="effect1_dropShadow_127_1331" result="shape"/>
</filter>
<radialGradient id="paint0_radial_127_1331" cx="0" cy="0" r="1" gradientUnits="userSpaceOnUse" gradientTransform="translate(109.513 215.723) rotate(90) scale(76.9763 83.9741)">
<stop stop-color="#FF5C46" stop-opacity="0.7"/>
<stop offset="1" stop-color="#FF5C46" stop-opacity="0"/>
</radialGradient>
<radialGradient id="paint1_radial_127_1331" cx="0" cy="0" r="1" gradientUnits="userSpaceOnUse" gradientTransform="translate(109.379 220.241) rotate(90) scale(46.5337 50.764)">
<stop stop-color="#FF5C46" stop-opacity="0.7"/>
<stop offset="1" stop-color="#FF5C46" stop-opacity="0"/>
</radialGradient>
<radialGradient id="paint2_radial_127_1331" cx="0" cy="0" r="1" gradientUnits="userSpaceOnUse" gradientTransform="translate(109.783 223.386) rotate(90) scale(27.8332 30.3635)">
<stop stop-color="#FF5C46" stop-opacity="0.7"/>
<stop offset="1" stop-color="#FF5C46" stop-opacity="0"/>
</radialGradient>
<linearGradient id="paint3_linear_127_1331" x1="15.5" y1="10" x2="210" y2="320" gradientUnits="userSpaceOnUse">
<stop stop-color="#6B2319" stop-opacity="0.51"/>
<stop offset="0.307292" stop-color="#FF5D48" stop-opacity="0.62"/>
<stop offset="1" stop-color="#FF9E91" stop-opacity="0.13"/>
</linearGradient>
<clipPath id="clip0_127_1331">
<rect width="30" height="30" fill="white" transform="translate(170 280)"/>
</clipPath>
</defs>
</svg>
