<svg width="220" height="330" viewBox="0 0 220 330" fill="none" xmlns="http://www.w3.org/2000/svg">
<rect width="220" height="330" rx="24" fill="#32363A"/>

<path fill-rule="evenodd" clip-rule="evenodd" d="M166.222 185.497C161.917 181.192 155.782 179.062 149.921 179.529C150.388 173.668 148.259 167.533 143.953 163.228C136.332 155.607 124.362 155.602 116.748 163.216C112.949 167.015 110.827 171.918 109.724 178.033C108.624 171.919 106.501 167.015 102.702 163.216C95.088 155.602 83.1177 155.607 75.4968 163.228C71.1915 167.534 69.0618 173.668 69.529 179.529C63.6678 179.062 57.5333 181.192 53.228 185.497C45.6071 193.118 45.6016 205.088 53.2156 212.702C57.0134 216.5 61.9151 218.622 68.0281 219.725C61.9151 220.828 57.0134 222.95 53.2156 226.748C45.6016 234.362 45.607 246.332 53.2279 253.953C57.5332 258.258 63.6677 260.388 69.529 259.921C69.0617 265.782 71.1915 271.917 75.4968 276.222C83.1177 283.843 95.088 283.848 102.702 276.234C106.501 272.435 108.624 267.531 109.724 261.417C110.827 267.532 112.949 272.436 116.748 276.234C124.362 283.848 136.332 283.843 143.953 276.222C148.259 271.917 150.388 265.782 149.921 259.921C155.782 260.388 161.917 258.259 166.222 253.953C173.843 246.332 173.848 234.362 166.234 226.748C162.435 222.948 157.53 220.826 151.414 219.725C157.53 218.625 162.435 216.502 166.234 212.702C173.848 205.088 173.843 193.118 166.222 185.497ZM109.726 219.725L109.725 219.725L109.725 219.722L109.725 219.725L109.725 219.725L109.725 219.728L109.725 219.725L109.726 219.725Z" fill="url(#paint0_radial_127_1336)"/>
<path fill-rule="evenodd" clip-rule="evenodd" d="M145.481 197.704C142.729 194.952 138.808 193.591 135.061 193.89C135.36 190.143 133.998 186.222 131.247 183.47C126.375 178.599 118.724 178.595 113.857 183.462C111.429 185.89 110.072 189.025 109.368 192.933C108.664 189.025 107.307 185.891 104.879 183.462C100.012 178.596 92.361 178.599 87.4897 183.47C84.7378 186.222 83.3765 190.143 83.6752 193.89C79.9287 193.591 76.0076 194.952 73.2556 197.704C68.3844 202.576 68.3809 210.227 73.2477 215.094C75.6753 217.521 78.8083 218.878 82.7157 219.583C78.8083 220.287 75.6753 221.644 73.2477 224.072C68.3809 228.938 68.3844 236.59 73.2556 241.461C76.0076 244.213 79.9287 245.574 83.6752 245.275C83.3765 249.022 84.7378 252.943 87.4897 255.695C92.361 260.566 100.012 260.57 104.879 255.703C107.307 253.274 108.664 250.14 109.368 246.232C110.072 250.141 111.429 253.275 113.857 255.703C118.724 260.57 126.375 260.566 131.247 255.695C133.998 252.943 135.36 249.022 135.061 245.276C138.808 245.574 142.729 244.213 145.481 241.461C150.352 236.59 150.355 228.939 145.489 224.072C143.06 221.643 139.924 220.286 136.015 219.583C139.924 218.879 143.06 217.522 145.489 215.094C150.355 210.227 150.352 202.576 145.481 197.704ZM109.37 219.583L109.368 219.583L109.368 219.581L109.368 219.583L109.368 219.583L109.368 219.584L109.368 219.583L109.37 219.583Z" fill="url(#paint1_radial_127_1336)"/>
<path fill-rule="evenodd" clip-rule="evenodd" d="M130.125 206.793C128.543 205.211 126.29 204.428 124.136 204.6C124.308 202.447 123.525 200.193 121.944 198.611C119.144 195.811 114.746 195.809 111.948 198.607C110.553 200.002 109.773 201.804 109.368 204.05C108.964 201.804 108.184 200.002 106.788 198.607C103.991 195.809 99.5927 195.811 96.7927 198.611C95.211 200.193 94.4285 202.447 94.6002 204.6C92.4467 204.428 90.1929 205.211 88.6111 206.793C85.8112 209.593 85.8092 213.991 88.6066 216.788C90.0019 218.183 91.8027 218.963 94.0485 219.368C91.8027 219.773 90.0019 220.553 88.6066 221.948C85.8092 224.746 85.8112 229.144 88.6111 231.943C90.1929 233.525 92.4467 234.308 94.6001 234.136C94.4285 236.289 95.2109 238.543 96.7927 240.125C99.5927 242.925 103.991 242.927 106.788 240.13C108.184 238.734 108.963 236.932 109.368 234.686C109.773 236.933 110.553 238.734 111.948 240.13C114.746 242.927 119.144 242.925 121.944 240.125C123.525 238.543 124.308 236.29 124.136 234.136C126.29 234.308 128.543 233.525 130.125 231.944C132.925 229.144 132.927 224.746 130.13 221.948C128.734 220.552 126.932 219.772 124.685 219.368C126.932 218.964 128.734 218.184 130.13 216.788C132.927 213.991 132.925 209.593 130.125 206.793ZM109.369 219.368L109.368 219.368V219.368L109.369 219.368Z" fill="url(#paint2_radial_127_1336)"/>
<g filter="url(#filter0_d_127_1336)">
<path d="M77.8313 57.484V51.904H89.9273C90.6473 49.168 90.7913 45.928 90.7913 43.048H77.8313V37.468H98.5312C98.4953 42.688 98.4233 47.692 97.4873 51.904H99.0713V57.484H92.0513V67.924H84.4913V57.484H77.8313ZM100.511 67.924V37.468H107.711V67.924H100.511ZM111.12 46.864V45.208C111.12 40.168 114.9 37.108 121.38 37.108C127.86 37.108 131.64 40.168 131.64 45.208V46.864C131.64 51.904 127.86 54.964 121.38 54.964C114.9 54.964 111.12 51.904 111.12 46.864ZM133.98 58.564V37.468H141.18V58.564H133.98ZM121.38 39.016C121.2 43.876 117.996 45.964 113.856 46.072C118.104 46.18 121.38 48.34 121.38 53.452C121.38 48.34 124.62 46.144 128.904 46.036C124.728 45.928 121.524 43.876 121.38 39.016ZM111.3 56.152H118.5V62.344L127.5 62.308C132.18 62.272 137.22 61.912 141.36 61.264V67.924H111.3V56.152Z" fill="#BFE373"/>
</g>
<path d="M48.6473 86.156L51.4073 90.728H50.6393L48.1673 86.636L45.6953 90.728H44.9273L47.6873 86.156H48.6473ZM53.0273 91.04V86.156H53.7473V88.112H55.3073V88.736H53.7473V91.04H53.0273ZM45.1073 96.308V93.608H53.0273V92.264H45.1073V91.64H53.7473V94.232H45.8273V95.684H53.8673V96.308H45.1073ZM62.1436 91.388H56.1436V86.156H62.1436V87.248H64.6636V86.156H65.3836V93.548H64.6636V90.284H62.1436V91.388ZM56.8636 86.78V90.764H61.4236V86.78H56.8636ZM62.1436 87.872V89.66H64.6636V87.872H62.1436ZM56.9836 92.924V95.684H65.5036V96.308H56.2636V92.924H56.9836ZM71.0798 86.156L73.7798 96.308H73.0358L70.4798 86.696L67.9238 96.308H67.1798L69.8798 86.156H71.0798ZM73.3238 90.416H75.8198V86.156H76.5398V96.308H75.8198V91.04H73.3238V90.416ZM90.5583 86.768H86.8863L90.5343 89.432H89.5743L85.8183 86.78L82.0623 89.432H81.1023L84.7503 86.768H81.0783V86.156H90.5583V86.768ZM81.0783 90.224H85.4583V88.484H86.1783V90.224H90.5583V90.848H81.0783V90.224ZM90.6183 92.78H81.0183V92.156H85.4343V91.148H86.2023V92.156H90.6183V92.78ZM81.1383 94.892C81.1383 93.908 81.8463 93.476 82.8783 93.476H88.7583C89.7903 93.476 90.4983 93.908 90.4983 94.892C90.4983 95.876 89.7903 96.308 88.7583 96.308H82.8783C81.8463 96.308 81.1383 95.876 81.1383 94.892ZM82.8783 95.684H88.7583C89.3463 95.684 89.7783 95.504 89.7783 94.892C89.7783 94.28 89.3463 94.1 88.7583 94.1H82.8783C82.2903 94.1 81.8583 94.28 81.8583 94.892C81.8583 95.504 82.2903 95.684 82.8783 95.684ZM92.1745 88.112C92.1745 86.888 93.0025 86.156 94.1545 86.156H99.7945C100.947 86.156 101.775 86.888 101.775 88.112C101.775 89.336 100.947 90.068 99.7945 90.068H94.1545C93.0025 90.068 92.1745 89.336 92.1745 88.112ZM92.8945 88.112C92.8945 88.868 93.3265 89.444 94.1545 89.444H99.7945C100.623 89.444 101.055 88.868 101.055 88.112C101.055 87.356 100.623 86.78 99.7945 86.78H94.1545C93.3265 86.78 92.8945 87.356 92.8945 88.112ZM92.2345 91.604H101.715V92.228H92.2345V91.604ZM93.1945 93.644V95.684H101.715V96.308H92.4745V93.644H93.1945ZM111.893 90.668H111.149C111.497 89.036 111.665 88.088 111.725 86.78H106.193V86.156H112.493C112.409 88.088 112.241 89.036 111.893 90.668ZM114.773 91.04V86.156H115.493V91.04H114.773ZM106.373 96.308V93.608H114.773V92.264H106.373V91.64H115.493V94.232H107.093V95.684H115.613V96.308H106.373ZM117.409 92.672V89.048H125.929V86.78H117.409V86.156H126.649V89.672H118.129V92.048H126.709V92.672H122.389V95.684H126.769V96.308H117.289V95.684H121.669V92.672H117.409ZM131.248 89.096C131.248 87.344 132.124 86.036 134.368 86.036C136.612 86.036 137.488 87.344 137.488 89.096V93.368C137.488 95.12 136.612 96.428 134.368 96.428C132.124 96.428 131.248 95.12 131.248 93.368V89.096ZM139.828 96.308V86.156H140.548V96.308H139.828ZM134.368 95.804C136.144 95.804 136.768 94.796 136.768 93.368V89.096C136.768 87.668 136.144 86.66 134.368 86.66C132.592 86.66 131.968 87.668 131.968 89.096V93.368C131.968 94.796 132.592 95.804 134.368 95.804ZM134.368 92.396C134.32 91.448 133.972 91.172 133.192 91.136C133.972 91.1 134.32 90.824 134.368 89.876C134.416 90.824 134.752 91.1 135.544 91.136C134.752 91.172 134.416 91.448 134.368 92.396ZM142.344 89.864H145.464C145.824 88.7 146.016 87.656 146.076 86.78H142.404V86.156H146.844C146.76 87.644 146.568 88.7 146.208 89.864H150.384C150.744 88.7 150.936 87.656 150.996 86.78H147.324V86.156H151.764C151.68 87.644 151.488 88.7 151.128 89.864H151.824V90.488H142.344V89.864ZM142.464 96.308V93.644H150.984V92.336H142.464V91.712H151.704V94.268H143.184V95.684H151.824V96.308H142.464ZM153.56 89.096C153.56 87.344 154.376 86.036 156.62 86.036C158.864 86.036 159.68 87.344 159.68 89.096V90.656H162.14V86.156H162.86V96.308H162.14V91.28H159.68V93.368C159.68 95.12 158.864 96.428 156.62 96.428C154.376 96.428 153.56 95.12 153.56 93.368V89.096ZM156.62 95.804C158.396 95.804 158.96 94.796 158.96 93.368V89.096C158.96 87.668 158.396 86.66 156.62 86.66C154.844 86.66 154.28 87.668 154.28 89.096V93.368C154.28 94.796 154.844 95.804 156.62 95.804ZM156.62 92.396C156.572 91.448 156.224 91.172 155.444 91.136C156.224 91.1 156.572 90.824 156.62 89.876C156.668 90.824 157.004 91.1 157.796 91.136C157.004 91.172 156.668 91.448 156.62 92.396ZM174.136 86.78H170.464L174.112 89.528H173.152L169.396 86.792L165.64 89.528H164.68L168.328 86.78H164.656V86.156H174.136V86.78ZM164.656 90.284H174.136V90.908H169.756V92.192H174.016V94.508H165.496V95.684H174.136V96.308H164.776V93.884H173.296V92.816H164.776V92.192H169.036V90.908H164.656V90.284ZM45.6813 104.768H42.0093L45.6573 107.432H44.6973L40.9413 104.78L37.1853 107.432H36.2253L39.8733 104.768H36.2013V104.156H45.6813V104.768ZM36.2013 108.224H40.5813V106.484H41.3013V108.224H45.6813V108.848H36.2013V108.224ZM45.7413 110.78H36.1413V110.156H40.5573V109.148H41.3253V110.156H45.7413V110.78ZM36.2613 112.892C36.2613 111.908 36.9693 111.476 38.0013 111.476H43.8813C44.9133 111.476 45.6213 111.908 45.6213 112.892C45.6213 113.876 44.9133 114.308 43.8813 114.308H38.0013C36.9693 114.308 36.2613 113.876 36.2613 112.892ZM38.0013 113.684H43.8813C44.4693 113.684 44.9013 113.504 44.9013 112.892C44.9013 112.28 44.4693 112.1 43.8813 112.1H38.0013C37.4133 112.1 36.9813 112.28 36.9813 112.892C36.9813 113.504 37.4133 113.684 38.0013 113.684ZM47.2976 106.112C47.2976 104.888 48.1256 104.156 49.2776 104.156H54.9176C56.0696 104.156 56.8976 104.888 56.8976 106.112C56.8976 107.336 56.0696 108.068 54.9176 108.068H49.2776C48.1256 108.068 47.2976 107.336 47.2976 106.112ZM48.0176 106.112C48.0176 106.868 48.4496 107.444 49.2776 107.444H54.9176C55.7456 107.444 56.1776 106.868 56.1776 106.112C56.1776 105.356 55.7456 104.78 54.9176 104.78H49.2776C48.4496 104.78 48.0176 105.356 48.0176 106.112ZM47.3576 109.604H56.8376V110.228H47.3576V109.604ZM48.3176 111.644V113.684H56.8376V114.308H47.5976V111.644H48.3176ZM65.156 104.156L67.856 114.308H67.112L64.556 104.696L62 114.308H61.256L63.956 104.156H65.156ZM69.416 114.308V104.156H70.136V108.416H71.696V109.04H70.136V114.308H69.416ZM72.5323 106.436H77.9203V104.78H72.5323V104.156H78.6403V107.06H73.2523V108.884H75.5083C76.8283 108.884 78.0163 108.8 79.0603 108.668V109.292C78.0163 109.424 76.8283 109.508 75.5083 109.508H72.5323V106.436ZM80.5723 109.964V104.156H81.2923V106.556H82.8523V107.18H81.2923V109.964H80.5723ZM72.6523 114.308V110.684H81.2923V114.308H72.6523ZM73.3723 113.684H80.5723V111.308H73.3723V113.684ZM83.5085 105.728C83.5085 104.744 84.2165 104.156 85.2485 104.156H91.3685C92.4005 104.156 93.1085 104.744 93.1085 105.728C93.1085 106.712 92.4005 107.3 91.3685 107.3H85.2485C84.2165 107.3 83.5085 106.712 83.5085 105.728ZM84.2285 105.728C84.2285 106.244 84.5405 106.676 85.2485 106.676H91.3685C92.0765 106.676 92.3885 106.244 92.3885 105.728C92.3885 105.212 92.0765 104.78 91.3685 104.78H85.2485C84.5405 104.78 84.2285 105.212 84.2285 105.728ZM83.5685 108.404H93.0485V109.028H83.5685V108.404ZM83.6885 114.308V111.884H92.2085V110.816H83.6885V110.192H92.9285V112.508H84.4085V113.684H93.0485V114.308H83.6885ZM103.587 109.388H97.587V104.156H103.587V109.388ZM105.627 111.548V104.156H106.347V106.736H107.907V107.36H106.347V111.548H105.627ZM98.307 104.78V108.764H102.867V104.78H98.307ZM98.427 110.924V113.684H106.467V114.308H97.707V110.924H98.427ZM108.743 104.156H109.463V113.684H111.959C113.279 113.684 114.467 113.636 115.511 113.42V114.044C114.467 114.26 113.279 114.308 111.959 114.308H108.743V104.156ZM116.783 114.308V104.156H117.503V108.416H119.063V109.04H117.503V114.308H116.783ZM123.859 114.308H123.115C123.559 110.996 123.871 107.768 123.931 104.78H119.839V104.156H124.699C124.663 105.632 124.591 107.048 124.483 108.416H126.379V104.156H127.099V114.308H126.379V109.04H124.435C124.291 110.828 124.087 112.556 123.859 114.308ZM128.419 114.308V104.156H129.139V114.308H128.419ZM133.678 109.028V108.404H136.798V107.348H133.798V104.156H140.386V104.78H134.518V106.724H140.446V107.348H137.518V108.404H140.638V109.028H133.678ZM142.318 109.4V104.156H143.038V109.4H142.318ZM133.918 114.308V111.848H142.318V110.744H133.918V110.12H143.038V112.472H134.638V113.684H143.158V114.308H133.918ZM152.976 114.308H152.232C152.676 110.996 152.988 107.768 153.048 104.78H147.636V104.156H153.816C153.78 105.716 153.696 107.204 153.588 108.656H156.216V104.156H156.936V114.308H156.216V109.28H153.54C153.396 110.984 153.192 112.628 152.976 114.308ZM158.793 106.376C158.793 104.984 159.669 104.036 161.193 104.036C162.717 104.036 163.593 104.984 163.593 106.376V106.856H165.333V104.156H166.053V114.308H165.333V111.308H163.593V112.088C163.593 113.48 162.717 114.428 161.193 114.428C159.669 114.428 158.793 113.48 158.793 112.088V106.376ZM167.373 114.308V104.156H168.093V114.308H167.373ZM161.193 113.804C162.249 113.804 162.873 113.156 162.873 112.088V106.376C162.873 105.308 162.249 104.66 161.193 104.66C160.137 104.66 159.513 105.308 159.513 106.376V112.088C159.513 113.156 160.137 113.804 161.193 113.804ZM163.593 107.48V110.684H165.333V107.48H163.593ZM161.193 110.396C161.145 109.448 160.797 109.172 160.017 109.136C160.797 109.1 161.145 108.824 161.193 107.876C161.241 108.824 161.577 109.1 162.369 109.136C161.577 109.172 161.241 109.448 161.193 110.396ZM169.829 107.072C169.829 105.368 170.897 104.156 172.529 104.156H176.729C178.361 104.156 179.429 105.368 179.429 107.072C179.429 108.632 178.541 109.772 177.149 109.964V113.684H179.369V114.308H169.889V113.684H172.109V109.964C170.717 109.772 169.829 108.632 169.829 107.072ZM170.549 107.072C170.549 108.308 171.221 109.364 172.529 109.364H176.729C178.037 109.364 178.709 108.308 178.709 107.072C178.709 105.836 178.037 104.78 176.729 104.78H172.529C171.221 104.78 170.549 105.836 170.549 107.072ZM174.629 108.332C174.581 107.384 174.233 107.108 173.453 107.072C174.233 107.036 174.581 106.76 174.629 105.812C174.677 106.76 175.013 107.036 175.805 107.072C175.013 107.108 174.677 107.384 174.629 108.332ZM172.829 109.988V113.684H176.429V109.988H172.829ZM181.705 111.284L181.513 104.036H182.329L182.149 111.284H181.705ZM181.921 113C182.245 113 182.557 113.252 182.557 113.648C182.557 114.056 182.245 114.308 181.921 114.308C181.597 114.308 181.285 114.056 181.285 113.648C181.285 113.252 181.597 113 181.921 113Z" fill="#BFE373"/>
<rect x="11" y="11" width="198" height="308" rx="15" stroke="url(#paint3_linear_127_1336)" stroke-opacity="0.5" stroke-width="2"/>
<defs>
<filter id="filter0_d_127_1336" x="69.8313" y="29.108" width="79.5288" height="46.8159" filterUnits="userSpaceOnUse" color-interpolation-filters="sRGB">
<feFlood flood-opacity="0" result="BackgroundImageFix"/>
<feColorMatrix in="SourceAlpha" type="matrix" values="0 0 0 0 0 0 0 0 0 0 0 0 0 0 0 0 0 0 127 0" result="hardAlpha"/>
<feOffset/>
<feGaussianBlur stdDeviation="4"/>
<feComposite in2="hardAlpha" operator="out"/>
<feColorMatrix type="matrix" values="0 0 0 0 0.74902 0 0 0 0 0.890196 0 0 0 0 0.45098 0 0 0 0.7 0"/>
<feBlend mode="normal" in2="BackgroundImageFix" result="effect1_dropShadow_127_1336"/>
<feBlend mode="normal" in="SourceGraphic" in2="effect1_dropShadow_127_1336" result="shape"/>
</filter>
<radialGradient id="paint0_radial_127_1336" cx="0" cy="0" r="1" gradientUnits="userSpaceOnUse" gradientTransform="translate(109.725 219.725) rotate(135) scale(64.1524 64.1524)">
<stop stop-color="#BFE373" stop-opacity="0.77"/>
<stop offset="1" stop-color="#BFE373" stop-opacity="0"/>
</radialGradient>
<radialGradient id="paint1_radial_127_1336" cx="0" cy="0" r="1" gradientUnits="userSpaceOnUse" gradientTransform="translate(109.368 219.583) rotate(135) scale(41.0057 41.0058)">
<stop stop-color="#BFE373" stop-opacity="0.77"/>
<stop offset="1" stop-color="#BFE373" stop-opacity="0"/>
</radialGradient>
<radialGradient id="paint2_radial_127_1336" cx="0" cy="0" r="1" gradientUnits="userSpaceOnUse" gradientTransform="translate(109.368 219.368) rotate(135) scale(23.5697 23.5697)">
<stop stop-color="#BFE373" stop-opacity="0.77"/>
<stop offset="1" stop-color="#BFE373" stop-opacity="0"/>
</radialGradient>
<linearGradient id="paint3_linear_127_1336" x1="15.5" y1="10" x2="210" y2="320" gradientUnits="userSpaceOnUse">
<stop stop-color="#445128" stop-opacity="0.51"/>
<stop offset="0.307292" stop-color="#BFE373"/>
<stop offset="1" stop-color="#ECFFC4" stop-opacity="0.03"/>
</linearGradient>
<clipPath id="clip0_127_1336">
<rect width="30" height="30" fill="white" transform="translate(170 280)"/>
</clipPath>
</defs>
</svg>
