<svg width="270" height="400" viewBox="0 0 270 400" fill="none" xmlns="http://www.w3.org/2000/svg">
<rect width="270" height="400" rx="24" fill="#32363A"/>
<g filter="url(#filter0_d_122_2243)">
<path d="M92.775 59.128V51.688H120.999C121.623 49.48 122.151 46.84 122.199 45.064H92.775V37.624H132.615C132.567 42.28 131.751 47.416 130.887 51.688H132.615V59.128H92.775ZM92.775 61H132.615V78.184H92.775V61ZM112.695 77.704C112.695 73 118.839 69.784 130.839 69.592C118.839 69.448 112.695 66.232 112.695 61.48C112.695 66.232 106.503 69.448 94.503 69.592C106.503 69.784 112.695 73 112.695 77.704ZM162.792 52.984V45.064H159.432L163.56 59.896H153.72L150.36 45.016L147 59.896H137.16L141.288 45.064H137.16V37.624H163.56V44.824H167.64V37.624H177.24V65.752H167.64V52.984H162.792ZM137.4 62.536H147V70.792L159 70.744C165.24 70.696 171.96 70.216 177.48 69.352V78.232H137.4V62.536Z" fill="#FFCA43"/>
</g>
<path d="M73.0746 103.604C73.0746 101.706 73.9586 100.289 76.3896 100.289C78.5346 100.289 79.4706 101.394 79.6656 102.954H82.3696V100.419H83.1496V111.417H82.3696V108.44H79.7046C79.6396 110.234 78.7296 111.547 76.3896 111.547C73.9586 111.547 73.0746 110.13 73.0746 108.232V103.604ZM76.3896 110.871C78.3136 110.871 78.9246 109.779 78.9246 108.232V103.604C78.9246 102.057 78.3136 100.965 76.3896 100.965C74.4656 100.965 73.8546 102.057 73.8546 103.604V108.232C73.8546 109.779 74.4656 110.871 76.3896 110.871ZM79.7046 103.63V107.764H82.3696V103.63H79.7046ZM76.3896 107.179C76.3376 106.152 75.9606 105.853 75.1156 105.814C75.9606 105.775 76.3376 105.476 76.3896 104.449C76.4416 105.476 76.8056 105.775 77.6636 105.814C76.8056 105.853 76.4416 106.152 76.3896 107.179ZM85.0305 102.798C85.0305 101.342 86.0575 100.419 87.4355 100.419H93.0255C94.4035 100.419 95.4305 101.342 95.4305 102.798C95.4305 104.254 94.4035 105.177 93.0255 105.177H87.4355C86.0575 105.177 85.0305 104.254 85.0305 102.798ZM85.8105 102.798C85.8105 103.747 86.4085 104.501 87.4355 104.501H93.0255C94.0525 104.501 94.6505 103.747 94.6505 102.798C94.6505 101.849 94.0525 101.095 93.0255 101.095H87.4355C86.4085 101.095 85.8105 101.849 85.8105 102.798ZM90.2305 104.163C90.1785 103.136 89.8015 102.837 88.9565 102.798C89.8015 102.759 90.1785 102.46 90.2305 101.433C90.2825 102.46 90.6465 102.759 91.5045 102.798C90.6465 102.837 90.2825 103.136 90.2305 104.163ZM92.1805 111.417V107.517H88.2805V111.417H87.5005V107.517H85.0955V106.841H95.3655V107.517H92.9605V111.417H92.1805ZM97.3115 104.787V102.265H106.541V101.095H97.3115V100.419H107.321V102.941H98.0915V104.111H107.386V104.787H102.706V105.996H107.451V106.672H97.1815V105.996H101.926V104.787H97.3115ZM98.0915 107.491V108.726H106.541V107.491H107.321V111.417H97.3115V107.491H98.0915ZM106.541 110.741V109.402H98.0915V110.741H106.541ZM109.397 100.419H116.014V101.095H110.177V110.741H112.881C114.311 110.741 115.598 110.689 116.729 110.455V111.131C115.598 111.365 114.311 111.417 112.881 111.417H109.397V100.419ZM118.107 111.417V100.419H118.887V105.034H120.577V105.71H118.887V111.417H118.107ZM124.454 104.397V100.419H134.464V104.397H129.849V105.931H134.594V106.607H124.324V105.931H129.069V104.397H124.454ZM125.234 103.721H133.684V101.095H125.234V103.721ZM124.285 111.417L129.03 107.491H129.888L134.633 111.417H133.619L129.459 107.985L125.299 111.417H124.285ZM136.28 101.329H138.75V100.029H139.53V101.329H142V102.005H136.28V101.329ZM143.17 111.417V100.419H143.95V105.294H145.77V100.419H146.55V111.417H145.77V105.97H143.95V111.417H143.17ZM136.475 105.554C136.475 104.046 137.359 102.889 139.14 102.889C140.921 102.889 141.805 104.046 141.805 105.554V108.882C141.805 110.39 140.921 111.547 139.14 111.547C137.359 111.547 136.475 110.39 136.475 108.882V105.554ZM139.14 110.871C140.414 110.871 141.025 110.039 141.025 108.882V105.554C141.025 104.397 140.414 103.565 139.14 103.565C137.866 103.565 137.255 104.397 137.255 105.554V108.882C137.255 110.039 137.866 110.871 139.14 110.871ZM139.14 108.479C139.088 107.452 138.711 107.153 137.866 107.114C138.711 107.075 139.088 106.776 139.14 105.749C139.192 106.776 139.556 107.075 140.414 107.114C139.556 107.153 139.192 107.452 139.14 108.479ZM151.597 100.419H152.377V105.021H154.821C156.251 105.021 157.538 104.93 158.669 104.787V105.463C157.538 105.606 156.251 105.697 154.821 105.697H151.597V100.419ZM160.827 106.191V102.837H157.083V102.161H160.827V100.419H161.607V106.191H160.827ZM151.727 111.417V106.971H161.607V111.417H151.727ZM152.507 110.741H160.827V107.647H152.507V110.741ZM163.423 101.329H166.738V100.029H167.518V101.329H170.833V102.005H167.856L170.703 111.417H169.897L167.128 102.239L164.359 111.417H163.553L166.387 102.005H163.423V101.329ZM172.913 111.417V100.419H173.693V111.417H172.913ZM175.769 106.737V100.419H185.779V101.095H176.549V106.061H185.844V106.737H181.164V110.741H185.909V111.417H175.639V110.741H180.384V106.737H175.769ZM187.854 105.177V102.46H197.084V101.095H187.854V100.419H197.864V103.136H188.634V104.501H197.929V105.177H193.249V106.581H197.994V107.257H187.724V106.581H192.469V105.177H187.854ZM197.084 111.417V109.207H187.854V108.531H197.864V111.417H197.084ZM68.179 123.721H70.766C70.714 122.746 70.337 122.447 69.505 122.408C70.337 122.369 70.714 122.083 70.766 121.095H68.244V120.419H78.384V121.095H76.499L75.953 123.721H78.449V124.397H68.179V123.721ZM72.053 122.408C71.208 122.447 70.844 122.746 70.779 123.721H75.173L75.719 121.095H70.779C70.844 122.083 71.208 122.369 72.053 122.408ZM68.179 125.541H78.449V126.217H73.704V127.881H76.499C77.747 127.881 78.514 128.453 78.514 129.649C78.514 130.845 77.747 131.417 76.499 131.417H70.129C68.881 131.417 68.114 130.845 68.114 129.649C68.114 128.453 68.881 127.881 70.129 127.881H72.924V126.217H68.179V125.541ZM68.894 129.649C68.894 130.338 69.232 130.741 70.129 130.741H76.499C77.396 130.741 77.734 130.338 77.734 129.649C77.734 128.96 77.396 128.557 76.499 128.557H70.129C69.232 128.557 68.894 128.96 68.894 129.649ZM90.535 121.095H86.453L90.509 124.657H89.469L85.4 121.108L81.331 124.657H80.291L84.347 121.095H80.265V120.419H90.535V121.095ZM80.265 125.931H85.01V123.539H85.79V125.931H90.535V126.607H80.265V125.931ZM89.625 131.417V128.817H80.395V128.141H90.405V131.417H89.625ZM92.2209 121.069H95.4709V119.899H96.2509V121.069H99.5009V121.745H92.2209V121.069ZM101.191 128.817V120.419H101.971V123.734H103.661V124.41H101.971V128.817H101.191ZM92.4159 124.878C92.4159 123.552 93.3129 122.564 94.6909 122.564H97.0309C98.4089 122.564 99.3059 123.552 99.3059 124.878C99.3059 126.204 98.4089 127.192 97.0309 127.192H94.6909C93.3129 127.192 92.4159 126.204 92.4159 124.878ZM93.1959 124.878C93.1959 125.697 93.6639 126.516 94.6909 126.516H97.0309C98.0579 126.516 98.5259 125.697 98.5259 124.878C98.5259 124.059 98.0579 123.24 97.0309 123.24H94.6909C93.6639 123.24 93.1959 124.059 93.1959 124.878ZM93.3909 128.401V130.741H102.101V131.417H92.6109V128.401H93.3909ZM107.278 121.069H110.528V119.899H111.308V121.069H114.558V121.745H107.278V121.069ZM116.248 128.817V120.419H117.028V123.734H118.718V124.41H117.028V128.817H116.248ZM107.473 124.878C107.473 123.552 108.37 122.564 109.748 122.564H112.088C113.466 122.564 114.363 123.552 114.363 124.878C114.363 126.204 113.466 127.192 112.088 127.192H109.748C108.37 127.192 107.473 126.204 107.473 124.878ZM108.253 124.878C108.253 125.697 108.721 126.516 109.748 126.516H112.088C113.115 126.516 113.583 125.697 113.583 124.878C113.583 124.059 113.115 123.24 112.088 123.24H109.748C108.721 123.24 108.253 124.059 108.253 124.878ZM108.448 128.401V130.741H117.158V131.417H107.668V128.401H108.448ZM122.334 121.329H124.804V120.029H125.584V121.329H128.054V122.005H122.334V121.329ZM129.224 131.417V120.419H130.004V125.294H131.824V120.419H132.604V131.417H131.824V125.97H130.004V131.417H129.224ZM122.529 125.554C122.529 124.046 123.413 122.889 125.194 122.889C126.975 122.889 127.859 124.046 127.859 125.554V128.882C127.859 130.39 126.975 131.547 125.194 131.547C123.413 131.547 122.529 130.39 122.529 128.882V125.554ZM125.194 130.871C126.468 130.871 127.079 130.039 127.079 128.882V125.554C127.079 124.397 126.468 123.565 125.194 123.565C123.92 123.565 123.309 124.397 123.309 125.554V128.882C123.309 130.039 123.92 130.871 125.194 130.871ZM125.194 128.479C125.142 127.452 124.765 127.153 123.92 127.114C124.765 127.075 125.142 126.776 125.194 125.749C125.246 126.776 125.61 127.075 126.468 127.114C125.61 127.153 125.246 127.452 125.194 128.479ZM140.4 131.417H139.594C140.075 127.829 140.413 124.332 140.478 121.095H134.615V120.419H141.31C141.219 124.332 140.881 127.829 140.4 131.417ZM143.39 131.417V120.419H144.17V125.034H145.86V125.71H144.17V131.417H143.39ZM149.607 125.697V125.021H152.987V123.877H149.737V120.419H156.874V121.095H150.517V123.201H156.939V123.877H153.767V125.021H157.147V125.697H149.607ZM158.967 126.1V120.419H159.747V126.1H158.967ZM149.867 131.417V128.752H158.967V127.556H149.867V126.88H159.747V129.428H150.647V130.741H159.877V131.417H149.867ZM170.513 131.417H169.707C170.188 127.829 170.526 124.332 170.591 121.095H164.728V120.419H171.423C171.384 122.109 171.293 123.721 171.176 125.294H174.023V120.419H174.803V131.417H174.023V125.97H171.124C170.968 127.816 170.747 129.597 170.513 131.417ZM176.814 122.824C176.814 121.316 177.763 120.289 179.414 120.289C181.065 120.289 182.014 121.316 182.014 122.824V123.344H183.899V120.419H184.679V131.417H183.899V128.167H182.014V129.012C182.014 130.52 181.065 131.547 179.414 131.547C177.763 131.547 176.814 130.52 176.814 129.012V122.824ZM186.109 131.417V120.419H186.889V131.417H186.109ZM179.414 130.871C180.558 130.871 181.234 130.169 181.234 129.012V122.824C181.234 121.667 180.558 120.965 179.414 120.965C178.27 120.965 177.594 121.667 177.594 122.824V129.012C177.594 130.169 178.27 130.871 179.414 130.871ZM182.014 124.02V127.491H183.899V124.02H182.014ZM179.414 127.179C179.362 126.152 178.985 125.853 178.14 125.814C178.985 125.775 179.362 125.476 179.414 124.449C179.466 125.476 179.83 125.775 180.688 125.814C179.83 125.853 179.466 126.152 179.414 127.179ZM188.77 123.578C188.77 121.732 189.927 120.419 191.695 120.419H196.245C198.013 120.419 199.17 121.732 199.17 123.578C199.17 125.268 198.208 126.503 196.7 126.711V130.741H199.105V131.417H188.835V130.741H191.24V126.711C189.732 126.503 188.77 125.268 188.77 123.578ZM189.55 123.578C189.55 124.917 190.278 126.061 191.695 126.061H196.245C197.662 126.061 198.39 124.917 198.39 123.578C198.39 122.239 197.662 121.095 196.245 121.095H191.695C190.278 121.095 189.55 122.239 189.55 123.578ZM193.97 124.943C193.918 123.916 193.541 123.617 192.696 123.578C193.541 123.539 193.918 123.24 193.97 122.213C194.022 123.24 194.386 123.539 195.244 123.578C194.386 123.617 194.022 123.916 193.97 124.943ZM192.02 126.737V130.741H195.92V126.737H192.02ZM201.636 128.141L201.428 120.289H202.312L202.117 128.141H201.636ZM201.87 130C202.221 130 202.559 130.273 202.559 130.702C202.559 131.144 202.221 131.417 201.87 131.417C201.519 131.417 201.181 131.144 201.181 130.702C201.181 130.273 201.519 130 201.87 130Z" fill="#FFCA43"/>
<circle cx="134.5" cy="268.5" r="92.5" fill="url(#paint0_radial_122_2243)"/>
<circle cx="134.5" cy="268.5" r="61.5" fill="url(#paint1_radial_122_2243)"/>
<circle cx="134" cy="269" r="37" fill="url(#paint2_radial_122_2243)"/>
<rect x="11" y="11" width="248" height="378" rx="15" stroke="url(#paint3_linear_122_2243)" stroke-opacity="0.5" stroke-width="2"/>
<defs>
<filter id="filter0_d_122_2243" x="84.7749" y="29.624" width="100.705" height="56.6079" filterUnits="userSpaceOnUse" color-interpolation-filters="sRGB">
<feFlood flood-opacity="0" result="BackgroundImageFix"/>
<feColorMatrix in="SourceAlpha" type="matrix" values="0 0 0 0 0 0 0 0 0 0 0 0 0 0 0 0 0 0 127 0" result="hardAlpha"/>
<feOffset/>
<feGaussianBlur stdDeviation="4"/>
<feComposite in2="hardAlpha" operator="out"/>
<feColorMatrix type="matrix" values="0 0 0 0 1 0 0 0 0 0.792157 0 0 0 0 0.262745 0 0 0 0.7 0"/>
<feBlend mode="normal" in2="BackgroundImageFix" result="effect1_dropShadow_122_2243"/>
<feBlend mode="normal" in="SourceGraphic" in2="effect1_dropShadow_122_2243" result="shape"/>
</filter>
<radialGradient id="paint0_radial_122_2243" cx="0" cy="0" r="1" gradientUnits="userSpaceOnUse" gradientTransform="translate(134.5 268.5) rotate(90) scale(92.5)">
<stop stop-color="#FFCA43" stop-opacity="0.53"/>
<stop offset="1" stop-color="#FFCA43" stop-opacity="0"/>
</radialGradient>
<radialGradient id="paint1_radial_122_2243" cx="0" cy="0" r="1" gradientUnits="userSpaceOnUse" gradientTransform="translate(134.5 268.5) rotate(90) scale(61.5)">
<stop stop-color="#FFCA43" stop-opacity="0.53"/>
<stop offset="1" stop-color="#FFCA43" stop-opacity="0"/>
</radialGradient>
<radialGradient id="paint2_radial_122_2243" cx="0" cy="0" r="1" gradientUnits="userSpaceOnUse" gradientTransform="translate(134 269) rotate(90) scale(37)">
<stop stop-color="#FFCA43" stop-opacity="0.53"/>
<stop offset="1" stop-color="#FFCA43" stop-opacity="0"/>
</radialGradient>
<linearGradient id="paint3_linear_122_2243" x1="16.875" y1="10" x2="253.239" y2="394.16" gradientUnits="userSpaceOnUse">
<stop stop-color="#59481D" stop-opacity="0.31"/>
<stop offset="0.307292" stop-color="#FFCA43"/>
<stop offset="1" stop-color="#E8FFEB" stop-opacity="0.03"/>
<stop offset="1" stop-color="#FFD362" stop-opacity="0.18"/>
</linearGradient>
</defs>
</svg>
