<svg width="220" height="330" viewBox="0 0 220 330" fill="none" xmlns="http://www.w3.org/2000/svg">
<rect width="220" height="330" rx="24" fill="#32363A"/>
<g clip-path="url(#clip0_127_1335)">
<circle cx="185" cy="295" r="14" stroke="#7A7F8D" stroke-width="2"/>
<path fill-rule="evenodd" clip-rule="evenodd" d="M191.707 290.293C192.098 290.683 192.098 291.317 191.707 291.707L184.207 299.207C183.817 299.598 183.183 299.598 182.793 299.207L178.293 294.707C177.902 294.317 177.902 293.683 178.293 293.293C178.683 292.902 179.317 292.902 179.707 293.293L183.5 297.086L190.293 290.293C190.683 289.902 191.317 289.902 191.707 290.293Z" fill="#7A7F8D"/>
</g>
<circle cx="109.517" cy="219.739" r="68.5169" fill="url(#paint0_radial_127_1335)"/>
<circle cx="109.517" cy="219.739" r="45.5545" fill="url(#paint1_radial_127_1335)"/>
<circle cx="109.146" cy="220.109" r="27.4067" fill="url(#paint2_radial_127_1335)"/>
<g filter="url(#filter0_d_127_1335)">
<path d="M77.8313 53.596V48.016H98.9993C99.4673 46.36 99.8633 44.38 99.8993 43.048H77.8313V37.468H107.711C107.675 40.96 107.063 44.812 106.415 48.016H107.711V53.596H77.8313ZM77.8313 55H107.711V67.888H77.8313V55ZM92.7713 67.528C92.7713 64 97.3793 61.588 106.379 61.444C97.3793 61.336 92.7713 58.924 92.7713 55.36C92.7713 58.924 88.1273 61.336 79.1273 61.444C88.1273 61.588 92.7713 64 92.7713 67.528ZM130.344 48.988V43.048H127.824L130.92 54.172H123.54L121.02 43.012L118.5 54.172H111.12L114.216 43.048H111.12V37.468H130.92V42.868H133.98V37.468H141.18V58.564H133.98V48.988H130.344ZM111.3 56.152H118.5V62.344L127.5 62.308C132.18 62.272 137.22 61.912 141.36 61.264V67.924H111.3V56.152Z" fill="#FFCA43"/>
</g>
<path d="M52.3766 89.096C52.3766 87.344 53.1926 86.036 55.4366 86.036C57.4166 86.036 58.2806 87.056 58.4606 88.496H60.9566V86.156H61.6766V96.308H60.9566V93.56H58.4966C58.4366 95.216 57.5966 96.428 55.4366 96.428C53.1926 96.428 52.3766 95.12 52.3766 93.368V89.096ZM55.4366 95.804C57.2126 95.804 57.7766 94.796 57.7766 93.368V89.096C57.7766 87.668 57.2126 86.66 55.4366 86.66C53.6606 86.66 53.0966 87.668 53.0966 89.096V93.368C53.0966 94.796 53.6606 95.804 55.4366 95.804ZM58.4966 89.12V92.936H60.9566V89.12H58.4966ZM55.4366 92.396C55.3886 91.448 55.0406 91.172 54.2606 91.136C55.0406 91.1 55.3886 90.824 55.4366 89.876C55.4846 90.824 55.8206 91.1 56.6126 91.136C55.8206 91.172 55.4846 91.448 55.4366 92.396ZM63.4128 88.352C63.4128 87.008 64.3608 86.156 65.6328 86.156H70.7928C72.0648 86.156 73.0128 87.008 73.0128 88.352C73.0128 89.696 72.0648 90.548 70.7928 90.548H65.6328C64.3608 90.548 63.4128 89.696 63.4128 88.352ZM64.1328 88.352C64.1328 89.228 64.6848 89.924 65.6328 89.924H70.7928C71.7408 89.924 72.2928 89.228 72.2928 88.352C72.2928 87.476 71.7408 86.78 70.7928 86.78H65.6328C64.6848 86.78 64.1328 87.476 64.1328 88.352ZM68.2128 89.612C68.1648 88.664 67.8168 88.388 67.0368 88.352C67.8168 88.316 68.1648 88.04 68.2128 87.092C68.2608 88.04 68.5968 88.316 69.3888 88.352C68.5968 88.388 68.2608 88.664 68.2128 89.612ZM70.0128 96.308V92.708H66.4128V96.308H65.6928V92.708H63.4728V92.084H72.9528V92.708H70.7328V96.308H70.0128ZM74.7491 90.188V87.86H83.2691V86.78H74.7491V86.156H83.9891V88.484H75.4691V89.564H84.0491V90.188H79.7291V91.304H84.1091V91.928H74.6291V91.304H79.0091V90.188H74.7491ZM75.4691 92.684V93.824H83.2691V92.684H83.9891V96.308H74.7491V92.684H75.4691ZM83.2691 95.684V94.448H75.4691V95.684H83.2691ZM85.9053 86.156H92.0133V86.78H86.6253V95.684H89.1213C90.4413 95.684 91.6293 95.636 92.6733 95.42V96.044C91.6293 96.26 90.4413 96.308 89.1213 96.308H85.9053V86.156ZM93.9453 96.308V86.156H94.6653V90.416H96.2253V91.04H94.6653V96.308H93.9453ZM99.8038 89.828V86.156H109.044V89.828H104.784V91.244H109.164V91.868H99.6838V91.244H104.064V89.828H99.8038ZM100.524 89.204H108.324V86.78H100.524V89.204ZM99.6478 96.308L104.028 92.684H104.82L109.2 96.308H108.264L104.424 93.14L100.584 96.308H99.6478ZM110.72 86.996H113V85.796H113.72V86.996H116V87.62H110.72V86.996ZM117.08 96.308V86.156H117.8V90.656H119.48V86.156H120.2V96.308H119.48V91.28H117.8V96.308H117.08ZM110.9 90.896C110.9 89.504 111.716 88.436 113.36 88.436C115.004 88.436 115.82 89.504 115.82 90.896V93.968C115.82 95.36 115.004 96.428 113.36 96.428C111.716 96.428 110.9 95.36 110.9 93.968V90.896ZM113.36 95.804C114.536 95.804 115.1 95.036 115.1 93.968V90.896C115.1 89.828 114.536 89.06 113.36 89.06C112.184 89.06 111.62 89.828 111.62 90.896V93.968C111.62 95.036 112.184 95.804 113.36 95.804ZM113.36 93.596C113.312 92.648 112.964 92.372 112.184 92.336C112.964 92.3 113.312 92.024 113.36 91.076C113.408 92.024 113.744 92.3 114.536 92.336C113.744 92.372 113.408 92.648 113.36 93.596ZM124.858 86.156H125.578V90.404H127.834C129.154 90.404 130.342 90.32 131.386 90.188V90.812C130.342 90.944 129.154 91.028 127.834 91.028H124.858V86.156ZM133.378 91.484V88.388H129.922V87.764H133.378V86.156H134.098V91.484H133.378ZM124.978 96.308V92.204H134.098V96.308H124.978ZM125.698 95.684H133.378V92.828H125.698V95.684ZM135.775 86.996H138.835V85.796H139.555V86.996H142.615V87.62H139.867L142.495 96.308H141.751L139.195 87.836L136.639 96.308H135.895L138.511 87.62H135.775V86.996ZM144.535 96.308V86.156H145.255V96.308H144.535ZM147.171 91.988V86.156H156.411V86.78H147.891V91.364H156.471V91.988H152.151V95.684H156.531V96.308H147.051V95.684H151.431V91.988H147.171ZM158.327 90.548V88.04H166.847V86.78H158.327V86.156H167.567V88.664H159.047V89.924H167.627V90.548H163.307V91.844H167.687V92.468H158.207V91.844H162.587V90.548H158.327ZM166.847 96.308V94.268H158.327V93.644H167.567V96.308H166.847ZM47.8576 107.204H50.2456C50.1976 106.304 49.8496 106.028 49.0816 105.992C49.8496 105.956 50.1976 105.692 50.2456 104.78H47.9176V104.156H57.2776V104.78H55.5376L55.0336 107.204H57.3376V107.828H47.8576V107.204ZM51.4336 105.992C50.6536 106.028 50.3176 106.304 50.2576 107.204H54.3136L54.8176 104.78H50.2576C50.3176 105.692 50.6536 105.956 51.4336 105.992ZM47.8576 108.884H57.3376V109.508H52.9576V111.044H55.5376C56.6896 111.044 57.3976 111.572 57.3976 112.676C57.3976 113.78 56.6896 114.308 55.5376 114.308H49.6576C48.5056 114.308 47.7976 113.78 47.7976 112.676C47.7976 111.572 48.5056 111.044 49.6576 111.044H52.2376V109.508H47.8576V108.884ZM48.5176 112.676C48.5176 113.312 48.8296 113.684 49.6576 113.684H55.5376C56.3656 113.684 56.6776 113.312 56.6776 112.676C56.6776 112.04 56.3656 111.668 55.5376 111.668H49.6576C48.8296 111.668 48.5176 112.04 48.5176 112.676ZM68.4938 104.78H64.7258L68.4698 108.068H67.5098L63.7538 104.792L59.9978 108.068H59.0378L62.7818 104.78H59.0138V104.156H68.4938V104.78ZM59.0138 109.244H63.3938V107.036H64.1138V109.244H68.4938V109.868H59.0138V109.244ZM67.6538 114.308V111.908H59.1338V111.284H68.3738V114.308H67.6538ZM70.0501 104.756H73.0501V103.676H73.7701V104.756H76.7701V105.38H70.0501V104.756ZM78.3301 111.908V104.156H79.0501V107.216H80.6101V107.84H79.0501V111.908H78.3301ZM70.2301 108.272C70.2301 107.048 71.0581 106.136 72.3301 106.136H74.4901C75.7621 106.136 76.5901 107.048 76.5901 108.272C76.5901 109.496 75.7621 110.408 74.4901 110.408H72.3301C71.0581 110.408 70.2301 109.496 70.2301 108.272ZM70.9501 108.272C70.9501 109.028 71.3821 109.784 72.3301 109.784H74.4901C75.4381 109.784 75.8701 109.028 75.8701 108.272C75.8701 107.516 75.4381 106.76 74.4901 106.76H72.3301C71.3821 106.76 70.9501 107.516 70.9501 108.272ZM71.1301 111.524V113.684H79.1701V114.308H70.4101V111.524H71.1301ZM83.9485 104.756H86.9485V103.676H87.6685V104.756H90.6685V105.38H83.9485V104.756ZM92.2285 111.908V104.156H92.9485V107.216H94.5085V107.84H92.9485V111.908H92.2285ZM84.1285 108.272C84.1285 107.048 84.9565 106.136 86.2285 106.136H88.3885C89.6605 106.136 90.4885 107.048 90.4885 108.272C90.4885 109.496 89.6605 110.408 88.3885 110.408H86.2285C84.9565 110.408 84.1285 109.496 84.1285 108.272ZM84.8485 108.272C84.8485 109.028 85.2805 109.784 86.2285 109.784H88.3885C89.3365 109.784 89.7685 109.028 89.7685 108.272C89.7685 107.516 89.3365 106.76 88.3885 106.76H86.2285C85.2805 106.76 84.8485 107.516 84.8485 108.272ZM85.0285 111.524V113.684H93.0685V114.308H84.3085V111.524H85.0285ZM97.847 104.996H100.127V103.796H100.847V104.996H103.127V105.62H97.847V104.996ZM104.207 114.308V104.156H104.927V108.656H106.607V104.156H107.327V114.308H106.607V109.28H104.927V114.308H104.207ZM98.027 108.896C98.027 107.504 98.843 106.436 100.487 106.436C102.131 106.436 102.947 107.504 102.947 108.896V111.968C102.947 113.36 102.131 114.428 100.487 114.428C98.843 114.428 98.027 113.36 98.027 111.968V108.896ZM100.487 113.804C101.663 113.804 102.227 113.036 102.227 111.968V108.896C102.227 107.828 101.663 107.06 100.487 107.06C99.311 107.06 98.747 107.828 98.747 108.896V111.968C98.747 113.036 99.311 113.804 100.487 113.804ZM100.487 111.596C100.439 110.648 100.091 110.372 99.311 110.336C100.091 110.3 100.439 110.024 100.487 109.076C100.535 110.024 100.871 110.3 101.663 110.336C100.871 110.372 100.535 110.648 100.487 111.596ZM114.523 114.308H113.779C114.223 110.996 114.535 107.768 114.595 104.78H109.183V104.156H115.363C115.279 107.768 114.967 110.996 114.523 114.308ZM117.283 114.308V104.156H118.003V108.416H119.563V109.04H118.003V114.308H117.283ZM123.022 109.028V108.404H126.142V107.348H123.142V104.156H129.73V104.78H123.862V106.724H129.79V107.348H126.862V108.404H129.982V109.028H123.022ZM131.662 109.4V104.156H132.382V109.4H131.662ZM123.262 114.308V111.848H131.662V110.744H123.262V110.12H132.382V112.472H123.982V113.684H132.502V114.308H123.262ZM142.32 114.308H141.576C142.02 110.996 142.332 107.768 142.392 104.78H136.98V104.156H143.16C143.124 105.716 143.04 107.204 142.932 108.656H145.56V104.156H146.28V114.308H145.56V109.28H142.884C142.74 110.984 142.536 112.628 142.32 114.308ZM148.136 106.376C148.136 104.984 149.012 104.036 150.536 104.036C152.06 104.036 152.936 104.984 152.936 106.376V106.856H154.676V104.156H155.396V114.308H154.676V111.308H152.936V112.088C152.936 113.48 152.06 114.428 150.536 114.428C149.012 114.428 148.136 113.48 148.136 112.088V106.376ZM156.716 114.308V104.156H157.436V114.308H156.716ZM150.536 113.804C151.592 113.804 152.216 113.156 152.216 112.088V106.376C152.216 105.308 151.592 104.66 150.536 104.66C149.48 104.66 148.856 105.308 148.856 106.376V112.088C148.856 113.156 149.48 113.804 150.536 113.804ZM152.936 107.48V110.684H154.676V107.48H152.936ZM150.536 110.396C150.488 109.448 150.14 109.172 149.36 109.136C150.14 109.1 150.488 108.824 150.536 107.876C150.584 108.824 150.92 109.1 151.712 109.136C150.92 109.172 150.584 109.448 150.536 110.396ZM159.173 107.072C159.173 105.368 160.241 104.156 161.873 104.156H166.073C167.705 104.156 168.773 105.368 168.773 107.072C168.773 108.632 167.885 109.772 166.493 109.964V113.684H168.713V114.308H159.233V113.684H161.453V109.964C160.061 109.772 159.173 108.632 159.173 107.072ZM159.893 107.072C159.893 108.308 160.565 109.364 161.873 109.364H166.073C167.381 109.364 168.053 108.308 168.053 107.072C168.053 105.836 167.381 104.78 166.073 104.78H161.873C160.565 104.78 159.893 105.836 159.893 107.072ZM163.973 108.332C163.925 107.384 163.577 107.108 162.797 107.072C163.577 107.036 163.925 106.76 163.973 105.812C164.021 106.76 164.357 107.036 165.149 107.072C164.357 107.108 164.021 107.384 163.973 108.332ZM162.173 109.988V113.684H165.773V109.988H162.173ZM171.049 111.284L170.857 104.036H171.673L171.493 111.284H171.049ZM171.265 113C171.589 113 171.901 113.252 171.901 113.648C171.901 114.056 171.589 114.308 171.265 114.308C170.941 114.308 170.629 114.056 170.629 113.648C170.629 113.252 170.941 113 171.265 113Z" fill="#FFCA43"/>
<rect x="11" y="11" width="198" height="308" rx="15" stroke="url(#paint3_linear_127_1335)" stroke-opacity="0.5" stroke-width="2"/>
<defs>
<filter id="filter0_d_127_1335" x="69.8313" y="29.468" width="79.5288" height="46.4559" filterUnits="userSpaceOnUse" color-interpolation-filters="sRGB">
<feFlood flood-opacity="0" result="BackgroundImageFix"/>
<feColorMatrix in="SourceAlpha" type="matrix" values="0 0 0 0 0 0 0 0 0 0 0 0 0 0 0 0 0 0 127 0" result="hardAlpha"/>
<feOffset/>
<feGaussianBlur stdDeviation="4"/>
<feComposite in2="hardAlpha" operator="out"/>
<feColorMatrix type="matrix" values="0 0 0 0 1 0 0 0 0 0.792157 0 0 0 0 0.262745 0 0 0 0.7 0"/>
<feBlend mode="normal" in2="BackgroundImageFix" result="effect1_dropShadow_127_1335"/>
<feBlend mode="normal" in="SourceGraphic" in2="effect1_dropShadow_127_1335" result="shape"/>
</filter>
<radialGradient id="paint0_radial_127_1335" cx="0" cy="0" r="1" gradientUnits="userSpaceOnUse" gradientTransform="translate(109.517 219.739) rotate(90) scale(68.5169)">
<stop stop-color="#FFCA43" stop-opacity="0.53"/>
<stop offset="1" stop-color="#FFCA43" stop-opacity="0"/>
</radialGradient>
<radialGradient id="paint1_radial_127_1335" cx="0" cy="0" r="1" gradientUnits="userSpaceOnUse" gradientTransform="translate(109.517 219.739) rotate(90) scale(45.5545)">
<stop stop-color="#FFCA43" stop-opacity="0.53"/>
<stop offset="1" stop-color="#FFCA43" stop-opacity="0"/>
</radialGradient>
<radialGradient id="paint2_radial_127_1335" cx="0" cy="0" r="1" gradientUnits="userSpaceOnUse" gradientTransform="translate(109.146 220.109) rotate(90) scale(27.4067)">
<stop stop-color="#FFCA43" stop-opacity="0.53"/>
<stop offset="1" stop-color="#FFCA43" stop-opacity="0"/>
</radialGradient>
<linearGradient id="paint3_linear_127_1335" x1="15.5" y1="10" x2="210" y2="320" gradientUnits="userSpaceOnUse">
<stop stop-color="#59481D" stop-opacity="0.31"/>
<stop offset="0.307292" stop-color="#FFCA43"/>
<stop offset="1" stop-color="#E8FFEB" stop-opacity="0.03"/>
<stop offset="1" stop-color="#FFD362" stop-opacity="0.18"/>
</linearGradient>
<clipPath id="clip0_127_1335">
<rect width="30" height="30" fill="white" transform="translate(170 280)"/>
</clipPath>
</defs>
</svg>
