<svg width="220" height="330" viewBox="0 0 220 330" fill="none" xmlns="http://www.w3.org/2000/svg">
<rect width="220" height="330" rx="24" fill="#32363A"/>
<g clip-path="url(#clip0_127_1334)">
<circle cx="185" cy="295" r="14" stroke="#7A7F8D" stroke-width="2"/>
<path fill-rule="evenodd" clip-rule="evenodd" d="M191.707 290.293C192.098 290.683 192.098 291.317 191.707 291.707L184.207 299.207C183.817 299.598 183.183 299.598 182.793 299.207L178.293 294.707C177.902 294.317 177.902 293.683 178.293 293.293C178.683 292.902 179.317 292.902 179.707 293.293L183.5 297.086L190.293 290.293C190.683 289.902 191.317 289.902 191.707 290.293Z" fill="#7A7F8D"/>
</g>
<path fill-rule="evenodd" clip-rule="evenodd" d="M137.278 140.148C136.508 138.815 134.583 138.815 133.814 140.148L109.431 182.38C108.661 183.713 109.623 185.38 111.163 185.38H124.855C126.407 213.711 122.523 276.353 94.6216 304.254L142.853 304.254H176.957C149.056 276.353 145.171 213.712 146.724 185.38H159.928C161.468 185.38 162.43 183.713 161.66 182.38L137.278 140.148Z" fill="url(#paint0_radial_127_1334)"/>
<path fill-rule="evenodd" clip-rule="evenodd" d="M137.749 151.849C137.011 150.38 134.913 150.38 134.175 151.849L121.385 177.306C120.716 178.636 121.683 180.204 123.172 180.204H129.806C130.7 198.95 128.464 240.396 112.399 258.857H140.169V258.857H159.805C143.74 240.396 141.504 198.95 142.398 180.204H148.752C150.241 180.204 151.207 178.636 150.539 177.306L137.749 151.849Z" fill="url(#paint1_radial_127_1334)"/>
<path fill-rule="evenodd" clip-rule="evenodd" d="M137.744 160.693C137.061 159.05 134.734 159.05 134.051 160.693L128.115 174.967C127.568 176.284 128.536 177.735 129.962 177.735H132.468C132.966 190.354 131.72 218.255 122.769 230.683H133.709L149.182 230.683C140.232 218.255 138.985 190.354 139.483 177.735H141.833C143.26 177.735 144.228 176.284 143.68 174.967L137.744 160.693Z" fill="url(#paint2_radial_127_1334)"/>
<path fill-rule="evenodd" clip-rule="evenodd" d="M75.1255 187.231C74.3557 185.897 72.4312 185.898 71.6614 187.231L55.1247 215.873C54.3549 217.206 55.3172 218.873 56.8568 218.873H65.7149C66.83 239.222 64.0399 284.214 44 304.254H68.4947V304.255H103.137C83.097 284.215 80.307 239.222 81.4221 218.873H89.9301C91.4697 218.873 92.4319 217.206 91.6621 215.873L75.1255 187.231Z" fill="url(#paint3_radial_127_1334)"/>
<path fill-rule="evenodd" clip-rule="evenodd" d="M75.4795 195.792C74.7412 194.322 72.6436 194.322 71.9053 195.792L63.6325 212.258C62.9643 213.588 63.9312 215.156 65.4196 215.156H69.2711C69.9132 228.62 68.3067 258.388 56.7683 271.647H70.8717L90.8178 271.647C79.2794 258.388 77.6729 228.62 78.315 215.156H81.9652C83.4537 215.156 84.4205 213.588 83.7523 212.258L75.4795 195.792Z" fill="url(#paint4_radial_127_1334)"/>
<path fill-rule="evenodd" clip-rule="evenodd" d="M75.4932 202.393C74.81 200.75 72.4829 200.75 71.7998 202.393L68.3812 210.614C67.8334 211.932 68.8013 213.382 70.2279 213.382H71.183C71.5407 222.446 70.6456 242.486 64.2168 251.412H75.3301V251.412H83.1879C76.7591 242.486 75.864 222.446 76.2218 213.382H77.065C78.4916 213.382 79.4595 211.932 78.9117 210.614L75.4932 202.393Z" fill="url(#paint5_radial_127_1334)"/>
<g filter="url(#filter0_d_127_1334)">
<path d="M77.8313 48.7L88.9913 37.468H96.5513L107.711 48.7H99.4313L92.7713 41.968L86.1113 48.7H77.8313ZM77.8313 55.252V49.672H107.711V55.252H77.8313ZM107.891 62.164C107.891 66.124 105.839 67.924 101.519 67.924H84.0233C79.7033 67.924 77.6513 66.124 77.6513 62.164C77.6513 58.204 79.7033 56.404 84.0233 56.404H101.519C105.839 56.404 107.891 58.204 107.891 62.164ZM92.7713 67.528C92.7713 64 97.3793 62.272 106.379 62.164C97.3793 62.092 92.7713 60.364 92.7713 56.8C92.7713 60.364 88.1273 62.092 79.1273 62.164C88.1273 62.272 92.7713 64 92.7713 67.528ZM111.12 54.172L114.576 43.048H111.12V37.468H132V43.048H128.544L132 54.172H124.62L121.56 43.012L118.5 54.172H111.12ZM133.98 58.564V37.468H141.18V58.564H133.98ZM111.3 56.152H118.5V62.344L127.5 62.308C132.18 62.272 137.22 61.912 141.36 61.264V67.924H111.3V56.152Z" fill="#81DAFF"/>
</g>
<path d="M54.3668 89.096C54.3668 87.344 55.2428 86.036 57.4868 86.036C59.7308 86.036 60.6068 87.344 60.6068 89.096V93.368C60.6068 95.12 59.7308 96.428 57.4868 96.428C55.2428 96.428 54.3668 95.12 54.3668 93.368V89.096ZM62.9468 96.308V86.156H63.6668V96.308H62.9468ZM57.4868 95.804C59.2628 95.804 59.8868 94.796 59.8868 93.368V89.096C59.8868 87.668 59.2628 86.66 57.4868 86.66C55.7108 86.66 55.0868 87.668 55.0868 89.096V93.368C55.0868 94.796 55.7108 95.804 57.4868 95.804ZM57.4868 92.396C57.4388 91.448 57.0908 91.172 56.3108 91.136C57.0908 91.1 57.4388 90.824 57.4868 89.876C57.5348 90.824 57.8708 91.1 58.6628 91.136C57.8708 91.172 57.5348 91.448 57.4868 92.396ZM65.463 86.156H70.623V86.78H68.715L70.623 96.308H69.903L68.043 86.996L66.183 96.308H65.463L67.359 86.78H65.463V86.156ZM70.167 90.416H72.063V86.156H72.783V96.308H72.063V91.04H70.167V90.416ZM74.103 96.308V86.156H74.823V96.308H74.103ZM79.4815 86.156H85.5895V86.78H80.2015V95.684H82.6975C84.0175 95.684 85.2055 95.636 86.2495 95.42V96.044C85.2055 96.26 84.0175 96.308 82.6975 96.308H79.4815V86.156ZM84.0655 90.656H88.0015V86.156H88.7215V96.308H88.0015V91.28H84.0655V90.656ZM93.3799 86.156H94.0999V95.684H96.5959C97.9159 95.684 99.1039 95.636 100.148 95.42V96.044C99.1039 96.26 97.9159 96.308 96.5959 96.308H93.3799V86.156ZM101.42 96.308V86.156H102.14V90.416H103.7V91.04H102.14V96.308H101.42ZM104.476 89.096C104.476 87.344 105.292 86.036 107.536 86.036C109.78 86.036 110.596 87.344 110.596 89.096V93.368C110.596 95.12 109.78 96.428 107.536 96.428C105.292 96.428 104.476 95.12 104.476 93.368V89.096ZM112.576 96.308V86.156H113.296V90.416H114.856V91.04H113.296V96.308H112.576ZM107.536 95.804C109.312 95.804 109.876 94.796 109.876 93.368V89.096C109.876 87.668 109.312 86.66 107.536 86.66C105.76 86.66 105.196 87.668 105.196 89.096V93.368C105.196 94.796 105.76 95.804 107.536 95.804ZM107.536 92.396C107.488 91.448 107.14 91.172 106.36 91.136C107.14 91.1 107.488 90.824 107.536 89.876C107.584 90.824 107.92 91.1 108.712 91.136C107.92 91.172 107.584 91.448 107.536 92.396ZM121.212 90.668H120.468C120.816 89.036 120.984 88.088 121.044 86.78H115.632V86.156H121.812C121.728 88.088 121.56 89.036 121.212 90.668ZM123.732 91.04V86.156H124.452V88.112H126.012V88.736H124.452V91.04H123.732ZM115.812 96.308V93.608H123.732V92.264H115.812V91.64H124.452V94.232H116.532V95.684H124.572V96.308H115.812ZM129.591 96.308V86.156H135.699V86.78H130.311V90.596H135.579V91.22H130.311V95.684H132.807C134.127 95.684 135.315 95.636 136.359 95.42V96.044C135.315 96.26 134.127 96.308 132.807 96.308H129.591ZM137.631 96.308V86.156H138.351V90.416H139.911V91.04H138.351V96.308H137.631ZM140.687 89.096C140.687 87.344 141.563 86.036 143.807 86.036C146.051 86.036 146.927 87.344 146.927 89.096V93.368C146.927 95.12 146.051 96.428 143.807 96.428C141.563 96.428 140.687 95.12 140.687 93.368V89.096ZM149.267 96.308V86.156H149.987V96.308H149.267ZM143.807 95.804C145.583 95.804 146.207 94.796 146.207 93.368V89.096C146.207 87.668 145.583 86.66 143.807 86.66C142.031 86.66 141.407 87.668 141.407 89.096V93.368C141.407 94.796 142.031 95.804 143.807 95.804ZM143.807 92.396C143.759 91.448 143.411 91.172 142.631 91.136C143.411 91.1 143.759 90.824 143.807 89.876C143.855 90.824 144.191 91.1 144.983 91.136C144.191 91.172 143.855 91.448 143.807 92.396ZM158.023 91.028H151.903V86.156H158.023V91.028ZM160.423 91.484V86.156H161.143V91.484H160.423ZM152.623 86.78V90.404H157.303V86.78H152.623ZM151.843 94.256C151.843 92.912 152.671 92.204 154.063 92.204H159.103C160.495 92.204 161.323 92.912 161.323 94.256C161.323 95.6 160.495 96.308 159.103 96.308H154.063C152.671 96.308 151.843 95.6 151.843 94.256ZM152.563 94.256C152.563 95.132 152.995 95.684 154.063 95.684H159.103C160.171 95.684 160.603 95.132 160.603 94.256C160.603 93.38 160.171 92.828 159.103 92.828H154.063C152.995 92.828 152.563 93.38 152.563 94.256ZM163.6 93.284L163.408 86.036H164.224L164.044 93.284H163.6ZM163.816 95C164.14 95 164.452 95.252 164.452 95.648C164.452 96.056 164.14 96.308 163.816 96.308C163.492 96.308 163.18 96.056 163.18 95.648C163.18 95.252 163.492 95 163.816 95ZM51.7905 109.604V108.368H48.9345C48.4425 109.124 47.5065 109.628 46.2705 109.628C44.3865 109.628 43.2105 108.44 43.2105 107.048V106.616C43.2105 105.224 44.3865 104.036 46.2705 104.036C47.4345 104.036 48.3225 104.492 48.8385 105.164H51.7905V104.156H52.5105V109.604H51.7905ZM46.2705 109.004C47.6865 109.004 48.6105 108.116 48.6105 107.048V106.616C48.6105 105.548 47.6865 104.66 46.2705 104.66C44.8545 104.66 43.9305 105.548 43.9305 106.616V107.048C43.9305 108.116 44.8545 109.004 46.2705 109.004ZM46.2705 108.068C46.2225 107.12 45.8745 106.844 45.0945 106.808C45.8745 106.772 46.2225 106.496 46.2705 105.548C46.3185 106.496 46.6545 106.772 47.4465 106.808C46.6545 106.844 46.3185 107.12 46.2705 108.068ZM49.3305 107.048C49.3305 107.288 49.2945 107.528 49.2225 107.744H51.7905V105.788H49.1745C49.2705 106.052 49.3305 106.328 49.3305 106.616V107.048ZM51.7905 114.308V110.948H43.2705V110.324H52.5105V114.308H51.7905ZM54.4268 106.436H59.8148V104.78H54.4268V104.156H60.5348V107.06H55.1468V108.884H57.4028C58.7228 108.884 59.9108 108.8 60.9548 108.668V109.292C59.9108 109.424 58.7228 109.508 57.4028 109.508H54.4268V106.436ZM62.4668 109.964V104.156H63.1868V105.38H64.7468V106.004H63.1868V107.66H64.7468V108.284H63.1868V109.964H62.4668ZM54.3668 112.496C54.3668 111.152 55.1948 110.684 56.5868 110.684H61.1468C62.5388 110.684 63.3668 111.152 63.3668 112.496C63.3668 113.84 62.5388 114.308 61.1468 114.308H56.5868C55.1948 114.308 54.3668 113.84 54.3668 112.496ZM55.0868 112.496C55.0868 113.372 55.5188 113.684 56.5868 113.684H61.1468C62.2148 113.684 62.6468 113.372 62.6468 112.496C62.6468 111.62 62.2148 111.308 61.1468 111.308H56.5868C55.5188 111.308 55.0868 111.62 55.0868 112.496ZM65.403 105.728C65.403 104.744 66.111 104.156 67.143 104.156H73.263C74.295 104.156 75.003 104.744 75.003 105.728C75.003 106.712 74.295 107.3 73.263 107.3H67.143C66.111 107.3 65.403 106.712 65.403 105.728ZM66.123 105.728C66.123 106.244 66.435 106.676 67.143 106.676H73.263C73.971 106.676 74.283 106.244 74.283 105.728C74.283 105.212 73.971 104.78 73.263 104.78H67.143C66.435 104.78 66.123 105.212 66.123 105.728ZM65.463 108.404H74.943V109.028H65.463V108.404ZM65.583 114.308V111.884H74.103V110.816H65.583V110.192H74.823V112.508H66.303V113.684H74.943V114.308H65.583ZM85.4815 114.308H79.4815V104.156H85.4815V114.308ZM87.5215 114.308V104.156H88.2415V108.416H89.8015V109.04H88.2415V114.308H87.5215ZM80.2015 104.78V113.684H84.7615V104.78H80.2015ZM90.4577 105.872C90.4577 104.768 91.1657 104.156 92.3177 104.156H98.1977C99.3497 104.156 100.058 104.768 100.058 105.872C100.058 106.976 99.3497 107.588 98.1977 107.588H92.3177C91.1657 107.588 90.4577 106.976 90.4577 105.872ZM91.1777 105.872C91.1777 106.508 91.4897 106.964 92.3177 106.964H98.1977C99.0257 106.964 99.3377 106.508 99.3377 105.872C99.3377 105.236 99.0257 104.78 98.1977 104.78H92.3177C91.4897 104.78 91.1777 105.236 91.1777 105.872ZM90.5177 108.884H99.9977V109.508H90.5177V108.884ZM90.6377 114.308V110.924H99.8777V114.308H90.6377ZM91.3577 113.684H99.1577V111.548H91.3577V113.684ZM107.554 109.388H106.81C107.158 107.756 107.326 106.088 107.386 104.78H105.334V104.156H108.154C108.118 104.912 108.082 105.62 108.01 106.304H110.314V104.156H111.034V110.444H110.314V106.928H107.95C107.854 107.78 107.722 108.584 107.554 109.388ZM104.314 109.388H103.57C103.918 107.756 104.086 106.088 104.146 104.78H101.734V104.156H104.914C104.83 106.088 104.662 107.756 104.314 109.388ZM101.674 114.308L106.294 110.204H107.086L111.706 114.308H110.77L106.69 110.708L102.61 114.308H101.674ZM115.572 109.184H119.952V107.828H115.692V104.156H116.412V107.204H119.952V104.156H120.672V107.204H124.212V104.156H124.932V107.828H120.672V109.184H125.052V109.808H115.572V109.184ZM118.236 106.916C118.188 105.968 117.84 105.692 117.06 105.656C117.84 105.62 118.188 105.344 118.236 104.396C118.284 105.344 118.62 105.62 119.412 105.656C118.62 105.692 118.284 105.968 118.236 106.916ZM122.508 106.916C122.46 105.968 122.112 105.692 121.332 105.656C122.112 105.62 122.46 105.344 122.508 104.396C122.556 105.344 122.892 105.62 123.684 105.656C122.892 105.692 122.556 105.968 122.508 106.916ZM115.692 114.308V111.044H124.932V114.308H115.692ZM116.412 113.684H124.212V111.668H116.412V113.684ZM135.369 109.04V106.724H133.509V109.04H132.789V104.156H133.509V106.1H135.369V104.156H136.089V109.04H135.369ZM126.849 104.156H127.569V107.744H128.325C129.645 107.744 130.833 107.66 131.877 107.528V108.152C130.833 108.284 129.645 108.368 128.325 108.368H126.849V104.156ZM126.969 114.308V111.608H135.369V110.264H126.969V109.64H136.089V112.232H127.689V113.684H136.209V114.308H126.969ZM146.027 114.308H145.283C145.727 110.996 146.039 107.768 146.099 104.78H140.687V104.156H146.867C146.831 105.716 146.747 107.204 146.639 108.656H149.267V104.156H149.987V114.308H149.267V109.28H146.591C146.447 110.984 146.243 112.628 146.027 114.308ZM151.843 106.376C151.843 104.984 152.719 104.036 154.243 104.036C155.767 104.036 156.643 104.984 156.643 106.376V106.856H158.383V104.156H159.103V114.308H158.383V111.308H156.643V112.088C156.643 113.48 155.767 114.428 154.243 114.428C152.719 114.428 151.843 113.48 151.843 112.088V106.376ZM160.423 114.308V104.156H161.143V114.308H160.423ZM154.243 113.804C155.299 113.804 155.923 113.156 155.923 112.088V106.376C155.923 105.308 155.299 104.66 154.243 104.66C153.187 104.66 152.563 105.308 152.563 106.376V112.088C152.563 113.156 153.187 113.804 154.243 113.804ZM156.643 107.48V110.684H158.383V107.48H156.643ZM154.243 110.396C154.195 109.448 153.847 109.172 153.067 109.136C153.847 109.1 154.195 108.824 154.243 107.876C154.291 108.824 154.627 109.1 155.419 109.136C154.627 109.172 154.291 109.448 154.243 110.396ZM162.88 107.072C162.88 105.368 163.948 104.156 165.58 104.156H169.78C171.412 104.156 172.48 105.368 172.48 107.072C172.48 108.632 171.592 109.772 170.2 109.964V113.684H172.42V114.308H162.94V113.684H165.16V109.964C163.768 109.772 162.88 108.632 162.88 107.072ZM163.6 107.072C163.6 108.308 164.272 109.364 165.58 109.364H169.78C171.088 109.364 171.76 108.308 171.76 107.072C171.76 105.836 171.088 104.78 169.78 104.78H165.58C164.272 104.78 163.6 105.836 163.6 107.072ZM167.68 108.332C167.632 107.384 167.284 107.108 166.504 107.072C167.284 107.036 167.632 106.76 167.68 105.812C167.728 106.76 168.064 107.036 168.856 107.072C168.064 107.108 167.728 107.384 167.68 108.332ZM165.88 109.988V113.684H169.48V109.988H165.88ZM174.756 111.284L174.564 104.036H175.38L175.2 111.284H174.756ZM174.972 113C175.296 113 175.608 113.252 175.608 113.648C175.608 114.056 175.296 114.308 174.972 114.308C174.648 114.308 174.336 114.056 174.336 113.648C174.336 113.252 174.648 113 174.972 113Z" fill="#81DAFF"/>
<rect x="11" y="11" width="198" height="308" rx="15" stroke="url(#paint6_linear_127_1334)" stroke-opacity="0.5" stroke-width="2"/>
<defs>
<filter id="filter0_d_127_1334" x="69.6514" y="29.468" width="79.7087" height="46.4559" filterUnits="userSpaceOnUse" color-interpolation-filters="sRGB">
<feFlood flood-opacity="0" result="BackgroundImageFix"/>
<feColorMatrix in="SourceAlpha" type="matrix" values="0 0 0 0 0 0 0 0 0 0 0 0 0 0 0 0 0 0 127 0" result="hardAlpha"/>
<feOffset/>
<feGaussianBlur stdDeviation="4"/>
<feComposite in2="hardAlpha" operator="out"/>
<feColorMatrix type="matrix" values="0 0 0 0 0.505882 0 0 0 0 0.854902 0 0 0 0 1 0 0 0 0.7 0"/>
<feBlend mode="normal" in2="BackgroundImageFix" result="effect1_dropShadow_127_1334"/>
<feBlend mode="normal" in="SourceGraphic" in2="effect1_dropShadow_127_1334" result="shape"/>
</filter>
<radialGradient id="paint0_radial_127_1334" cx="0" cy="0" r="1" gradientUnits="userSpaceOnUse" gradientTransform="translate(135.789 221.701) rotate(90) scale(82.5533 41.1676)">
<stop stop-color="#81DAFF" stop-opacity="0.68"/>
<stop offset="1" stop-color="#81DAFF" stop-opacity="0"/>
</radialGradient>
<radialGradient id="paint1_radial_127_1334" cx="0" cy="0" r="1" gradientUnits="userSpaceOnUse" gradientTransform="translate(136.102 204.802) rotate(90) scale(54.0549 23.7031)">
<stop stop-color="#81DAFF" stop-opacity="0.68"/>
<stop offset="1" stop-color="#81DAFF" stop-opacity="0"/>
</radialGradient>
<radialGradient id="paint2_radial_127_1334" cx="0" cy="0" r="1" gradientUnits="userSpaceOnUse" gradientTransform="translate(135.976 195.072) rotate(90) scale(35.6109 13.2066)">
<stop stop-color="#81DAFF" stop-opacity="0.68"/>
<stop offset="1" stop-color="#81DAFF" stop-opacity="0"/>
</radialGradient>
<radialGradient id="paint3_radial_127_1334" cx="0" cy="0" r="1" gradientUnits="userSpaceOnUse" gradientTransform="translate(73.5685 245.243) rotate(90) scale(59.0118 29.5685)">
<stop stop-color="#81DAFF" stop-opacity="0.68"/>
<stop offset="1" stop-color="#81DAFF" stop-opacity="0"/>
</radialGradient>
<radialGradient id="paint4_radial_127_1334" cx="0" cy="0" r="1" gradientUnits="userSpaceOnUse" gradientTransform="translate(73.793 233.169) rotate(90) scale(38.4788 17.0247)">
<stop stop-color="#81DAFF" stop-opacity="0.68"/>
<stop offset="1" stop-color="#81DAFF" stop-opacity="0"/>
</radialGradient>
<radialGradient id="paint5_radial_127_1334" cx="0" cy="0" r="1" gradientUnits="userSpaceOnUse" gradientTransform="translate(73.7024 226.286) rotate(90) scale(25.1253 9.48556)">
<stop stop-color="#81DAFF" stop-opacity="0.68"/>
<stop offset="1" stop-color="#81DAFF" stop-opacity="0"/>
</radialGradient>
<linearGradient id="paint6_linear_127_1334" x1="15.5" y1="10" x2="210" y2="320" gradientUnits="userSpaceOnUse">
<stop stop-color="#2E7694" stop-opacity="0.44"/>
<stop offset="0.307292" stop-color="#81DAFF"/>
<stop offset="1" stop-color="#81DAFF" stop-opacity="0.06"/>
</linearGradient>
<clipPath id="clip0_127_1334">
<rect width="30" height="30" fill="white" transform="translate(170 280)"/>
</clipPath>
</defs>
</svg>
