<svg width="51" height="50" viewBox="0 0 51 50" fill="none" xmlns="http://www.w3.org/2000/svg">
  <g filter="url(#filter0_bi_528_3238)">
  <circle cx="25.5" cy="25" r="25" fill="#386085" fill-opacity="0.04"/>
  </g>
  <path fill-rule="evenodd" clip-rule="evenodd" d="M38.3785 17.3277C37.4032 16.3525 36.0137 15.87 34.686 15.9759C34.7918 14.6482 34.3094 13.2586 33.3342 12.2834C31.608 10.5572 28.8965 10.5559 27.1718 12.2806C26.3114 13.141 25.8306 14.2516 25.5809 15.6366C25.3316 14.2518 24.8508 13.1411 23.9903 12.2806C22.2656 10.5559 19.5542 10.5572 17.8279 12.2834C16.8527 13.2586 16.3703 14.6482 16.4761 15.9759C15.1485 15.87 13.7589 16.3524 12.7837 17.3277C11.0574 19.0539 11.0562 21.7654 12.7809 23.49C13.6411 24.3503 14.7514 24.831 16.136 25.0808C14.7514 25.3306 13.6411 25.8113 12.7809 26.6716C11.0562 28.3963 11.0574 31.1077 12.7837 32.834C13.7589 33.8092 15.1485 34.2916 16.4761 34.1858C16.3703 35.5134 16.8527 36.903 17.8279 37.8782C19.5542 39.6045 22.2656 39.6057 23.9903 37.881C24.8515 37.0198 25.3323 35.9081 25.5815 34.5217C25.8311 35.9084 26.3119 37.02 27.173 37.8811C28.8977 39.6058 31.6092 39.6046 33.3354 37.8783C34.3107 36.9031 34.7931 35.5136 34.6872 34.1859C36.0149 34.2917 37.4045 33.8093 38.3797 32.8341C40.1059 31.1078 40.1072 28.3964 38.3825 26.6717C37.5216 25.8108 36.4104 25.33 35.0247 25.0808C36.4098 24.8315 37.5206 24.3507 38.3813 23.4901C40.1059 21.7654 40.1047 19.0539 38.3785 17.3277ZM25.5822 25.0809L25.5811 25.0809L25.5817 25.0924L25.5822 25.0809Z" fill="url(#paint0_radial_528_3238)"/>
  <path fill-rule="evenodd" clip-rule="evenodd" d="M33.6805 20.0926C33.0571 19.4692 32.1689 19.1609 31.3203 19.2285C31.388 18.3799 31.0796 17.4917 30.4562 16.8684C29.3528 15.7649 27.6197 15.7642 26.5173 16.8666C25.9672 17.4167 25.6598 18.1268 25.5002 19.0124C25.3409 18.127 25.0336 17.4169 24.4835 16.8668C23.381 15.7644 21.6479 15.7652 20.5445 16.8686C19.9211 17.4919 19.6128 18.3801 19.6804 19.2288C18.8318 19.1611 17.9436 19.4695 17.3203 20.0928C16.2168 21.1962 16.2161 22.9294 17.3185 24.0318C17.8682 24.5815 18.5777 24.8888 19.4625 25.0485C18.5775 25.2082 17.8679 25.5154 17.3181 26.0653C16.2157 27.1677 16.2165 28.9008 17.3199 30.0042C17.9432 30.6276 18.8314 30.9359 19.6801 30.8683C19.6124 31.7169 19.9208 32.6051 20.5441 33.2285C21.6475 34.3319 23.3807 34.3327 24.4831 33.2302C25.0328 32.6805 25.3401 31.9711 25.4995 31.0866C25.6592 31.9712 25.9665 32.6806 26.5162 33.2303C27.6186 34.3327 29.3517 34.3319 30.4551 33.2285C31.0785 32.6052 31.3869 31.717 31.3192 30.8683C32.1678 30.936 33.056 30.6276 33.6794 30.0043C34.7828 28.9009 34.7836 27.1677 33.6812 26.0653C33.1311 25.5152 32.421 25.2079 31.5356 25.0485C32.4215 24.8892 33.1319 24.5819 33.6823 24.0315C34.7847 22.9291 34.7839 21.196 33.6805 20.0926ZM25.5011 25.0484L25.5005 25.0484L25.5004 25.0467L25.5003 25.0484L25.5011 25.0484Z" fill="url(#paint1_radial_528_3238)"/>
  <path fill-rule="evenodd" clip-rule="evenodd" d="M30.2025 22.1517C29.8442 21.7934 29.3336 21.6161 28.8458 21.655C28.8847 21.1672 28.7075 20.6567 28.3492 20.2984C27.715 19.6642 26.7188 19.6637 26.0851 20.2974C25.7682 20.6144 25.5914 21.0237 25.4999 21.5345C25.4085 21.0238 25.2317 20.6145 24.9148 20.2975C24.2811 19.6638 23.2849 19.6643 22.6507 20.2985C22.2924 20.6568 22.1152 21.1673 22.154 21.6551C21.6663 21.6162 21.1557 21.7935 20.7974 22.1518C20.1632 22.786 20.1628 23.7822 20.7964 24.4159C21.1123 24.7318 21.52 24.9084 22.0284 25.0002C21.52 25.092 21.1123 25.2686 20.7964 25.5845C20.1628 26.2182 20.1632 27.2144 20.7974 27.8486C21.1557 28.2069 21.6663 28.3841 22.154 28.3452C22.1152 28.833 22.2924 29.3435 22.6507 29.7018C23.2849 30.3361 24.2811 30.3365 24.9148 29.7029C25.2312 29.3865 25.4078 28.978 25.4994 28.4686C25.5911 28.9781 25.7677 29.3866 26.0841 29.703C26.7178 30.3367 27.714 30.3362 28.3482 29.702C28.7065 29.3437 28.8838 28.8332 28.8449 28.3454C29.3327 28.3843 29.8432 28.2071 30.2015 27.8488C30.8357 27.2145 30.8362 26.2183 30.2025 25.5847C29.8864 25.2685 29.4783 25.0919 28.9695 25.0003C29.4788 24.9087 29.8871 24.7321 30.2035 24.4157C30.8371 23.7821 30.8367 22.7859 30.2025 22.1517ZM25.5007 25.0002L25.4999 24.9857L25.4992 25.0002L25.4995 25.0048L25.4997 25.0002L25.5007 25.0002Z" fill="url(#paint2_radial_528_3238)"/>
  <defs>
  <filter id="filter0_bi_528_3238" x="-59.5" y="-60" width="170" height="170" filterUnits="userSpaceOnUse" color-interpolation-filters="sRGB">
  <feFlood flood-opacity="0" result="BackgroundImageFix"/>
  <feGaussianBlur in="BackgroundImageFix" stdDeviation="30"/>
  <feComposite in2="SourceAlpha" operator="in" result="effect1_backgroundBlur_528_3238"/>
  <feBlend mode="normal" in="SourceGraphic" in2="effect1_backgroundBlur_528_3238" result="shape"/>
  <feColorMatrix in="SourceAlpha" type="matrix" values="0 0 0 0 0 0 0 0 0 0 0 0 0 0 0 0 0 0 127 0" result="hardAlpha"/>
  <feOffset/>
  <feGaussianBlur stdDeviation="4"/>
  <feComposite in2="hardAlpha" operator="arithmetic" k2="-1" k3="1"/>
  <feColorMatrix type="matrix" values="0 0 0 0 0.883333 0 0 0 0 0.916 0 0 0 0 1 0 0 0 0.5 0"/>
  <feBlend mode="normal" in2="shape" result="effect2_innerShadow_528_3238"/>
  </filter>
  <radialGradient id="paint0_radial_528_3238" cx="0" cy="0" r="1" gradientUnits="userSpaceOnUse" gradientTransform="translate(25.5814 25.0811) rotate(135) scale(14.5314 14.5319)">
  <stop stop-color="#BFE373" stop-opacity="0.77"/>
  <stop offset="1" stop-color="#BFE373" stop-opacity="0"/>
  </radialGradient>
  <radialGradient id="paint1_radial_528_3238" cx="0" cy="0" r="1" gradientUnits="userSpaceOnUse" gradientTransform="translate(25.5001 25.0483) rotate(135) scale(9.28863 9.28805)">
  <stop stop-color="#BFE373" stop-opacity="0.77"/>
  <stop offset="1" stop-color="#BFE373" stop-opacity="0"/>
  </radialGradient>
  <radialGradient id="paint2_radial_528_3238" cx="0" cy="0" r="1" gradientUnits="userSpaceOnUse" gradientTransform="translate(25.4998 25) rotate(135) scale(5.33934 5.33901)">
  <stop stop-color="#BFE373" stop-opacity="0.77"/>
  <stop offset="1" stop-color="#BFE373" stop-opacity="0"/>
  </radialGradient>
  </defs>
  </svg>
  