<svg width="270" height="400" viewBox="0 0 270 400" fill="none" xmlns="http://www.w3.org/2000/svg">
<rect width="270" height="400" rx="24" fill="#32363A"/>
<g filter="url(#filter0_d_122_2245)">
<path d="M92.535 59.896L97.143 45.064H92.535V37.624H120.375V45.064H115.767L120.375 59.896H110.535L106.455 45.016L102.375 59.896H92.535ZM123.015 65.752V37.624H132.615V65.752H123.015ZM92.775 62.536H102.375V70.792L114.375 70.744C120.615 70.696 127.335 70.216 132.855 69.352V78.232H92.775V62.536ZM137.4 44.824V37.624H177.24V54.904H147V58.504C158.712 58.504 167.256 58.168 177.24 57.208V65.704H162.36V70.792H177.24V78.232H137.4V70.792H152.28V65.704H137.4V47.992H167.64V44.824H137.4Z" fill="#3AE5DB"/>
</g>
<path d="M69.9593 102.343C69.9593 101.147 70.7263 100.419 71.9743 100.419H75.4843C76.7323 100.419 77.4993 101.147 77.4993 102.343C77.4993 103.539 76.7323 104.267 75.4843 104.267H71.9743C70.7263 104.267 69.9593 103.539 69.9593 102.343ZM79.3843 109.207V107.712H76.0043V107.036H79.3843V100.419H80.1643V109.207H79.3843ZM70.7393 102.343C70.7393 103.032 71.0773 103.591 71.9743 103.591H75.4843C76.3813 103.591 76.7193 103.032 76.7193 102.343C76.7193 101.654 76.3813 101.095 75.4843 101.095H71.9743C71.0773 101.095 70.7393 101.654 70.7393 102.343ZM70.0243 106.217V105.541H77.5643V106.217H74.0543V108.427H73.2743V106.217H70.0243ZM71.0643 108.531V110.741H80.2943V111.417H70.2843V108.531H71.0643ZM81.9802 101.329H85.2302V100.029H86.0102V101.329H89.2602V102.005H81.9802V101.329ZM90.9502 111.417V100.419H91.7302V105.034H93.4202V105.71H91.7302V111.417H90.9502ZM82.3052 106.204C82.3052 104.306 83.1892 102.889 85.6202 102.889C88.0512 102.889 88.9352 104.306 88.9352 106.204V108.232C88.9352 110.13 88.0512 111.547 85.6202 111.547C83.1892 111.547 82.3052 110.13 82.3052 108.232V106.204ZM85.6202 110.871C87.5442 110.871 88.1552 109.779 88.1552 108.232V106.204C88.1552 104.657 87.5442 103.565 85.6202 103.565C83.6962 103.565 83.0852 104.657 83.0852 106.204V108.232C83.0852 109.779 83.6962 110.871 85.6202 110.871ZM85.6202 108.479C85.5682 107.452 85.1912 107.153 84.3462 107.114C85.1912 107.075 85.5682 106.776 85.6202 105.749C85.6722 106.776 86.0362 107.075 86.8942 107.114C86.0362 107.153 85.6722 107.452 85.6202 108.479ZM95.1061 100.419V103.851H104.401V104.527H94.3261V100.419H95.1061ZM94.1961 106.256H104.466V106.932H94.1961V106.256ZM95.2361 108.531V110.741H104.466V111.417H94.4561V108.531H95.2361ZM118.912 104.657H118.106C118.418 103.292 118.561 102.499 118.626 101.095H109.318V100.419H119.458C119.38 102.499 119.237 103.292 118.912 104.657ZM109.253 105.801H113.348V102.954H114.128V105.801H119.523V106.477H109.253V105.801ZM109.214 111.417L113.959 107.101H114.817L119.562 111.417H118.548L114.388 107.595L110.228 111.417H109.214ZM121.404 102.824C121.404 101.316 122.353 100.289 124.004 100.289C125.655 100.289 126.604 101.316 126.604 102.824V105.034H128.489V100.419H129.269V111.417H128.489V105.71H126.604V109.012C126.604 110.52 125.655 111.547 124.004 111.547C122.353 111.547 121.404 110.52 121.404 109.012V102.824ZM130.699 111.417V100.419H131.479V111.417H130.699ZM124.004 110.871C125.148 110.871 125.824 110.169 125.824 109.012V102.824C125.824 101.667 125.148 100.965 124.004 100.965C122.86 100.965 122.184 101.667 122.184 102.824V109.012C122.184 110.169 122.86 110.871 124.004 110.871ZM124.004 107.179C123.952 106.152 123.575 105.853 122.73 105.814C123.575 105.775 123.952 105.476 124.004 104.449C124.056 105.476 124.42 105.775 125.278 105.814C124.42 105.853 124.056 106.152 124.004 107.179ZM136.265 101.199H139.645V100.029H140.425V101.199H143.805V101.875H140.854L143.675 105.502H142.869L140.048 101.875H140.022L137.201 105.502H136.395L139.216 101.875H136.265V101.199ZM145.755 111.417V100.419H146.535V111.417H145.755ZM136.395 107.712V107.036H143.935V107.712H140.425V111.417H139.645V107.712H136.395ZM157.841 105.931V103.227H155.176V103.357C155.176 104.865 153.902 105.957 151.861 105.957C149.82 105.957 148.546 104.865 148.546 103.357V102.889C148.546 101.381 149.82 100.289 151.861 100.289C153.746 100.289 154.981 101.225 155.15 102.551H157.841V100.419H158.621V105.931H157.841ZM151.861 105.281C153.395 105.281 154.396 104.514 154.396 103.357V102.889C154.396 101.732 153.395 100.965 151.861 100.965C150.327 100.965 149.326 101.732 149.326 102.889V103.357C149.326 104.514 150.327 105.281 151.861 105.281ZM151.861 104.462C151.809 103.435 151.432 103.136 150.587 103.097C151.432 103.058 151.809 102.759 151.861 101.732C151.913 102.759 152.277 103.058 153.135 103.097C152.277 103.136 151.913 103.435 151.861 104.462ZM149.521 106.581V108.141H157.841V106.581H158.621V111.417H148.741V106.581H149.521ZM157.841 110.741V108.817H149.521V110.741H157.841ZM160.502 102.538C160.502 101.212 161.399 100.419 162.647 100.419H168.757C170.005 100.419 170.902 101.212 170.902 102.538C170.902 103.864 170.005 104.657 168.757 104.657H162.647C161.399 104.657 160.502 103.864 160.502 102.538ZM161.282 102.538C161.282 103.357 161.75 103.981 162.647 103.981H168.757C169.654 103.981 170.122 103.357 170.122 102.538C170.122 101.719 169.654 101.095 168.757 101.095H162.647C161.75 101.095 161.282 101.719 161.282 102.538ZM160.567 106.321H170.837V106.997H160.567V106.321ZM161.607 108.531V110.741H170.837V111.417H160.827V108.531H161.607ZM175.754 103.812V100.419H185.764V103.812H175.754ZM176.534 103.136H184.984V101.095H176.534V103.136ZM175.624 104.891H185.894V105.567H181.149V106.958H185.764V109.467H176.534V110.741H185.894V111.417H175.754V108.791H184.984V107.634H175.754V106.958H180.369V105.567H175.624V104.891ZM187.84 105.437V102.59H197.07V101.095H187.84V100.419H197.85V103.266H188.62V104.761H197.915V105.437H193.235V107.101H197.98V107.777H187.71V107.101H192.455V105.437H187.84ZM188.75 108.921V110.741H197.98V111.417H187.97V108.921H188.75ZM62.2514 126.737V120.419H72.2614V126.737H67.6464V130.741H72.3914V131.417H62.1214V130.741H66.8664V126.737H62.2514ZM63.0314 126.061H71.4814V121.095H63.0314V126.061ZM74.3374 124.657V120.419H84.3474V121.095H75.1174V123.981H84.4124V124.657H74.3374ZM74.2074 126.321H84.4774V126.997H74.2074V126.321ZM75.2474 128.531V130.741H84.4774V131.417H74.4674V128.531H75.2474ZM89.264 124.891H92.657C93.008 123.526 93.242 122.148 93.307 121.095H89.329V120.419H94.139C94.048 122.083 93.814 123.513 93.463 124.891H97.987C98.338 123.526 98.572 122.148 98.637 121.095H94.659V120.419H99.469C99.378 122.083 99.144 123.513 98.793 124.891H99.534V125.567H94.789V127.361H99.404V131.417H89.394V127.361H94.009V125.567H89.264V124.891ZM90.174 130.741H98.624V128.037H90.174V130.741ZM101.415 123.604C101.415 121.706 102.364 120.289 104.795 120.289C107.226 120.289 108.175 121.706 108.175 123.604V128.232C108.175 130.13 107.226 131.547 104.795 131.547C102.364 131.547 101.415 130.13 101.415 128.232V123.604ZM110.71 131.417V120.419H111.49V131.417H110.71ZM104.795 130.871C106.719 130.871 107.395 129.779 107.395 128.232V123.604C107.395 122.057 106.719 120.965 104.795 120.965C102.871 120.965 102.195 122.057 102.195 123.604V128.232C102.195 129.779 102.871 130.871 104.795 130.871ZM104.795 127.179C104.743 126.152 104.366 125.853 103.521 125.814C104.366 125.775 104.743 125.476 104.795 124.449C104.847 125.476 105.211 125.775 106.069 125.814C105.211 125.853 104.847 126.152 104.795 127.179ZM116.472 123.604C116.472 121.706 117.421 120.289 119.852 120.289C122.283 120.289 123.232 121.706 123.232 123.604V128.232C123.232 130.13 122.283 131.547 119.852 131.547C117.421 131.547 116.472 130.13 116.472 128.232V123.604ZM125.767 131.417V120.419H126.547V131.417H125.767ZM119.852 130.871C121.776 130.871 122.452 129.779 122.452 128.232V123.604C122.452 122.057 121.776 120.965 119.852 120.965C117.928 120.965 117.252 122.057 117.252 123.604V128.232C117.252 129.779 117.928 130.871 119.852 130.871ZM119.852 127.179C119.8 126.152 119.423 125.853 118.578 125.814C119.423 125.775 119.8 125.476 119.852 124.449C119.904 125.476 120.268 125.775 121.126 125.814C120.268 125.853 119.904 126.152 119.852 127.179ZM128.623 125.788V122.707H137.853V121.095H128.623V120.419H138.633V123.383H129.403V125.112H138.698V125.788H128.623ZM128.493 127.361H138.763V128.037H134.018V131.417H133.238V128.037H128.493V127.361ZM140.643 123.604C140.643 121.706 141.527 120.289 143.958 120.289C146.389 120.289 147.273 121.706 147.273 123.604V125.294H149.938V120.419H150.718V131.417H149.938V125.97H147.273V128.232C147.273 130.13 146.389 131.547 143.958 131.547C141.527 131.547 140.643 130.13 140.643 128.232V123.604ZM143.958 130.871C145.882 130.871 146.493 129.779 146.493 128.232V123.604C146.493 122.057 145.882 120.965 143.958 120.965C142.034 120.965 141.423 122.057 141.423 123.604V128.232C141.423 129.779 142.034 130.871 143.958 130.871ZM143.958 127.179C143.906 126.152 143.529 125.853 142.684 125.814C143.529 125.775 143.906 125.476 143.958 124.449C144.01 125.476 144.374 125.775 145.232 125.814C144.374 125.853 144.01 126.152 143.958 127.179ZM152.729 125.372L155.511 121.095H152.729V120.419H159.879V121.095H157.097L159.879 125.372H159.073L156.304 121.121L153.535 125.372H152.729ZM162.024 125.71V120.419H162.804V125.71H162.024ZM152.924 131.417V128.492H162.024V127.036H152.924V126.36H162.804V129.168H153.704V130.741H162.934V131.417H152.924ZM173.571 131.417H172.765C173.246 127.829 173.584 124.332 173.649 121.095H167.786V120.419H174.481C174.442 122.109 174.351 123.721 174.234 125.294H177.081V120.419H177.861V131.417H177.081V125.97H174.182C174.026 127.816 173.805 129.597 173.571 131.417ZM179.872 122.824C179.872 121.316 180.821 120.289 182.472 120.289C184.123 120.289 185.072 121.316 185.072 122.824V123.344H186.957V120.419H187.737V131.417H186.957V128.167H185.072V129.012C185.072 130.52 184.123 131.547 182.472 131.547C180.821 131.547 179.872 130.52 179.872 129.012V122.824ZM189.167 131.417V120.419H189.947V131.417H189.167ZM182.472 130.871C183.616 130.871 184.292 130.169 184.292 129.012V122.824C184.292 121.667 183.616 120.965 182.472 120.965C181.328 120.965 180.652 121.667 180.652 122.824V129.012C180.652 130.169 181.328 130.871 182.472 130.871ZM185.072 124.02V127.491H186.957V124.02H185.072ZM182.472 127.179C182.42 126.152 182.043 125.853 181.198 125.814C182.043 125.775 182.42 125.476 182.472 124.449C182.524 125.476 182.888 125.775 183.746 125.814C182.888 125.853 182.524 126.152 182.472 127.179ZM191.828 123.578C191.828 121.732 192.985 120.419 194.753 120.419H199.303C201.071 120.419 202.228 121.732 202.228 123.578C202.228 125.268 201.266 126.503 199.758 126.711V130.741H202.163V131.417H191.893V130.741H194.298V126.711C192.79 126.503 191.828 125.268 191.828 123.578ZM192.608 123.578C192.608 124.917 193.336 126.061 194.753 126.061H199.303C200.72 126.061 201.448 124.917 201.448 123.578C201.448 122.239 200.72 121.095 199.303 121.095H194.753C193.336 121.095 192.608 122.239 192.608 123.578ZM197.028 124.943C196.976 123.916 196.599 123.617 195.754 123.578C196.599 123.539 196.976 123.24 197.028 122.213C197.08 123.24 197.444 123.539 198.302 123.578C197.444 123.617 197.08 123.916 197.028 124.943ZM195.078 126.737V130.741H198.978V126.737H195.078ZM204.694 128.141L204.486 120.289H205.37L205.175 128.141H204.694ZM204.928 130C205.279 130 205.617 130.273 205.617 130.702C205.617 131.144 205.279 131.417 204.928 131.417C204.577 131.417 204.239 131.144 204.239 130.702C204.239 130.273 204.577 130 204.928 130Z" fill="#3AE5DB"/>
<path d="M134.5 154L161.105 235.881H247.2L177.548 286.487L204.153 368.369L134.5 317.763L64.8475 368.369L91.4524 286.487L21.7998 235.881H107.895L134.5 154Z" fill="url(#paint0_radial_122_2245)"/>
<path d="M134.5 201.008L150.551 250.746H202.493L160.471 281.486L176.522 331.224L134.5 300.484L92.4782 331.224L108.529 281.486L66.5074 250.746H118.449L134.5 201.008Z" fill="url(#paint1_radial_122_2245)"/>
<path d="M134.5 234.306L143.075 260.697H170.825L148.375 277.008L156.95 303.4L134.5 287.089L112.05 303.4L120.625 277.008L98.1751 260.697H125.925L134.5 234.306Z" fill="url(#paint2_radial_122_2245)"/>
<rect x="11" y="11" width="248" height="378" rx="15" stroke="url(#paint3_linear_122_2245)" stroke-opacity="0.5" stroke-width="2"/>
<defs>
<filter id="filter0_d_122_2245" x="84.535" y="29.624" width="100.705" height="56.6079" filterUnits="userSpaceOnUse" color-interpolation-filters="sRGB">
<feFlood flood-opacity="0" result="BackgroundImageFix"/>
<feColorMatrix in="SourceAlpha" type="matrix" values="0 0 0 0 0 0 0 0 0 0 0 0 0 0 0 0 0 0 127 0" result="hardAlpha"/>
<feOffset/>
<feGaussianBlur stdDeviation="4"/>
<feComposite in2="hardAlpha" operator="out"/>
<feColorMatrix type="matrix" values="0 0 0 0 0.227451 0 0 0 0 0.898039 0 0 0 0 0.858824 0 0 0 0.7 0"/>
<feBlend mode="normal" in2="BackgroundImageFix" result="effect1_dropShadow_122_2245"/>
<feBlend mode="normal" in="SourceGraphic" in2="effect1_dropShadow_122_2245" result="shape"/>
</filter>
<radialGradient id="paint0_radial_122_2245" cx="0" cy="0" r="1" gradientUnits="userSpaceOnUse" gradientTransform="translate(134.5 272.5) rotate(90) scale(105.539)">
<stop stop-color="#3AE5DB" stop-opacity="0.58"/>
<stop offset="1" stop-color="#3AE5DB" stop-opacity="0"/>
</radialGradient>
<radialGradient id="paint1_radial_122_2245" cx="0" cy="0" r="1" gradientUnits="userSpaceOnUse" gradientTransform="translate(134.5 272.99) rotate(90) scale(64.1084 63.6723)">
<stop stop-color="#3AE5DB" stop-opacity="0.58"/>
<stop offset="1" stop-color="#3AE5DB" stop-opacity="0"/>
</radialGradient>
<radialGradient id="paint2_radial_122_2245" cx="0" cy="0" r="1" gradientUnits="userSpaceOnUse" gradientTransform="translate(134.5 272.5) rotate(90) scale(34.0167)">
<stop stop-color="#3AE5DB" stop-opacity="0.58"/>
<stop offset="1" stop-color="#3AE5DB" stop-opacity="0"/>
</radialGradient>
<linearGradient id="paint3_linear_122_2245" x1="16.875" y1="10" x2="253.239" y2="394.16" gradientUnits="userSpaceOnUse">
<stop stop-color="#23625E" stop-opacity="0.51"/>
<stop offset="0.307292" stop-color="#3AE5DB"/>
<stop offset="1" stop-color="#ACFFFA" stop-opacity="0.01"/>
</linearGradient>
</defs>
</svg>
