<svg width="270" height="400" viewBox="0 0 270 400" fill="none" xmlns="http://www.w3.org/2000/svg">
<rect width="270" height="400" rx="24" fill="#32363A"/>
<g filter="url(#filter0_d_122_2240)">
<path d="M123.015 65.752V53.416H118.311C118.071 55.672 117.783 57.928 117.495 60.04H107.415C108.135 55.528 108.807 49.864 109.095 45.208H92.535V37.624H119.415C119.319 40.216 119.175 42.76 119.031 45.256H123.015V37.624H132.615V65.752H123.015ZM92.775 62.536H102.375V70.792L114.375 70.744C120.615 70.696 127.335 70.216 132.855 69.352V78.232H92.775V62.536ZM162.12 58.552H152.04C152.76 54.328 153.432 49.432 153.72 45.064H137.16V37.624H164.04C163.752 44.968 163.128 52.072 162.12 58.552ZM166.2 58.456V37.624H175.8V43.576H180.12V51.736H175.8V58.456H166.2ZM176.04 69.064C176.04 74.344 173.064 78.232 167.304 78.232H145.896C140.136 78.232 137.16 74.344 137.16 69.064C137.16 63.784 140.136 59.896 145.896 59.896H167.304C173.064 59.896 176.04 63.784 176.04 69.064ZM156.6 60.808C156.456 65.368 154.056 68.92 141.672 69.064C154.056 69.256 156.456 72.808 156.6 77.32C156.696 72.808 159.144 69.256 171.528 69.064C159.144 68.92 156.696 65.368 156.6 60.808Z" fill="#31D84B"/>
</g>
<path d="M77.1322 103.604C77.1322 101.706 78.0162 100.289 80.4472 100.289C82.8782 100.289 83.7622 101.706 83.7622 103.604V108.232C83.7622 110.13 82.8782 111.547 80.4472 111.547C78.0162 111.547 77.1322 110.13 77.1322 108.232V103.604ZM85.9072 111.417V100.419H86.6872V105.034H88.3772V105.71H86.6872V111.417H85.9072ZM80.4472 110.871C82.3712 110.871 82.9822 109.779 82.9822 108.232V103.604C82.9822 102.057 82.3712 100.965 80.4472 100.965C78.5232 100.965 77.9122 102.057 77.9122 103.604V108.232C77.9122 109.779 78.5232 110.871 80.4472 110.871ZM80.4472 107.179C80.3952 106.152 80.0182 105.853 79.1732 105.814C80.0182 105.775 80.3952 105.476 80.4472 104.449C80.4992 105.476 80.8632 105.775 81.7212 105.814C80.8632 105.853 80.4992 106.152 80.4472 107.179ZM89.1532 104.241H96.1472L96.7062 101.095H89.2182V100.419H99.3582V101.095H97.4862L96.9272 104.241H99.4232V104.917H89.1532V104.241ZM91.7532 103.968C91.7012 102.941 91.3242 102.642 90.4792 102.603C91.3242 102.564 91.7012 102.265 91.7532 101.238C91.8052 102.265 92.1692 102.564 93.0272 102.603C92.1692 102.642 91.8052 102.941 91.7532 103.968ZM89.1532 106.581H99.4232V107.257H89.1532V106.581ZM90.1932 108.661V110.741H99.4232V111.417H89.4132V108.661H90.1932ZM113.869 104.657H113.063C113.375 103.292 113.518 102.499 113.583 101.095H104.275V100.419H114.415C114.337 102.499 114.194 103.292 113.869 104.657ZM104.21 105.801H108.305V102.954H109.085V105.801H114.48V106.477H104.21V105.801ZM104.171 111.417L108.916 107.101H109.774L114.519 111.417H113.505L109.345 107.595L105.185 111.417H104.171ZM128.626 105.931V103.227H125.961V103.357C125.961 104.865 124.687 105.957 122.646 105.957C120.605 105.957 119.331 104.865 119.331 103.357V102.889C119.331 101.381 120.605 100.289 122.646 100.289C124.531 100.289 125.766 101.225 125.935 102.551H128.626V100.419H129.406V105.931H128.626ZM122.646 105.281C124.18 105.281 125.181 104.514 125.181 103.357V102.889C125.181 101.732 124.18 100.965 122.646 100.965C121.112 100.965 120.111 101.732 120.111 102.889V103.357C120.111 104.514 121.112 105.281 122.646 105.281ZM122.646 104.462C122.594 103.435 122.217 103.136 121.372 103.097C122.217 103.058 122.594 102.759 122.646 101.732C122.698 102.759 123.062 103.058 123.92 103.097C123.062 103.136 122.698 103.435 122.646 104.462ZM120.306 106.581V108.141H123.686V106.581H124.466V111.417H119.526V106.581H120.306ZM124.817 111.417L127.157 106.581H128.015L130.355 111.417H129.536L127.586 107.192L125.636 111.417H124.817ZM123.686 110.741V108.817H120.306V110.741H123.686ZM131.417 103.604C131.417 101.706 132.366 100.289 134.797 100.289C137.228 100.289 138.177 101.706 138.177 103.604V108.232C138.177 110.13 137.228 111.547 134.797 111.547C132.366 111.547 131.417 110.13 131.417 108.232V103.604ZM140.712 111.417V100.419H141.492V111.417H140.712ZM134.797 110.871C136.721 110.871 137.397 109.779 137.397 108.232V103.604C137.397 102.057 136.721 100.965 134.797 100.965C132.873 100.965 132.197 102.057 132.197 103.604V108.232C132.197 109.779 132.873 110.871 134.797 110.871ZM134.797 107.179C134.745 106.152 134.368 105.853 133.523 105.814C134.368 105.775 134.745 105.476 134.797 104.449C134.849 105.476 135.213 105.775 136.071 105.814C135.213 105.853 134.849 106.152 134.797 107.179ZM146.539 105.177V100.419H156.549V105.177H146.539ZM147.319 104.501H155.769V101.095H147.319V104.501ZM146.409 106.841H156.679V107.517H151.934V111.417H151.154V107.517H146.409V106.841ZM165.242 102.603V103.279H159.405V104.956H161.849C163.279 104.956 164.566 104.865 165.697 104.722V105.398C164.566 105.541 163.279 105.632 161.849 105.632H158.625V100.419H165.242V101.095H159.405V102.603H165.242ZM167.335 106.1V100.419H168.115V102.798H169.805V103.474H168.115V106.1H167.335ZM158.755 111.417V108.687H167.335V107.426H158.755V106.75H168.115V109.363H159.535V110.741H168.245V111.417H158.755ZM170.451 101.329H173.701V100.029H174.481V101.329H177.731V102.005H170.451V101.329ZM179.421 111.417V100.419H180.201V105.034H181.891V105.71H180.201V111.417H179.421ZM170.776 106.204C170.776 104.306 171.66 102.889 174.091 102.889C176.522 102.889 177.406 104.306 177.406 106.204V108.232C177.406 110.13 176.522 111.547 174.091 111.547C171.66 111.547 170.776 110.13 170.776 108.232V106.204ZM174.091 110.871C176.015 110.871 176.626 109.779 176.626 108.232V106.204C176.626 104.657 176.015 103.565 174.091 103.565C172.167 103.565 171.556 104.657 171.556 106.204V108.232C171.556 109.779 172.167 110.871 174.091 110.871ZM174.091 108.479C174.039 107.452 173.662 107.153 172.817 107.114C173.662 107.075 174.039 106.776 174.091 105.749C174.143 106.776 174.507 107.075 175.365 107.114C174.507 107.153 174.143 107.452 174.091 108.479ZM187.087 111.417H186.281C186.762 107.829 187.1 104.332 187.165 101.095H182.732V100.419H187.997C187.958 102.018 187.88 103.552 187.763 105.034H189.817V100.419H190.597V111.417H189.817V105.71H187.711C187.555 107.647 187.334 109.519 187.087 111.417ZM192.027 111.417V100.419H192.807V111.417H192.027ZM81.1203 121.069H84.3703V119.899H85.1503V121.069H88.4003V121.745H81.1203V121.069ZM90.0903 128.817V120.419H90.8703V123.734H92.5603V124.41H90.8703V128.817H90.0903ZM81.3153 124.878C81.3153 123.552 82.2123 122.564 83.5903 122.564H85.9303C87.3083 122.564 88.2053 123.552 88.2053 124.878C88.2053 126.204 87.3083 127.192 85.9303 127.192H83.5903C82.2123 127.192 81.3153 126.204 81.3153 124.878ZM82.0953 124.878C82.0953 125.697 82.5633 126.516 83.5903 126.516H85.9303C86.9573 126.516 87.4253 125.697 87.4253 124.878C87.4253 124.059 86.9573 123.24 85.9303 123.24H83.5903C82.5633 123.24 82.0953 124.059 82.0953 124.878ZM82.2903 128.401V130.741H91.0003V131.417H81.5103V128.401H82.2903ZM96.177 121.329H98.647V120.029H99.427V121.329H101.897V122.005H96.177V121.329ZM103.067 131.417V120.419H103.847V125.294H105.667V120.419H106.447V131.417H105.667V125.97H103.847V131.417H103.067ZM96.372 125.554C96.372 124.046 97.256 122.889 99.037 122.889C100.818 122.889 101.702 124.046 101.702 125.554V128.882C101.702 130.39 100.818 131.547 99.037 131.547C97.256 131.547 96.372 130.39 96.372 128.882V125.554ZM99.037 130.871C100.311 130.871 100.922 130.039 100.922 128.882V125.554C100.922 124.397 100.311 123.565 99.037 123.565C97.763 123.565 97.152 124.397 97.152 125.554V128.882C97.152 130.039 97.763 130.871 99.037 130.871ZM99.037 128.479C98.985 127.452 98.608 127.153 97.763 127.114C98.608 127.075 98.985 126.776 99.037 125.749C99.089 126.776 99.453 127.075 100.311 127.114C99.453 127.153 99.089 127.452 99.037 128.479ZM108.523 124.488V122.057H117.753V121.095H108.523V120.419H118.533V122.733H109.303V123.812H118.598V124.488H108.523ZM108.393 125.541H118.663V126.217H108.393V125.541ZM108.523 131.417V128.986H117.753V128.024H108.523V127.348H118.533V129.662H109.303V130.741H118.663V131.417H108.523ZM132.81 126.321V120.419H133.59V126.997H128.975V130.741H133.72V131.417H123.45V130.741H128.195V126.997H123.58V120.419H124.36V126.321H132.81ZM128.585 124.709C128.533 123.682 128.156 123.383 127.311 123.344C128.156 123.305 128.533 123.006 128.585 121.979C128.637 123.006 129.001 123.305 129.859 123.344C129.001 123.383 128.637 123.682 128.585 124.709ZM144.895 125.71V123.201H142.88V125.71H142.1V120.419H142.88V122.525H144.895V120.419H145.675V125.71H144.895ZM135.665 120.419H136.445V124.306H137.264C138.694 124.306 139.981 124.215 141.112 124.072V124.748C139.981 124.891 138.694 124.982 137.264 124.982H135.665V120.419ZM135.795 131.417V128.492H144.895V127.036H135.795V126.36H145.675V129.168H136.575V130.741H145.805V131.417H135.795ZM156.442 131.417H155.636C156.117 127.829 156.455 124.332 156.52 121.095H150.657V120.419H157.352C157.313 122.109 157.222 123.721 157.105 125.294H159.952V120.419H160.732V131.417H159.952V125.97H157.053C156.897 127.816 156.676 129.597 156.442 131.417ZM162.743 122.824C162.743 121.316 163.692 120.289 165.343 120.289C166.994 120.289 167.943 121.316 167.943 122.824V123.344H169.828V120.419H170.608V131.417H169.828V128.167H167.943V129.012C167.943 130.52 166.994 131.547 165.343 131.547C163.692 131.547 162.743 130.52 162.743 129.012V122.824ZM172.038 131.417V120.419H172.818V131.417H172.038ZM165.343 130.871C166.487 130.871 167.163 130.169 167.163 129.012V122.824C167.163 121.667 166.487 120.965 165.343 120.965C164.199 120.965 163.523 121.667 163.523 122.824V129.012C163.523 130.169 164.199 130.871 165.343 130.871ZM167.943 124.02V127.491H169.828V124.02H167.943ZM165.343 127.179C165.291 126.152 164.914 125.853 164.069 125.814C164.914 125.775 165.291 125.476 165.343 124.449C165.395 125.476 165.759 125.775 166.617 125.814C165.759 125.853 165.395 126.152 165.343 127.179ZM174.699 123.578C174.699 121.732 175.856 120.419 177.624 120.419H182.174C183.942 120.419 185.099 121.732 185.099 123.578C185.099 125.268 184.137 126.503 182.629 126.711V130.741H185.034V131.417H174.764V130.741H177.169V126.711C175.661 126.503 174.699 125.268 174.699 123.578ZM175.479 123.578C175.479 124.917 176.207 126.061 177.624 126.061H182.174C183.591 126.061 184.319 124.917 184.319 123.578C184.319 122.239 183.591 121.095 182.174 121.095H177.624C176.207 121.095 175.479 122.239 175.479 123.578ZM179.899 124.943C179.847 123.916 179.47 123.617 178.625 123.578C179.47 123.539 179.847 123.24 179.899 122.213C179.951 123.24 180.315 123.539 181.173 123.578C180.315 123.617 179.951 123.916 179.899 124.943ZM177.949 126.737V130.741H181.849V126.737H177.949ZM187.565 128.141L187.357 120.289H188.241L188.046 128.141H187.565ZM187.799 130C188.15 130 188.488 130.273 188.488 130.702C188.488 131.144 188.15 131.417 187.799 131.417C187.448 131.417 187.11 131.144 187.11 130.702C187.11 130.273 187.448 130 187.799 130Z" fill="#31D84B"/>
<path fill-rule="evenodd" clip-rule="evenodd" d="M180.733 176H89.2667V228.267L37 228.267L37 319.733H89.2667V372H180.733V319.733H233V228.267L180.733 228.267V176Z" fill="url(#paint0_radial_122_2240)"/>
<path fill-rule="evenodd" clip-rule="evenodd" d="M162.734 214H106.267V246.267H74L74 302.734H106.267V335H162.734V302.734H195V246.267H162.734V214Z" fill="url(#paint1_radial_122_2240)"/>
<path fill-rule="evenodd" clip-rule="evenodd" d="M154.134 233H115.867V254.867L94 254.867V293.133H115.867V315H154.134V293.133H176V254.867L154.134 254.867V233Z" fill="url(#paint2_radial_122_2240)"/>
<rect x="11" y="11" width="248" height="378" rx="15" stroke="url(#paint3_linear_122_2240)" stroke-opacity="0.5" stroke-width="2"/>
<defs>
<filter id="filter0_d_122_2240" x="84.5349" y="29.624" width="103.585" height="56.6079" filterUnits="userSpaceOnUse" color-interpolation-filters="sRGB">
<feFlood flood-opacity="0" result="BackgroundImageFix"/>
<feColorMatrix in="SourceAlpha" type="matrix" values="0 0 0 0 0 0 0 0 0 0 0 0 0 0 0 0 0 0 127 0" result="hardAlpha"/>
<feOffset/>
<feGaussianBlur stdDeviation="4"/>
<feComposite in2="hardAlpha" operator="out"/>
<feColorMatrix type="matrix" values="0 0 0 0 0.192157 0 0 0 0 0.847059 0 0 0 0 0.294118 0 0 0 0.7 0"/>
<feBlend mode="normal" in2="BackgroundImageFix" result="effect1_dropShadow_122_2240"/>
<feBlend mode="normal" in="SourceGraphic" in2="effect1_dropShadow_122_2240" result="shape"/>
</filter>
<radialGradient id="paint0_radial_122_2240" cx="0" cy="0" r="1" gradientUnits="userSpaceOnUse" gradientTransform="translate(135 274) rotate(90) scale(98)">
<stop stop-color="#3FD957" stop-opacity="0.63"/>
<stop offset="1" stop-color="#3FD957" stop-opacity="0"/>
</radialGradient>
<radialGradient id="paint1_radial_122_2240" cx="0" cy="0" r="1" gradientUnits="userSpaceOnUse" gradientTransform="translate(134.5 274.5) rotate(90) scale(60.5)">
<stop stop-color="#3FD957" stop-opacity="0.63"/>
<stop offset="1" stop-color="#3FD957" stop-opacity="0"/>
</radialGradient>
<radialGradient id="paint2_radial_122_2240" cx="0" cy="0" r="1" gradientUnits="userSpaceOnUse" gradientTransform="translate(135 274) rotate(90) scale(41)">
<stop stop-color="#3FD957" stop-opacity="0.63"/>
<stop offset="1" stop-color="#3FD957" stop-opacity="0"/>
</radialGradient>
<linearGradient id="paint3_linear_122_2240" x1="16.875" y1="10" x2="253.239" y2="394.16" gradientUnits="userSpaceOnUse">
<stop stop-color="#264B2C" stop-opacity="0.51"/>
<stop offset="0.307292" stop-color="#3FCE56"/>
<stop offset="1" stop-color="#E8FFEB" stop-opacity="0.03"/>
</linearGradient>
</defs>
</svg>
