<svg width="270" height="400" viewBox="0 0 270 400" fill="none" xmlns="http://www.w3.org/2000/svg">
<rect width="270" height="400" rx="24" fill="#32363A"/>
<path fill-rule="evenodd" clip-rule="evenodd" d="M134.545 210.16C145.069 197.813 161.192 190 177.991 190C207.727 190 231.091 213.343 231.091 243.052C231.091 279.483 198.319 309.173 148.667 354.157L148.545 354.268L134.545 367L120.546 354.364L120.165 354.018C70.6578 309.07 38 279.42 38 243.052C38 213.343 61.364 190 91.1 190C107.899 190 124.022 197.813 134.545 210.16Z" fill="url(#paint0_radial_122_2238)"/>
<path fill-rule="evenodd" clip-rule="evenodd" d="M134.364 237.187C140.725 229.723 150.472 225 160.627 225C178.603 225 192.727 239.111 192.727 257.071C192.727 279.094 172.916 297.042 142.9 324.236L142.826 324.303L134.364 332L125.901 324.361L125.671 324.152C95.7423 296.98 76 279.056 76 257.071C76 239.111 90.124 225 108.1 225C118.255 225 128.002 229.723 134.364 237.187Z" fill="url(#paint1_radial_122_2238)"/>
<path fill-rule="evenodd" clip-rule="evenodd" d="M134.909 254.289C138.714 249.825 144.544 247 150.618 247C161.37 247 169.818 255.44 169.818 266.183C169.818 279.355 157.969 290.091 140.015 306.356L139.971 306.396L134.909 311L129.847 306.431L129.709 306.306C111.808 290.053 100 279.332 100 266.183C100 255.44 108.448 247 119.2 247C125.274 247 131.104 249.825 134.909 254.289Z" fill="url(#paint2_radial_122_2238)"/>
<g filter="url(#filter0_d_122_2238)">
<path d="M92.775 70.072V45.784C92.775 39.544 96.135 37.144 102.375 37.144C108.615 37.144 111.975 39.544 111.975 45.784V70.072C111.975 76.312 108.615 78.712 102.375 78.712C96.135 78.712 92.775 76.312 92.775 70.072ZM113.847 78.232V37.624H122.199V53.416H124.263V37.624H132.615V78.232H124.263V61.576H122.199V78.232H113.847ZM102.375 39.736C102.231 53.032 99.255 57.736 93.783 57.976C99.255 58.216 102.231 62.872 102.375 76.12C102.519 62.872 105.495 58.168 110.967 57.928C105.495 57.688 102.519 53.032 102.375 39.736ZM162.792 52.264V45.064H159.432L163.56 58.456H153.72L150.36 45.016L147 58.456H137.16L141.288 45.064H137.16V37.624H163.56V44.104H167.64V37.624H177.24V58.456H167.64V52.264H162.792ZM177.48 69.064C177.48 74.344 174.504 78.232 168.744 78.232H145.896C140.136 78.232 137.16 74.344 137.16 69.064C137.16 63.784 140.136 59.896 145.896 59.896H168.744C174.504 59.896 177.48 63.784 177.48 69.064ZM157.32 60.808C157.176 65.368 154.056 68.92 141.672 69.064C154.056 69.256 157.176 72.808 157.32 77.32C157.464 72.808 160.536 69.256 172.968 69.064C160.536 68.92 157.464 65.368 157.32 60.808Z" fill="#FF5569"/>
</g>
<path d="M91.7255 111.417H85.2255V100.419H91.7255V111.417ZM93.9355 111.417V100.419H94.7155V105.034H96.4055V105.71H94.7155V111.417H93.9355ZM86.0055 101.095V110.741H90.9455V101.095H86.0055ZM97.1165 102.278C97.1165 101.082 97.8835 100.419 99.1315 100.419H105.501C106.749 100.419 107.516 101.082 107.516 102.278C107.516 103.474 106.749 104.137 105.501 104.137H99.1315C97.8835 104.137 97.1165 103.474 97.1165 102.278ZM97.8965 102.278C97.8965 102.967 98.2345 103.461 99.1315 103.461H105.501C106.398 103.461 106.736 102.967 106.736 102.278C106.736 101.589 106.398 101.095 105.501 101.095H99.1315C98.2345 101.095 97.8965 101.589 97.8965 102.278ZM97.1815 105.541H107.451V106.217H97.1815V105.541ZM97.3115 111.417V107.751H107.321V111.417H97.3115ZM98.0915 110.741H106.541V108.427H98.0915V110.741ZM109.332 103.604C109.332 101.706 110.281 100.289 112.712 100.289C115.143 100.289 116.092 101.706 116.092 103.604V108.232C116.092 110.13 115.143 111.547 112.712 111.547C110.281 111.547 109.332 110.13 109.332 108.232V103.604ZM118.627 111.417V100.419H119.407V111.417H118.627ZM112.712 110.871C114.636 110.871 115.312 109.779 115.312 108.232V103.604C115.312 102.057 114.636 100.965 112.712 100.965C110.788 100.965 110.112 102.057 110.112 103.604V108.232C110.112 109.779 110.788 110.871 112.712 110.871ZM112.712 107.179C112.66 106.152 112.283 105.853 111.438 105.814C112.283 105.775 112.66 105.476 112.712 104.449C112.764 105.476 113.128 105.775 113.986 105.814C113.128 105.853 112.764 106.152 112.712 107.179ZM124.389 103.604C124.389 101.706 125.338 100.289 127.769 100.289C130.2 100.289 131.149 101.706 131.149 103.604V108.232C131.149 110.13 130.2 111.547 127.769 111.547C125.338 111.547 124.389 110.13 124.389 108.232V103.604ZM133.684 111.417V100.419H134.464V111.417H133.684ZM127.769 110.871C129.693 110.871 130.369 109.779 130.369 108.232V103.604C130.369 102.057 129.693 100.965 127.769 100.965C125.845 100.965 125.169 102.057 125.169 103.604V108.232C125.169 109.779 125.845 110.871 127.769 110.871ZM127.769 107.179C127.717 106.152 127.34 105.853 126.495 105.814C127.34 105.775 127.717 105.476 127.769 104.449C127.821 105.476 128.185 105.775 129.043 105.814C128.185 105.853 127.821 106.152 127.769 107.179ZM145.835 107.777H145.029C145.445 105.489 145.718 103.032 145.783 101.095H141.805V100.419H146.615C146.524 103.032 146.251 105.489 145.835 107.777ZM140.44 107.777H139.634C140.05 105.489 140.323 103.032 140.388 101.095H136.475V100.419H141.22C141.129 103.032 140.856 105.489 140.44 107.777ZM136.41 110.741H146.68V111.417H136.41V110.741ZM149.406 100.419V103.851H158.701V104.527H148.626V100.419H149.406ZM148.496 106.256H158.766V106.932H148.496V106.256ZM149.536 108.531V110.741H158.766V111.417H148.756V108.531H149.536ZM170.248 111.417V100.419H171.028V105.034H172.913V100.419H173.693V111.417H172.913V105.71H171.028V111.417H170.248ZM163.683 100.419H168.87V101.095H164.463V110.741H166.127C167.167 110.741 168.207 110.702 169.195 110.52V111.196C168.207 111.378 167.167 111.417 166.127 111.417H163.683V100.419ZM175.769 107.478V103.552H184.999V101.095H175.769V100.419H185.779V104.228H176.549V106.802H185.844V107.478H181.164V110.741H185.909V111.417H175.639V110.741H180.384V107.478H175.769ZM60.3201 121.082H56.3421L60.2941 123.968H59.2541L55.1851 121.095L51.1161 123.968H50.0761L54.0281 121.082H50.0501V120.419H60.3201V121.082ZM50.0501 124.826H54.7951V122.941H55.5751V124.826H60.3201V125.502H50.0501V124.826ZM60.3851 127.595H49.9851V126.919H54.7691V125.827H55.6011V126.919H60.3851V127.595ZM50.1151 129.883C50.1151 128.817 50.8821 128.349 52.0001 128.349H58.3701C59.4881 128.349 60.2551 128.817 60.2551 129.883C60.2551 130.949 59.4881 131.417 58.3701 131.417H52.0001C50.8821 131.417 50.1151 130.949 50.1151 129.883ZM52.0001 130.741H58.3701C59.0071 130.741 59.4751 130.546 59.4751 129.883C59.4751 129.22 59.0071 129.025 58.3701 129.025H52.0001C51.3631 129.025 50.8951 129.22 50.8951 129.883C50.8951 130.546 51.3631 130.741 52.0001 130.741ZM62.0711 122.538C62.0711 121.212 62.9681 120.419 64.2161 120.419H70.3261C71.5741 120.419 72.4711 121.212 72.4711 122.538C72.4711 123.864 71.5741 124.657 70.3261 124.657H64.2161C62.9681 124.657 62.0711 123.864 62.0711 122.538ZM62.8511 122.538C62.8511 123.357 63.3191 123.981 64.2161 123.981H70.3261C71.2231 123.981 71.6911 123.357 71.6911 122.538C71.6911 121.719 71.2231 121.095 70.3261 121.095H64.2161C63.3191 121.095 62.8511 121.719 62.8511 122.538ZM62.1361 126.321H72.4061V126.997H62.1361V126.321ZM63.1761 128.531V130.741H72.4061V131.417H62.3961V128.531H63.1761ZM77.2577 123.084C77.2577 121.446 78.5967 120.289 80.6377 120.289C82.6787 120.289 84.0177 121.446 84.0177 123.084V123.812C84.0177 125.32 82.6787 126.607 80.6377 126.607C78.5967 126.607 77.2577 125.32 77.2577 123.812V123.084ZM86.5527 128.427V120.419H87.3327V128.427H86.5527ZM80.6377 125.931C82.1717 125.931 83.2377 124.969 83.2377 123.812V123.084C83.2377 121.797 82.1717 120.965 80.6377 120.965C79.1037 120.965 78.0377 121.797 78.0377 123.084V123.812C78.0377 124.969 79.1037 125.931 80.6377 125.931ZM80.6377 124.839C80.5857 123.812 80.2087 123.513 79.3637 123.474C80.2087 123.435 80.5857 123.136 80.6377 122.109C80.6897 123.136 81.0537 123.435 81.9117 123.474C81.0537 123.513 80.6897 123.812 80.6377 124.839ZM78.2327 127.751V130.741H87.4627V131.417H77.4527V127.751H78.2327ZM98.6387 128.427V125.151H95.5967C95.0767 126.009 94.0497 126.607 92.6587 126.607C90.6177 126.607 89.3437 125.32 89.3437 123.812V123.084C89.3437 121.446 90.6177 120.289 92.6587 120.289C93.9977 120.289 95.0117 120.796 95.5447 121.602H98.6387V120.419H99.4187V128.427H98.6387ZM92.6587 125.931C94.1927 125.931 95.1937 124.969 95.1937 123.812V123.084C95.1937 121.797 94.1927 120.965 92.6587 120.965C91.1247 120.965 90.1237 121.797 90.1237 123.084V123.812C90.1237 124.969 91.1247 125.931 92.6587 125.931ZM92.6587 124.839C92.6067 123.812 92.2297 123.513 91.3847 123.474C92.2297 123.435 92.6067 123.136 92.6587 122.109C92.7107 123.136 93.0747 123.435 93.9327 123.474C93.0747 123.513 92.7107 123.812 92.6587 124.839ZM95.9737 123.812C95.9737 124.046 95.9477 124.267 95.8827 124.475H98.6387V122.278H95.8567C95.9217 122.538 95.9737 122.798 95.9737 123.084V123.812ZM90.3187 127.751V130.741H99.5487V131.417H89.5387V127.751H90.3187ZM101.43 123.604C101.43 121.706 102.379 120.289 104.81 120.289C107.241 120.289 108.19 121.706 108.19 123.604V128.232C108.19 130.13 107.241 131.547 104.81 131.547C102.379 131.547 101.43 130.13 101.43 128.232V123.604ZM110.725 131.417V120.419H111.505V131.417H110.725ZM104.81 130.871C106.734 130.871 107.41 129.779 107.41 128.232V123.604C107.41 122.057 106.734 120.965 104.81 120.965C102.886 120.965 102.21 122.057 102.21 123.604V128.232C102.21 129.779 102.886 130.871 104.81 130.871ZM104.81 127.179C104.758 126.152 104.381 125.853 103.536 125.814C104.381 125.775 104.758 125.476 104.81 124.449C104.862 125.476 105.226 125.775 106.084 125.814C105.226 125.853 104.862 126.152 104.81 127.179ZM120.841 131.417H120.035C120.516 127.829 120.854 124.332 120.919 121.095H116.486V120.419H121.751C121.725 121.42 121.686 122.395 121.634 123.344H123.571V120.419H124.351V131.417H123.571V128.167H121.231C121.114 129.259 120.984 130.325 120.841 131.417ZM125.781 131.417V120.419H126.561V131.417H125.781ZM121.595 124.02C121.517 125.203 121.426 126.347 121.309 127.491H123.571V124.02H121.595ZM128.533 124.657L133.213 120.419H134.071L138.751 124.657H137.763L133.642 121.004L129.521 124.657H128.533ZM128.507 125.931H133.252V123.539H134.032V125.931H138.777V126.607H128.507V125.931ZM137.867 131.417V128.817H128.637V128.141H138.647V131.417H137.867ZM143.629 123.604C143.629 121.706 144.578 120.289 147.009 120.289C149.44 120.289 150.389 121.706 150.389 123.604V128.232C150.389 130.13 149.44 131.547 147.009 131.547C144.578 131.547 143.629 130.13 143.629 128.232V123.604ZM152.924 131.417V120.419H153.704V131.417H152.924ZM147.009 130.871C148.933 130.871 149.609 129.779 149.609 128.232V123.604C149.609 122.057 148.933 120.965 147.009 120.965C145.085 120.965 144.409 122.057 144.409 123.604V128.232C144.409 129.779 145.085 130.871 147.009 130.871ZM147.009 127.179C146.957 126.152 146.58 125.853 145.735 125.814C146.58 125.775 146.957 125.476 147.009 124.449C147.061 125.476 147.425 125.775 148.283 125.814C147.425 125.853 147.061 126.152 147.009 127.179ZM155.715 123.604C155.715 121.706 156.599 120.289 159.03 120.289C161.461 120.289 162.345 121.706 162.345 123.604V125.294H165.01V120.419H165.79V131.417H165.01V125.97H162.345V128.232C162.345 130.13 161.461 131.547 159.03 131.547C156.599 131.547 155.715 130.13 155.715 128.232V123.604ZM159.03 130.871C160.954 130.871 161.565 129.779 161.565 128.232V123.604C161.565 122.057 160.954 120.965 159.03 120.965C157.106 120.965 156.495 122.057 156.495 123.604V128.232C156.495 129.779 157.106 130.871 159.03 130.871ZM159.03 127.179C158.978 126.152 158.601 125.853 157.756 125.814C158.601 125.775 158.978 125.476 159.03 124.449C159.082 125.476 159.446 125.775 160.304 125.814C159.446 125.853 159.082 126.152 159.03 127.179ZM167.801 125.372L170.583 121.095H167.801V120.419H174.951V121.095H172.169L174.951 125.372H174.145L171.376 121.121L168.607 125.372H167.801ZM177.096 125.71V120.419H177.876V125.71H177.096ZM167.996 131.417V128.492H177.096V127.036H167.996V126.36H177.876V129.168H168.776V130.741H178.006V131.417H167.996ZM188.642 131.417H187.836C188.317 127.829 188.655 124.332 188.72 121.095H182.857V120.419H189.552C189.513 122.109 189.422 123.721 189.305 125.294H192.152V120.419H192.932V131.417H192.152V125.97H189.253C189.097 127.816 188.876 129.597 188.642 131.417ZM194.943 122.824C194.943 121.316 195.892 120.289 197.543 120.289C199.194 120.289 200.143 121.316 200.143 122.824V123.344H202.028V120.419H202.808V131.417H202.028V128.167H200.143V129.012C200.143 130.52 199.194 131.547 197.543 131.547C195.892 131.547 194.943 130.52 194.943 129.012V122.824ZM204.238 131.417V120.419H205.018V131.417H204.238ZM197.543 130.871C198.687 130.871 199.363 130.169 199.363 129.012V122.824C199.363 121.667 198.687 120.965 197.543 120.965C196.399 120.965 195.723 121.667 195.723 122.824V129.012C195.723 130.169 196.399 130.871 197.543 130.871ZM200.143 124.02V127.491H202.028V124.02H200.143ZM197.543 127.179C197.491 126.152 197.114 125.853 196.269 125.814C197.114 125.775 197.491 125.476 197.543 124.449C197.595 125.476 197.959 125.775 198.817 125.814C197.959 125.853 197.595 126.152 197.543 127.179ZM206.899 123.578C206.899 121.732 208.056 120.419 209.824 120.419H214.374C216.142 120.419 217.299 121.732 217.299 123.578C217.299 125.268 216.337 126.503 214.829 126.711V130.741H217.234V131.417H206.964V130.741H209.369V126.711C207.861 126.503 206.899 125.268 206.899 123.578ZM207.679 123.578C207.679 124.917 208.407 126.061 209.824 126.061H214.374C215.791 126.061 216.519 124.917 216.519 123.578C216.519 122.239 215.791 121.095 214.374 121.095H209.824C208.407 121.095 207.679 122.239 207.679 123.578ZM212.099 124.943C212.047 123.916 211.67 123.617 210.825 123.578C211.67 123.539 212.047 123.24 212.099 122.213C212.151 123.24 212.515 123.539 213.373 123.578C212.515 123.617 212.151 123.916 212.099 124.943ZM210.149 126.737V130.741H214.049V126.737H210.149ZM219.765 128.141L219.557 120.289H220.441L220.246 128.141H219.765ZM219.999 130C220.35 130 220.688 130.273 220.688 130.702C220.688 131.144 220.35 131.417 219.999 131.417C219.648 131.417 219.31 131.144 219.31 130.702C219.31 130.273 219.648 130 219.999 130Z" fill="#FF5569"/>
<rect x="11" y="11" width="248" height="378" rx="15" stroke="url(#paint3_linear_122_2238)" stroke-opacity="0.5" stroke-width="2"/>
<defs>
<filter id="filter0_d_122_2238" x="84.7749" y="29.144" width="100.705" height="57.5679" filterUnits="userSpaceOnUse" color-interpolation-filters="sRGB">
<feFlood flood-opacity="0" result="BackgroundImageFix"/>
<feColorMatrix in="SourceAlpha" type="matrix" values="0 0 0 0 0 0 0 0 0 0 0 0 0 0 0 0 0 0 127 0" result="hardAlpha"/>
<feOffset/>
<feGaussianBlur stdDeviation="4"/>
<feComposite in2="hardAlpha" operator="out"/>
<feColorMatrix type="matrix" values="0 0 0 0 1 0 0 0 0 0.333333 0 0 0 0 0.411765 0 0 0 0.7 0"/>
<feBlend mode="normal" in2="BackgroundImageFix" result="effect1_dropShadow_122_2238"/>
<feBlend mode="normal" in="SourceGraphic" in2="effect1_dropShadow_122_2238" result="shape"/>
</filter>
<radialGradient id="paint0_radial_122_2238" cx="0" cy="0" r="1" gradientUnits="userSpaceOnUse" gradientTransform="translate(134.545 263.08) rotate(90) scale(103.92 113.368)">
<stop stop-color="#FF5C46" stop-opacity="0.7"/>
<stop offset="1" stop-color="#FF5C46" stop-opacity="0"/>
</radialGradient>
<radialGradient id="paint1_radial_122_2238" cx="0" cy="0" r="1" gradientUnits="userSpaceOnUse" gradientTransform="translate(134.364 269.178) rotate(90) scale(62.822 68.5331)">
<stop stop-color="#FF5C46" stop-opacity="0.7"/>
<stop offset="1" stop-color="#FF5C46" stop-opacity="0"/>
</radialGradient>
<radialGradient id="paint2_radial_122_2238" cx="0" cy="0" r="1" gradientUnits="userSpaceOnUse" gradientTransform="translate(134.909 273.424) rotate(90) scale(37.5758 40.9917)">
<stop stop-color="#FF5C46" stop-opacity="0.7"/>
<stop offset="1" stop-color="#FF5C46" stop-opacity="0"/>
</radialGradient>
<linearGradient id="paint3_linear_122_2238" x1="16.875" y1="10" x2="253.239" y2="394.16" gradientUnits="userSpaceOnUse">
<stop stop-color="#6B2319" stop-opacity="0.51"/>
<stop offset="0.307292" stop-color="#FF5D48" stop-opacity="0.62"/>
<stop offset="1" stop-color="#FF9E91" stop-opacity="0.13"/>
</linearGradient>
</defs>
</svg>
