<svg width="270" height="400" viewBox="0 0 270 400" fill="none" xmlns="http://www.w3.org/2000/svg">
<rect width="270" height="400" rx="24" fill="#32363A"/>
<g filter="url(#filter0_d_122_2244)">
<path d="M92.775 64.312V56.872H108.903C109.863 53.224 110.055 48.904 110.055 45.064H92.775V37.624H120.375C120.327 44.584 120.231 51.256 118.983 56.872H121.095V64.312H111.735V78.232H101.655V64.312H92.775ZM123.015 78.232V37.624H132.615V78.232H123.015ZM137.16 50.152V47.944C137.16 41.224 142.2 37.144 150.84 37.144C159.48 37.144 164.52 41.224 164.52 47.944V50.152C164.52 56.872 159.48 60.952 150.84 60.952C142.2 60.952 137.16 56.872 137.16 50.152ZM167.64 65.752V37.624H177.24V65.752H167.64ZM150.84 39.688C150.6 46.168 146.328 48.952 140.808 49.096C146.472 49.24 150.84 52.12 150.84 58.936C150.84 52.12 155.16 49.192 160.872 49.048C155.304 48.904 151.032 46.168 150.84 39.688ZM137.4 62.536H147V70.792L159 70.744C165.24 70.696 171.96 70.216 177.48 69.352V78.232H137.4V62.536Z" fill="#BFE373"/>
</g>
<path d="M69.5763 100.419L72.5663 105.372H71.7343L69.0563 100.939L66.3783 105.372H65.5463L68.5363 100.419H69.5763ZM74.3213 105.71V100.419H75.1013V102.538H76.7913V103.214H75.1013V105.71H74.3213ZM65.7413 111.417V108.492H74.3213V107.036H65.7413V106.36H75.1013V109.168H66.5213V110.741H75.2313V111.417H65.7413ZM84.1972 106.087H77.6972V100.419H84.1972V101.602H86.9272V100.419H87.7072V108.427H86.9272V104.891H84.1972V106.087ZM78.4772 101.095V105.411H83.4172V101.095H78.4772ZM84.1972 102.278V104.215H86.9272V102.278H84.1972ZM78.6072 107.751V110.741H87.8372V111.417H77.8272V107.751H78.6072ZM93.8782 100.419L96.8032 111.417H95.9972L93.2282 101.004L90.4592 111.417H89.6532L92.5782 100.419H93.8782ZM96.3092 105.034H99.0132V100.419H99.7932V111.417H99.0132V105.71H96.3092V105.034ZM114.98 101.082H111.002L114.954 103.968H113.914L109.845 101.095L105.776 103.968H104.736L108.688 101.082H104.71V100.419H114.98V101.082ZM104.71 104.826H109.455V102.941H110.235V104.826H114.98V105.502H104.71V104.826ZM115.045 107.595H104.645V106.919H109.429V105.827H110.261V106.919H115.045V107.595ZM104.775 109.883C104.775 108.817 105.542 108.349 106.66 108.349H113.03C114.148 108.349 114.915 108.817 114.915 109.883C114.915 110.949 114.148 111.417 113.03 111.417H106.66C105.542 111.417 104.775 110.949 104.775 109.883ZM106.66 110.741H113.03C113.667 110.741 114.135 110.546 114.135 109.883C114.135 109.22 113.667 109.025 113.03 109.025H106.66C106.023 109.025 105.555 109.22 105.555 109.883C105.555 110.546 106.023 110.741 106.66 110.741ZM116.731 102.538C116.731 101.212 117.628 100.419 118.876 100.419H124.986C126.234 100.419 127.131 101.212 127.131 102.538C127.131 103.864 126.234 104.657 124.986 104.657H118.876C117.628 104.657 116.731 103.864 116.731 102.538ZM117.511 102.538C117.511 103.357 117.979 103.981 118.876 103.981H124.986C125.883 103.981 126.351 103.357 126.351 102.538C126.351 101.719 125.883 101.095 124.986 101.095H118.876C117.979 101.095 117.511 101.719 117.511 102.538ZM116.796 106.321H127.066V106.997H116.796V106.321ZM117.836 108.531V110.741H127.066V111.417H117.056V108.531H117.836ZM138.092 105.307H137.286C137.663 103.539 137.845 102.512 137.91 101.095H131.917V100.419H138.742C138.651 102.512 138.469 103.539 138.092 105.307ZM141.212 105.71V100.419H141.992V105.71H141.212ZM132.112 111.417V108.492H141.212V107.036H132.112V106.36H141.992V109.168H132.892V110.741H142.122V111.417H132.112ZM144.068 107.478V103.552H153.298V101.095H144.068V100.419H154.078V104.228H144.848V106.802H154.143V107.478H149.463V110.741H154.208V111.417H143.938V110.741H148.683V107.478H144.068ZM159.06 103.604C159.06 101.706 160.009 100.289 162.44 100.289C164.871 100.289 165.82 101.706 165.82 103.604V108.232C165.82 110.13 164.871 111.547 162.44 111.547C160.009 111.547 159.06 110.13 159.06 108.232V103.604ZM168.355 111.417V100.419H169.135V111.417H168.355ZM162.44 110.871C164.364 110.871 165.04 109.779 165.04 108.232V103.604C165.04 102.057 164.364 100.965 162.44 100.965C160.516 100.965 159.84 102.057 159.84 103.604V108.232C159.84 109.779 160.516 110.871 162.44 110.871ZM162.44 107.179C162.388 106.152 162.011 105.853 161.166 105.814C162.011 105.775 162.388 105.476 162.44 104.449C162.492 105.476 162.856 105.775 163.714 105.814C162.856 105.853 162.492 106.152 162.44 107.179ZM171.081 104.436H174.461C174.851 103.175 175.059 102.044 175.124 101.095H171.146V100.419H175.956C175.865 102.031 175.657 103.175 175.267 104.436H179.791C180.181 103.175 180.389 102.044 180.454 101.095H176.476V100.419H181.286C181.195 102.031 180.987 103.175 180.597 104.436H181.351V105.112H171.081V104.436ZM171.211 111.417V108.531H180.441V107.114H171.211V106.438H181.221V109.207H171.991V110.741H181.351V111.417H171.211ZM183.232 103.604C183.232 101.706 184.116 100.289 186.547 100.289C188.978 100.289 189.862 101.706 189.862 103.604V105.294H192.527V100.419H193.307V111.417H192.527V105.97H189.862V108.232C189.862 110.13 188.978 111.547 186.547 111.547C184.116 111.547 183.232 110.13 183.232 108.232V103.604ZM186.547 110.871C188.471 110.871 189.082 109.779 189.082 108.232V103.604C189.082 102.057 188.471 100.965 186.547 100.965C184.623 100.965 184.012 102.057 184.012 103.604V108.232C184.012 109.779 184.623 110.871 186.547 110.871ZM186.547 107.179C186.495 106.152 186.118 105.853 185.273 105.814C186.118 105.775 186.495 105.476 186.547 104.449C186.599 105.476 186.963 105.775 187.821 105.814C186.963 105.853 186.599 106.152 186.547 107.179ZM205.523 101.095H201.545L205.497 104.072H204.457L200.388 101.108L196.319 104.072H195.279L199.231 101.095H195.253V100.419H205.523V101.095ZM195.253 104.891H205.523V105.567H200.778V106.958H205.393V109.467H196.163V110.741H205.523V111.417H195.383V108.791H204.613V107.634H195.383V106.958H199.998V105.567H195.253V104.891ZM66.3631 121.082H62.3851L66.3371 123.968H65.2971L61.2281 121.095L57.1591 123.968H56.1191L60.0711 121.082H56.0931V120.419H66.3631V121.082ZM56.0931 124.826H60.8381V122.941H61.6181V124.826H66.3631V125.502H56.0931V124.826ZM66.4281 127.595H56.0281V126.919H60.8121V125.827H61.6441V126.919H66.4281V127.595ZM56.1581 129.883C56.1581 128.817 56.9251 128.349 58.0431 128.349H64.4131C65.5311 128.349 66.2981 128.817 66.2981 129.883C66.2981 130.949 65.5311 131.417 64.4131 131.417H58.0431C56.9251 131.417 56.1581 130.949 56.1581 129.883ZM58.0431 130.741H64.4131C65.0501 130.741 65.5181 130.546 65.5181 129.883C65.5181 129.22 65.0501 129.025 64.4131 129.025H58.0431C57.4061 129.025 56.9381 129.22 56.9381 129.883C56.9381 130.546 57.4061 130.741 58.0431 130.741ZM68.114 122.538C68.114 121.212 69.011 120.419 70.259 120.419H76.369C77.617 120.419 78.514 121.212 78.514 122.538C78.514 123.864 77.617 124.657 76.369 124.657H70.259C69.011 124.657 68.114 123.864 68.114 122.538ZM68.894 122.538C68.894 123.357 69.362 123.981 70.259 123.981H76.369C77.266 123.981 77.734 123.357 77.734 122.538C77.734 121.719 77.266 121.095 76.369 121.095H70.259C69.362 121.095 68.894 121.719 68.894 122.538ZM68.179 126.321H78.449V126.997H68.179V126.321ZM69.219 128.531V130.741H78.449V131.417H68.439V128.531H69.219ZM87.4607 120.419L90.3857 131.417H89.5797L86.8107 121.004L84.0417 131.417H83.2357L86.1607 120.419H87.4607ZM92.0757 131.417V120.419H92.8557V125.034H94.5457V125.71H92.8557V131.417H92.0757ZM95.4516 122.889H101.289V121.095H95.4516V120.419H102.069V123.565H96.2316V125.541H98.6756C100.106 125.541 101.393 125.45 102.524 125.307V125.983C101.393 126.126 100.106 126.217 98.6756 126.217H95.4516V122.889ZM104.162 126.711V120.419H104.942V123.019H106.632V123.695H104.942V126.711H104.162ZM95.5816 131.417V127.491H104.942V131.417H95.5816ZM96.3616 130.741H104.162V128.167H96.3616V130.741ZM107.343 122.122C107.343 121.056 108.11 120.419 109.228 120.419H115.858C116.976 120.419 117.743 121.056 117.743 122.122C117.743 123.188 116.976 123.825 115.858 123.825H109.228C108.11 123.825 107.343 123.188 107.343 122.122ZM108.123 122.122C108.123 122.681 108.461 123.149 109.228 123.149H115.858C116.625 123.149 116.963 122.681 116.963 122.122C116.963 121.563 116.625 121.095 115.858 121.095H109.228C108.461 121.095 108.123 121.563 108.123 122.122ZM107.408 125.021H117.678V125.697H107.408V125.021ZM107.538 131.417V128.791H116.768V127.634H107.538V126.958H117.548V129.467H108.318V130.741H117.678V131.417H107.538ZM129.094 126.087H122.594V120.419H129.094V126.087ZM131.304 128.427V120.419H132.084V123.214H133.774V123.89H132.084V128.427H131.304ZM123.374 121.095V125.411H128.314V121.095H123.374ZM123.504 127.751V130.741H132.214V131.417H122.724V127.751H123.504ZM134.68 120.419H135.46V130.741H138.164C139.594 130.741 140.881 130.689 142.012 130.455V131.131C140.881 131.365 139.594 131.417 138.164 131.417H134.68V120.419ZM143.39 131.417V120.419H144.17V125.034H145.86V125.71H144.17V131.417H143.39ZM151.056 131.417H150.25C150.731 127.829 151.069 124.332 151.134 121.095H146.701V120.419H151.966C151.927 122.018 151.849 123.552 151.732 125.034H153.786V120.419H154.566V131.417H153.786V125.71H151.68C151.524 127.647 151.303 129.519 151.056 131.417ZM155.996 131.417V120.419H156.776V131.417H155.996ZM161.693 125.697V125.021H165.073V123.877H161.823V120.419H168.96V121.095H162.603V123.201H169.025V123.877H165.853V125.021H169.233V125.697H161.693ZM171.053 126.1V120.419H171.833V126.1H171.053ZM161.953 131.417V128.752H171.053V127.556H161.953V126.88H171.833V129.428H162.733V130.741H171.963V131.417H161.953ZM182.599 131.417H181.793C182.274 127.829 182.612 124.332 182.677 121.095H176.814V120.419H183.509C183.47 122.109 183.379 123.721 183.262 125.294H186.109V120.419H186.889V131.417H186.109V125.97H183.21C183.054 127.816 182.833 129.597 182.599 131.417ZM188.9 122.824C188.9 121.316 189.849 120.289 191.5 120.289C193.151 120.289 194.1 121.316 194.1 122.824V123.344H195.985V120.419H196.765V131.417H195.985V128.167H194.1V129.012C194.1 130.52 193.151 131.547 191.5 131.547C189.849 131.547 188.9 130.52 188.9 129.012V122.824ZM198.195 131.417V120.419H198.975V131.417H198.195ZM191.5 130.871C192.644 130.871 193.32 130.169 193.32 129.012V122.824C193.32 121.667 192.644 120.965 191.5 120.965C190.356 120.965 189.68 121.667 189.68 122.824V129.012C189.68 130.169 190.356 130.871 191.5 130.871ZM194.1 124.02V127.491H195.985V124.02H194.1ZM191.5 127.179C191.448 126.152 191.071 125.853 190.226 125.814C191.071 125.775 191.448 125.476 191.5 124.449C191.552 125.476 191.916 125.775 192.774 125.814C191.916 125.853 191.552 126.152 191.5 127.179ZM200.856 123.578C200.856 121.732 202.013 120.419 203.781 120.419H208.331C210.099 120.419 211.256 121.732 211.256 123.578C211.256 125.268 210.294 126.503 208.786 126.711V130.741H211.191V131.417H200.921V130.741H203.326V126.711C201.818 126.503 200.856 125.268 200.856 123.578ZM201.636 123.578C201.636 124.917 202.364 126.061 203.781 126.061H208.331C209.748 126.061 210.476 124.917 210.476 123.578C210.476 122.239 209.748 121.095 208.331 121.095H203.781C202.364 121.095 201.636 122.239 201.636 123.578ZM206.056 124.943C206.004 123.916 205.627 123.617 204.782 123.578C205.627 123.539 206.004 123.24 206.056 122.213C206.108 123.24 206.472 123.539 207.33 123.578C206.472 123.617 206.108 123.916 206.056 124.943ZM204.106 126.737V130.741H208.006V126.737H204.106ZM213.722 128.141L213.514 120.289H214.398L214.203 128.141H213.722ZM213.956 130C214.307 130 214.645 130.273 214.645 130.702C214.645 131.144 214.307 131.417 213.956 131.417C213.605 131.417 213.267 131.144 213.267 130.702C213.267 130.273 213.605 130 213.956 130Z" fill="#BFE373"/>
<path fill-rule="evenodd" clip-rule="evenodd" d="M211.755 222.273C205.942 216.46 197.661 213.585 189.748 214.216C190.379 206.303 187.503 198.021 181.691 192.209C171.403 181.921 155.242 181.913 144.963 192.192C139.835 197.321 136.969 203.941 135.481 212.197C133.995 203.942 131.129 197.322 126 192.193C115.721 181.913 99.5611 181.921 89.2726 192.209C83.4603 198.022 80.5851 206.303 81.2159 214.216C73.303 213.585 65.0213 216.461 59.209 222.273C48.9205 232.561 48.9132 248.722 59.1923 259.001C64.3195 264.128 70.9369 266.993 79.1898 268.482C70.9369 269.971 64.3195 272.836 59.1923 277.963C48.9132 288.242 48.9205 304.402 59.209 314.691C65.0213 320.503 73.303 323.378 81.2159 322.748C80.5851 330.661 83.4603 338.942 89.2726 344.755C99.5611 355.043 115.721 355.05 126 344.771C131.129 339.642 133.995 333.022 135.481 324.767C136.969 333.023 139.835 339.643 144.963 344.771C155.242 355.051 171.403 355.043 181.691 344.755C187.503 338.942 190.379 330.661 189.748 322.748C197.661 323.379 205.942 320.503 211.755 314.691C222.043 304.403 222.051 288.242 211.771 277.963C206.641 272.833 200.02 269.968 191.763 268.482C200.02 266.996 206.641 264.131 211.771 259.001C222.051 248.721 222.043 232.561 211.755 222.273ZM135.485 268.482L135.482 268.482L135.482 268.478L135.482 268.482V268.482L135.482 268.486L135.482 268.482L135.485 268.482Z" fill="url(#paint0_radial_122_2244)"/>
<path fill-rule="evenodd" clip-rule="evenodd" d="M183.753 238.753C180.038 235.038 174.744 233.2 169.686 233.603C170.09 228.545 168.252 223.252 164.537 219.537C157.96 212.96 147.631 212.956 141.06 219.526C137.782 222.804 135.951 227.035 134.999 232.312C134.05 227.036 132.218 222.804 128.94 219.526C122.369 212.956 112.04 212.96 105.463 219.537C101.748 223.252 99.9104 228.545 100.314 233.603C95.2558 233.2 89.9621 235.038 86.247 238.753C79.6706 245.329 79.6659 255.659 86.2363 262.229C89.5136 265.507 93.7434 267.338 99.0187 268.29C93.7434 269.241 89.5136 271.072 86.2363 274.35C79.6659 280.92 79.6706 291.25 86.2469 297.826C89.9621 301.541 95.2558 303.379 100.314 302.976C99.9104 308.034 101.748 313.327 105.463 317.042C112.04 323.619 122.369 323.623 128.94 317.053C132.218 313.775 134.05 309.543 134.999 304.267C135.951 309.544 137.782 313.775 141.06 317.053C147.631 323.624 157.96 323.619 164.537 317.043C168.252 313.327 170.09 308.034 169.686 302.976C174.744 303.379 180.038 301.541 183.753 297.826C190.329 291.25 190.334 280.92 183.764 274.35C180.485 271.071 176.252 269.239 170.974 268.29C176.252 267.34 180.485 265.508 183.764 262.229C190.334 255.659 190.329 245.329 183.753 238.753ZM135.002 268.29L135 268.29L135 268.287L135 268.289L135 268.292L135 268.29L135.002 268.29Z" fill="url(#paint1_radial_122_2244)"/>
<path fill-rule="evenodd" clip-rule="evenodd" d="M163.023 251.023C160.887 248.887 157.845 247.831 154.937 248.063C155.169 245.155 154.113 242.113 151.977 239.977C148.197 236.197 142.26 236.195 138.483 239.971C136.599 241.855 135.546 244.287 135 247.32C134.454 244.288 133.401 241.856 131.517 239.971C127.74 236.195 121.803 236.197 118.023 239.977C115.887 242.113 114.831 245.155 115.063 248.063C112.155 247.831 109.113 248.887 106.977 251.023C103.197 254.803 103.195 260.74 106.971 264.517C108.855 266.4 111.286 267.453 114.318 268C111.286 268.547 108.855 269.6 106.971 271.483C103.195 275.26 103.197 281.197 106.977 284.977C109.113 287.112 112.155 288.169 115.063 287.937C114.831 290.844 115.887 293.887 118.023 296.022C121.803 299.802 127.74 299.805 131.517 296.029C133.401 294.144 134.454 291.712 135 288.679C135.546 291.713 136.599 294.145 138.483 296.029C142.26 299.805 148.197 299.803 151.977 296.023C154.113 293.887 155.169 290.845 154.937 287.937C157.845 288.169 160.887 287.113 163.023 284.977C166.803 281.197 166.805 275.26 163.029 271.483C161.144 269.599 158.711 268.546 155.678 268C158.711 267.454 161.144 266.401 163.029 264.517C166.805 260.74 166.803 254.803 163.023 251.023ZM135.001 268L135 268L135 267.999L135 268L135 268L135 268L135 268L135 268L135.001 268Z" fill="url(#paint2_radial_122_2244)"/>
<rect x="11" y="11" width="248" height="378" rx="15" stroke="url(#paint3_linear_122_2244)" stroke-opacity="0.5" stroke-width="2"/>
<defs>
<filter id="filter0_d_122_2244" x="84.775" y="29.144" width="100.705" height="57.0879" filterUnits="userSpaceOnUse" color-interpolation-filters="sRGB">
<feFlood flood-opacity="0" result="BackgroundImageFix"/>
<feColorMatrix in="SourceAlpha" type="matrix" values="0 0 0 0 0 0 0 0 0 0 0 0 0 0 0 0 0 0 127 0" result="hardAlpha"/>
<feOffset/>
<feGaussianBlur stdDeviation="4"/>
<feComposite in2="hardAlpha" operator="out"/>
<feColorMatrix type="matrix" values="0 0 0 0 0.74902 0 0 0 0 0.890196 0 0 0 0 0.45098 0 0 0 0.7 0"/>
<feBlend mode="normal" in2="BackgroundImageFix" result="effect1_dropShadow_122_2244"/>
<feBlend mode="normal" in="SourceGraphic" in2="effect1_dropShadow_122_2244" result="shape"/>
</filter>
<radialGradient id="paint0_radial_122_2244" cx="0" cy="0" r="1" gradientUnits="userSpaceOnUse" gradientTransform="translate(135.482 268.482) rotate(135) scale(86.6078 86.6079)">
<stop stop-color="#BFE373" stop-opacity="0.77"/>
<stop offset="1" stop-color="#BFE373" stop-opacity="0"/>
</radialGradient>
<radialGradient id="paint1_radial_122_2244" cx="0" cy="0" r="1" gradientUnits="userSpaceOnUse" gradientTransform="translate(135 268.29) rotate(135) scale(55.3591 55.3591)">
<stop stop-color="#BFE373" stop-opacity="0.77"/>
<stop offset="1" stop-color="#BFE373" stop-opacity="0"/>
</radialGradient>
<radialGradient id="paint2_radial_122_2244" cx="0" cy="0" r="1" gradientUnits="userSpaceOnUse" gradientTransform="translate(135 268) rotate(135) scale(31.8198 31.8198)">
<stop stop-color="#BFE373" stop-opacity="0.77"/>
<stop offset="1" stop-color="#BFE373" stop-opacity="0"/>
</radialGradient>
<linearGradient id="paint3_linear_122_2244" x1="16.875" y1="10" x2="253.239" y2="394.16" gradientUnits="userSpaceOnUse">
<stop stop-color="#445128" stop-opacity="0.51"/>
<stop offset="0.307292" stop-color="#BFE373"/>
<stop offset="1" stop-color="#ECFFC4" stop-opacity="0.03"/>
</linearGradient>
</defs>
</svg>
