<svg width="270" height="400" viewBox="0 0 270 400" fill="none" xmlns="http://www.w3.org/2000/svg">
<rect width="270" height="400" rx="24" fill="#32363A"/>
<path fill-rule="evenodd" clip-rule="evenodd" d="M170.322 160C169.552 158.667 167.627 158.667 166.857 160L132.728 219.115C131.958 220.448 132.92 222.115 134.46 222.115H154.157C156.253 260.363 151.008 344.932 113.341 382.599L159.381 382.599H224.496C186.829 344.932 181.584 260.363 183.68 222.115H202.719C204.259 222.115 205.221 220.448 204.451 219.115L170.322 160Z" fill="url(#paint0_radial_122_2242)"/>
<path fill-rule="evenodd" clip-rule="evenodd" d="M170.939 175.602C170.2 174.132 168.103 174.132 167.364 175.602L148.962 212.229C148.294 213.559 149.261 215.127 150.749 215.127H160.841C162.048 240.434 159.029 296.388 137.341 321.311H163.85H174.832H201.341C179.653 296.388 176.633 240.434 177.84 215.127H187.554C189.042 215.127 190.009 213.559 189.341 212.229L170.939 175.602Z" fill="url(#paint1_radial_122_2242)"/>
<path fill-rule="evenodd" clip-rule="evenodd" d="M170.912 187.232C170.228 185.589 167.901 185.589 167.218 187.232L158.156 209.026C157.608 210.343 158.576 211.794 160.002 211.794H164.435C165.107 228.83 163.425 266.498 151.341 283.275H172.23L187 283.275C174.916 266.498 173.233 228.83 173.906 211.794H178.127C179.554 211.794 180.522 210.343 179.974 209.026L170.912 187.232Z" fill="url(#paint2_radial_122_2242)"/>
<path fill-rule="evenodd" clip-rule="evenodd" d="M86.4141 223.563C85.6443 222.23 83.7198 222.23 82.95 223.563L59.4124 264.332C58.6426 265.665 59.6049 267.332 61.1445 267.332H74.3158C75.8212 294.804 72.0545 355.545 45 382.599H78.0686V382.599H124.837C97.7823 355.545 94.0156 294.804 95.5211 267.332H108.22C109.759 267.332 110.721 265.665 109.952 264.332L86.4141 223.563Z" fill="url(#paint3_radial_122_2242)"/>
<path fill-rule="evenodd" clip-rule="evenodd" d="M86.873 234.926C86.1347 233.457 84.0371 233.457 83.2988 234.926L70.995 259.415C70.3268 260.745 71.2937 262.313 72.7822 262.313H79.117C79.9838 280.49 77.815 320.678 62.2378 338.579H81.2779V338.579H108.206C92.6285 320.678 90.4597 280.49 91.3265 262.313H97.3896C98.878 262.313 99.8449 260.745 99.1767 259.415L86.873 234.926Z" fill="url(#paint4_radial_122_2242)"/>
<path fill-rule="evenodd" clip-rule="evenodd" d="M86.8705 243.529C86.1874 241.886 83.8602 241.886 83.1771 243.529L77.5126 257.151C76.9649 258.468 77.9328 259.919 79.3593 259.919H81.698C82.1809 272.155 80.9726 299.21 72.2935 311.26H87.2968V311.26H97.9051C89.226 299.21 88.0176 272.155 88.5006 259.919H90.6883C92.1148 259.919 93.0827 258.468 92.535 257.151L86.8705 243.529Z" fill="url(#paint5_radial_122_2242)"/>
<g filter="url(#filter0_d_122_2242)">
<path d="M92.775 52.6L107.655 37.624H117.735L132.615 52.6H121.575L112.695 43.624L103.815 52.6H92.775ZM92.775 61.336V53.896H132.615V61.336H92.775ZM132.855 70.552C132.855 75.832 130.119 78.232 124.359 78.232H101.031C95.271 78.232 92.535 75.832 92.535 70.552C92.535 65.272 95.271 62.872 101.031 62.872H124.359C130.119 62.872 132.855 65.272 132.855 70.552ZM112.695 77.704C112.695 73 118.839 70.696 130.839 70.552C118.839 70.456 112.695 68.152 112.695 63.4C112.695 68.152 106.503 70.456 94.503 70.552C106.503 70.696 112.695 73 112.695 77.704ZM137.16 59.896L141.768 45.064H137.16V37.624H165V45.064H160.392L165 59.896H155.16L151.08 45.016L147 59.896H137.16ZM167.64 65.752V37.624H177.24V65.752H167.64ZM137.4 62.536H147V70.792L159 70.744C165.24 70.696 171.96 70.216 177.48 69.352V78.232H137.4V62.536Z" fill="#81DAFF"/>
</g>
<path d="M75.2724 103.604C75.2724 101.706 76.2214 100.289 78.6524 100.289C81.0834 100.289 82.0324 101.706 82.0324 103.604V108.232C82.0324 110.13 81.0834 111.547 78.6524 111.547C76.2214 111.547 75.2724 110.13 75.2724 108.232V103.604ZM84.5674 111.417V100.419H85.3474V111.417H84.5674ZM78.6524 110.871C80.5764 110.871 81.2524 109.779 81.2524 108.232V103.604C81.2524 102.057 80.5764 100.965 78.6524 100.965C76.7284 100.965 76.0524 102.057 76.0524 103.604V108.232C76.0524 109.779 76.7284 110.871 78.6524 110.871ZM78.6524 107.179C78.6004 106.152 78.2234 105.853 77.3784 105.814C78.2234 105.775 78.6004 105.476 78.6524 104.449C78.7044 105.476 79.0684 105.775 79.9264 105.814C79.0684 105.853 78.7044 106.152 78.6524 107.179ZM87.2933 100.419H92.8833V101.095H90.8163L92.8833 111.417H92.1033L90.0883 101.329L88.0733 111.417H87.2933L89.3473 101.095H87.2933V100.419ZM92.3893 105.034H94.4433V100.419H95.2233V111.417H94.4433V105.71H92.3893V105.034ZM96.6533 111.417V100.419H97.4333V111.417H96.6533ZM102.48 100.419H109.097V101.095H103.26V110.741H105.964C107.394 110.741 108.681 110.689 109.812 110.455V111.131C108.681 111.365 107.394 111.417 105.964 111.417H102.48V100.419ZM107.446 105.294H111.71V100.419H112.49V111.417H111.71V105.97H107.446V105.294ZM117.537 100.419H118.317V110.741H121.021C122.451 110.741 123.738 110.689 124.869 110.455V111.131C123.738 111.365 122.451 111.417 121.021 111.417H117.537V100.419ZM126.247 111.417V100.419H127.027V105.034H128.717V105.71H127.027V111.417H126.247ZM129.558 103.604C129.558 101.706 130.442 100.289 132.873 100.289C135.304 100.289 136.188 101.706 136.188 103.604V108.232C136.188 110.13 135.304 111.547 132.873 111.547C130.442 111.547 129.558 110.13 129.558 108.232V103.604ZM138.333 111.417V100.419H139.113V105.034H140.803V105.71H139.113V111.417H138.333ZM132.873 110.871C134.797 110.871 135.408 109.779 135.408 108.232V103.604C135.408 102.057 134.797 100.965 132.873 100.965C130.949 100.965 130.338 102.057 130.338 103.604V108.232C130.338 109.779 130.949 110.871 132.873 110.871ZM132.873 107.179C132.821 106.152 132.444 105.853 131.599 105.814C132.444 105.775 132.821 105.476 132.873 104.449C132.925 105.476 133.289 105.775 134.147 105.814C133.289 105.853 132.925 106.152 132.873 107.179ZM147.688 105.307H146.882C147.259 103.539 147.441 102.512 147.506 101.095H141.643V100.419H148.338C148.247 102.512 148.065 103.539 147.688 105.307ZM150.418 105.71V100.419H151.198V102.538H152.888V103.214H151.198V105.71H150.418ZM141.838 111.417V108.492H150.418V107.036H141.838V106.36H151.198V109.168H142.618V110.741H151.328V111.417H141.838ZM156.765 111.417V100.419H163.382V101.095H157.545V105.229H163.252V105.905H157.545V110.741H160.249C161.679 110.741 162.966 110.689 164.097 110.455V111.131C162.966 111.365 161.679 111.417 160.249 111.417H156.765ZM165.475 111.417V100.419H166.255V105.034H167.945V105.71H166.255V111.417H165.475ZM168.786 103.604C168.786 101.706 169.735 100.289 172.166 100.289C174.597 100.289 175.546 101.706 175.546 103.604V108.232C175.546 110.13 174.597 111.547 172.166 111.547C169.735 111.547 168.786 110.13 168.786 108.232V103.604ZM178.081 111.417V100.419H178.861V111.417H178.081ZM172.166 110.871C174.09 110.871 174.766 109.779 174.766 108.232V103.604C174.766 102.057 174.09 100.965 172.166 100.965C170.242 100.965 169.566 102.057 169.566 103.604V108.232C169.566 109.779 170.242 110.871 172.166 110.871ZM172.166 107.179C172.114 106.152 171.737 105.853 170.892 105.814C171.737 105.775 172.114 105.476 172.166 104.449C172.218 105.476 172.582 105.775 173.44 105.814C172.582 105.853 172.218 106.152 172.166 107.179ZM187.567 105.697H180.937V100.419H187.567V105.697ZM190.167 106.191V100.419H190.947V106.191H190.167ZM181.717 101.095V105.021H186.787V101.095H181.717ZM180.872 109.194C180.872 107.738 181.769 106.971 183.277 106.971H188.737C190.245 106.971 191.142 107.738 191.142 109.194C191.142 110.65 190.245 111.417 188.737 111.417H183.277C181.769 111.417 180.872 110.65 180.872 109.194ZM181.652 109.194C181.652 110.143 182.12 110.741 183.277 110.741H188.737C189.894 110.741 190.362 110.143 190.362 109.194C190.362 108.245 189.894 107.647 188.737 107.647H183.277C182.12 107.647 181.652 108.245 181.652 109.194ZM193.608 108.141L193.4 100.289H194.284L194.089 108.141H193.608ZM193.842 110C194.193 110 194.531 110.273 194.531 110.702C194.531 111.144 194.193 111.417 193.842 111.417C193.491 111.417 193.153 111.144 193.153 110.702C193.153 110.273 193.491 110 193.842 110ZM72.4814 126.321V124.982H69.3874C68.8544 125.801 67.8404 126.347 66.5014 126.347C64.4604 126.347 63.1864 125.06 63.1864 123.552V123.084C63.1864 121.576 64.4604 120.289 66.5014 120.289C67.7624 120.289 68.7244 120.783 69.2834 121.511H72.4814V120.419H73.2614V126.321H72.4814ZM66.5014 125.671C68.0354 125.671 69.0364 124.709 69.0364 123.552V123.084C69.0364 121.927 68.0354 120.965 66.5014 120.965C64.9674 120.965 63.9664 121.927 63.9664 123.084V123.552C63.9664 124.709 64.9674 125.671 66.5014 125.671ZM66.5014 124.657C66.4494 123.63 66.0724 123.331 65.2274 123.292C66.0724 123.253 66.4494 122.954 66.5014 121.927C66.5534 122.954 66.9174 123.253 67.7754 123.292C66.9174 123.331 66.5534 123.63 66.5014 124.657ZM69.8164 123.552C69.8164 123.812 69.7774 124.072 69.6994 124.306H72.4814V122.187H69.6474C69.7514 122.473 69.8164 122.772 69.8164 123.084V123.552ZM72.4814 131.417V127.777H63.2514V127.101H73.2614V131.417H72.4814ZM75.3374 122.889H81.1744V121.095H75.3374V120.419H81.9544V123.565H76.1174V125.541H78.5614C79.9914 125.541 81.2784 125.45 82.4094 125.307V125.983C81.2784 126.126 79.9914 126.217 78.5614 126.217H75.3374V122.889ZM84.0474 126.711V120.419H84.8274V121.745H86.5174V122.421H84.8274V124.215H86.5174V124.891H84.8274V126.711H84.0474ZM75.2724 129.454C75.2724 127.998 76.1694 127.491 77.6774 127.491H82.6174C84.1254 127.491 85.0224 127.998 85.0224 129.454C85.0224 130.91 84.1254 131.417 82.6174 131.417H77.6774C76.1694 131.417 75.2724 130.91 75.2724 129.454ZM76.0524 129.454C76.0524 130.403 76.5204 130.741 77.6774 130.741H82.6174C83.7744 130.741 84.2424 130.403 84.2424 129.454C84.2424 128.505 83.7744 128.167 82.6174 128.167H77.6774C76.5204 128.167 76.0524 128.505 76.0524 129.454ZM87.2283 122.122C87.2283 121.056 87.9953 120.419 89.1133 120.419H95.7433C96.8613 120.419 97.6283 121.056 97.6283 122.122C97.6283 123.188 96.8613 123.825 95.7433 123.825H89.1133C87.9953 123.825 87.2283 123.188 87.2283 122.122ZM88.0083 122.122C88.0083 122.681 88.3463 123.149 89.1133 123.149H95.7433C96.5103 123.149 96.8483 122.681 96.8483 122.122C96.8483 121.563 96.5103 121.095 95.7433 121.095H89.1133C88.3463 121.095 88.0083 121.563 88.0083 122.122ZM87.2933 125.021H97.5633V125.697H87.2933V125.021ZM87.4233 131.417V128.791H96.6533V127.634H87.4233V126.958H97.4333V129.467H88.2033V130.741H97.5633V131.417H87.4233ZM108.98 131.417H102.48V120.419H108.98V131.417ZM111.19 131.417V120.419H111.97V125.034H113.66V125.71H111.97V131.417H111.19ZM103.26 121.095V130.741H108.2V121.095H103.26ZM114.371 122.278C114.371 121.082 115.138 120.419 116.386 120.419H122.756C124.004 120.419 124.771 121.082 124.771 122.278C124.771 123.474 124.004 124.137 122.756 124.137H116.386C115.138 124.137 114.371 123.474 114.371 122.278ZM115.151 122.278C115.151 122.967 115.489 123.461 116.386 123.461H122.756C123.653 123.461 123.991 122.967 123.991 122.278C123.991 121.589 123.653 121.095 122.756 121.095H116.386C115.489 121.095 115.151 121.589 115.151 122.278ZM114.436 125.541H124.706V126.217H114.436V125.541ZM114.566 131.417V127.751H124.576V131.417H114.566ZM115.346 130.741H123.796V128.427H115.346V130.741ZM132.892 126.087H132.086C132.463 124.319 132.645 122.512 132.71 121.095H130.487V120.419H133.542C133.503 121.238 133.464 122.005 133.386 122.746H135.882V120.419H136.662V127.231H135.882V123.422H133.321C133.217 124.345 133.074 125.216 132.892 126.087ZM129.382 126.087H128.576C128.953 124.319 129.135 122.512 129.2 121.095H126.587V120.419H130.032C129.941 122.512 129.759 124.319 129.382 126.087ZM126.522 131.417L131.527 126.971H132.385L137.39 131.417H136.376L131.956 127.517L127.536 131.417H126.522ZM141.578 125.866H146.323V124.397H141.708V120.419H142.488V123.721H146.323V120.419H147.103V123.721H150.938V120.419H151.718V124.397H147.103V125.866H151.848V126.542H141.578V125.866ZM144.464 123.409C144.412 122.382 144.035 122.083 143.19 122.044C144.035 122.005 144.412 121.706 144.464 120.679C144.516 121.706 144.88 122.005 145.738 122.044C144.88 122.083 144.516 122.382 144.464 123.409ZM149.092 123.409C149.04 122.382 148.663 122.083 147.818 122.044C148.663 122.005 149.04 121.706 149.092 120.679C149.144 121.706 149.508 122.005 150.366 122.044C149.508 122.083 149.144 122.382 149.092 123.409ZM141.708 131.417V127.881H151.718V131.417H141.708ZM142.488 130.741H150.938V128.557H142.488V130.741ZM163.024 125.71V123.201H161.009V125.71H160.229V120.419H161.009V122.525H163.024V120.419H163.804V125.71H163.024ZM153.794 120.419H154.574V124.306H155.393C156.823 124.306 158.11 124.215 159.241 124.072V124.748C158.11 124.891 156.823 124.982 155.393 124.982H153.794V120.419ZM153.924 131.417V128.492H163.024V127.036H153.924V126.36H163.804V129.168H154.704V130.741H163.934V131.417H153.924ZM174.571 131.417H173.765C174.246 127.829 174.584 124.332 174.649 121.095H168.786V120.419H175.481C175.442 122.109 175.351 123.721 175.234 125.294H178.081V120.419H178.861V131.417H178.081V125.97H175.182C175.026 127.816 174.805 129.597 174.571 131.417ZM180.872 122.824C180.872 121.316 181.821 120.289 183.472 120.289C185.123 120.289 186.072 121.316 186.072 122.824V123.344H187.957V120.419H188.737V131.417H187.957V128.167H186.072V129.012C186.072 130.52 185.123 131.547 183.472 131.547C181.821 131.547 180.872 130.52 180.872 129.012V122.824ZM190.167 131.417V120.419H190.947V131.417H190.167ZM183.472 130.871C184.616 130.871 185.292 130.169 185.292 129.012V122.824C185.292 121.667 184.616 120.965 183.472 120.965C182.328 120.965 181.652 121.667 181.652 122.824V129.012C181.652 130.169 182.328 130.871 183.472 130.871ZM186.072 124.02V127.491H187.957V124.02H186.072ZM183.472 127.179C183.42 126.152 183.043 125.853 182.198 125.814C183.043 125.775 183.42 125.476 183.472 124.449C183.524 125.476 183.888 125.775 184.746 125.814C183.888 125.853 183.524 126.152 183.472 127.179ZM192.828 123.578C192.828 121.732 193.985 120.419 195.753 120.419H200.303C202.071 120.419 203.228 121.732 203.228 123.578C203.228 125.268 202.266 126.503 200.758 126.711V130.741H203.163V131.417H192.893V130.741H195.298V126.711C193.79 126.503 192.828 125.268 192.828 123.578ZM193.608 123.578C193.608 124.917 194.336 126.061 195.753 126.061H200.303C201.72 126.061 202.448 124.917 202.448 123.578C202.448 122.239 201.72 121.095 200.303 121.095H195.753C194.336 121.095 193.608 122.239 193.608 123.578ZM198.028 124.943C197.976 123.916 197.599 123.617 196.754 123.578C197.599 123.539 197.976 123.24 198.028 122.213C198.08 123.24 198.444 123.539 199.302 123.578C198.444 123.617 198.08 123.916 198.028 124.943ZM196.078 126.737V130.741H199.978V126.737H196.078ZM205.694 128.141L205.486 120.289H206.37L206.175 128.141H205.694ZM205.928 130C206.279 130 206.617 130.273 206.617 130.702C206.617 131.144 206.279 131.417 205.928 131.417C205.577 131.417 205.239 131.144 205.239 130.702C205.239 130.273 205.577 130 205.928 130Z" fill="#81DAFF"/>
<rect x="11" y="11" width="248" height="378" rx="15" stroke="url(#paint6_linear_122_2242)" stroke-opacity="0.5" stroke-width="2"/>
<defs>
<filter id="filter0_d_122_2242" x="84.5349" y="29.624" width="100.945" height="56.6079" filterUnits="userSpaceOnUse" color-interpolation-filters="sRGB">
<feFlood flood-opacity="0" result="BackgroundImageFix"/>
<feColorMatrix in="SourceAlpha" type="matrix" values="0 0 0 0 0 0 0 0 0 0 0 0 0 0 0 0 0 0 127 0" result="hardAlpha"/>
<feOffset/>
<feGaussianBlur stdDeviation="4"/>
<feComposite in2="hardAlpha" operator="out"/>
<feColorMatrix type="matrix" values="0 0 0 0 0.505882 0 0 0 0 0.854902 0 0 0 0 1 0 0 0 0.7 0"/>
<feBlend mode="normal" in2="BackgroundImageFix" result="effect1_dropShadow_122_2242"/>
<feBlend mode="normal" in="SourceGraphic" in2="effect1_dropShadow_122_2242" result="shape"/>
</filter>
<radialGradient id="paint0_radial_122_2242" cx="0" cy="0" r="1" gradientUnits="userSpaceOnUse" gradientTransform="translate(168.918 270.8) rotate(90) scale(111.8 55.5776)">
<stop stop-color="#81DAFF" stop-opacity="0.68"/>
<stop offset="1" stop-color="#81DAFF" stop-opacity="0"/>
</radialGradient>
<radialGradient id="paint1_radial_122_2242" cx="0" cy="0" r="1" gradientUnits="userSpaceOnUse" gradientTransform="translate(169.341 247.905) rotate(90) scale(73.4054 31.9999)">
<stop stop-color="#81DAFF" stop-opacity="0.68"/>
<stop offset="1" stop-color="#81DAFF" stop-opacity="0"/>
</radialGradient>
<radialGradient id="paint2_radial_122_2242" cx="0" cy="0" r="1" gradientUnits="userSpaceOnUse" gradientTransform="translate(169.17 234.637) rotate(90) scale(48.6375 17.8294)">
<stop stop-color="#81DAFF" stop-opacity="0.68"/>
<stop offset="1" stop-color="#81DAFF" stop-opacity="0"/>
</radialGradient>
<radialGradient id="paint3_radial_122_2242" cx="0" cy="0" r="1" gradientUnits="userSpaceOnUse" gradientTransform="translate(84.9184 302.581) rotate(90) scale(80.0179 39.9184)">
<stop stop-color="#81DAFF" stop-opacity="0.68"/>
<stop offset="1" stop-color="#81DAFF" stop-opacity="0"/>
</radialGradient>
<radialGradient id="paint4_radial_122_2242" cx="0" cy="0" r="1" gradientUnits="userSpaceOnUse" gradientTransform="translate(85.2217 286.202) rotate(90) scale(52.3773 22.9839)">
<stop stop-color="#81DAFF" stop-opacity="0.68"/>
<stop offset="1" stop-color="#81DAFF" stop-opacity="0"/>
</radialGradient>
<radialGradient id="paint5_radial_122_2242" cx="0" cy="0" r="1" gradientUnits="userSpaceOnUse" gradientTransform="translate(85.0993 276.778) rotate(90) scale(34.4816 12.8058)">
<stop stop-color="#81DAFF" stop-opacity="0.68"/>
<stop offset="1" stop-color="#81DAFF" stop-opacity="0"/>
</radialGradient>
<linearGradient id="paint6_linear_122_2242" x1="16.875" y1="10" x2="253.239" y2="394.16" gradientUnits="userSpaceOnUse">
<stop stop-color="#2E7694" stop-opacity="0.44"/>
<stop offset="0.307292" stop-color="#81DAFF"/>
<stop offset="1" stop-color="#81DAFF" stop-opacity="0.06"/>
</linearGradient>
</defs>
</svg>
