<svg width="320" height="484" viewBox="0 0 320 484" fill="none" xmlns="http://www.w3.org/2000/svg">
    <rect x="17" width="286" height="484" fill="#32363A"/>
    <circle cx="8.5" cy="17.5" r="8.5" fill="#DCE7F0" fill-opacity="0.47"/>
    <circle cx="311.5" cy="17.5" r="8.5" fill="#DCE7F0" fill-opacity="0.47"/>
    <path fill-rule="evenodd" clip-rule="evenodd" d="M17.6868 0H302.023V0.0371839C302.211 0.0125244 302.401 0 302.592 0C307.313 0 311.14 7.61116 311.14 17C311.14 26.3888 307.313 34 302.592 34C302.401 34 302.211 33.9875 302.023 33.9628V34H17.6868H17.117V33.9628C12.6622 33.3796 9.13965 26.008 9.13965 17C9.13965 7.992 12.6622 0.620384 17.117 0.0371794V0H17.6868Z" fill="#53565E"/>
    <circle cx="8.5" cy="467.5" r="8.5" fill="#DCE7F0" fill-opacity="0.47"/>
    <circle cx="311.5" cy="467.5" r="8.5" fill="#DCE7F0" fill-opacity="0.47"/>
    <path fill-rule="evenodd" clip-rule="evenodd" d="M17.6868 450H302.023V450.037C302.211 450.013 302.401 450 302.592 450C307.313 450 311.14 457.611 311.14 467C311.14 476.389 307.313 484 302.592 484C302.401 484 302.211 483.987 302.023 483.963V484H17.6868H17.117V483.963C12.6622 483.38 9.13965 476.008 9.13965 467C9.13965 457.992 12.6622 450.62 17.117 450.037V450H17.6868Z" fill="#53565E"/>
    </svg>
    